{
.appVersion = "895";
DisplayStrings = (
"Ogoli/nacute solko",
adhesion,
/dcroat/hbar,
"\U00E5lleluja-",
"ski pysk\012zysk\012czyli\012szcz"
);
copyright = "Copyright © 2016 by Mateusz Machalski. All rights reserved.";
date = "2016-05-18 15:31:45 +0000";
designer = "Mateusz Machalski";
designerURL = www.machalski.wtf;
familyName = Magiel;
featurePrefixes = (
{
automatic = 1;
code = "languagesystem DFLT dflt;\012languagesystem latn dflt;\012languagesystem latn ROM;\012languagesystem latn MOL;\012languagesystem latn KAZ;\012languagesystem latn TAT;\012languagesystem latn TRK;\012languagesystem latn CRT;\012languagesystem latn AZE;\012";
name = Languagesystems;
}
);
features = (
{
automatic = 1;
code = "feature locl;\012";
name = aalt;
},
{
automatic = 1;
code = "script latn;\012language ROM;\012sub Scedilla by Scommaaccent;\012sub scedilla by scommaaccent;\012sub Tcedilla by Tcommaaccent;\012sub tcedilla by tcommaaccent;\012language MOL;\012sub Scedilla by Scommaaccent;\012sub scedilla by scommaaccent;\012sub Tcedilla by Tcommaaccent;\012sub tcedilla by tcommaaccent;\012language KAZ;\012sub i by idotaccent;\012language TAT;\012sub i by idotaccent;\012language TRK;\012sub i by idotaccent;\012language CRT;\012sub i by idotaccent;\012language AZE;\012sub i by idotaccent;\012";
name = locl;
}
);
fontMaster = (
{
alignmentZones = (
"{700, 34}",
"{680, 11}",
"{490, 11}",
"{0, -11}",
"{-210, -21}"
);
ascender = 700;
capHeight = 680;
descender = -210;
horizontalStems = (
18
);
id = "D0758D58-6BF2-4444-AD52-30AE2E418BEE";
verticalStems = (
20
);
weight = Light;
weightValue = 20;
xHeight = 490;
},
{
alignmentZones = (
"{700, 15}",
"{680, 21}",
"{550, 21}",
"{0, -21}",
"{-150, -15}"
);
ascender = 700;
capHeight = 680;
descender = -150;
horizontalStems = (
245
);
id = "E846E39B-8E1C-41DF-9DB7-AA75C54DD1EE";
userData = {
GSCornerRadius = 100;
GSOffsetHorizontal = 50;
GSOffsetMakeStroke = 1;
GSOffsetVertical = 50;
};
verticalStems = (
300
);
weight = Bold;
weightValue = 300;

glyphs = (
{
glyphname = A;
lastChange = "2016-09-22 13:53:26 +0000";
layers = (
{
anchors = (
{
name = bottom;
position = "{415, 0}";
},
{
name = ogonek;
position = "{690, 3}";
},
{
name = top;
position = "{415, 680}";
}
);
layerId = "E846E39B-8E1C-41DF-9DB7-AA75C54DD1EE";
paths = (
{
closed = 1;
nodes = (
"210 0 LINE",
"375 282 LINE",
"415 760 LINE",
"-30 0 LINE"
);
},
{
closed = 1;
nodes = (
"415 760 LINE",
"375 282 LINE",
"530 0 LINE",
"860 0 LINE"
);
},
{
closed = 1;
nodes = (
"220 60 LINE",
"540 60 LINE",
"540 190 LINE",
"220 190 LINE"
);
}
);
width = 830;
},
{
anchors = (
{
name = bottom;
position = "{347, 0}";
},
{
name = ogonek;
position = "{685, 0}";
},
{
name = top;
position = "{347, 650}";
}
);
layerId = "D0758D58-6BF2-4444-AD52-30AE2E418BEE";
paths = (
{
closed = 1;
nodes = (
"32 0 LINE",
"347 670 LINE",
"347 713 LINE",
"10 0 LINE"
);
},
{
closed = 1;
nodes = (
"347 713 LINE",
"347 670 LINE",
"662 0 LINE",
"685 0 LINE"
);
},
{
closed = 1;
nodes = (
"127 202 LINE",
"567 202 LINE",
"567 220 LINE",
"127 220 LINE"
);
}
);
width = 695;
}
);
leftKerningGroup = A;
rightKerningGroup = A;
unicode = 0041;
},
{
glyphname = Aring;
lastChange = "2016-08-28 11:35:38 +0000";
layers = (
{
components = (
{
name = com_A_diacritic;
transform = "{1, 0, 0, 1, 2, 0}";
}
);
layerId = "D0758D58-6BF2-4444-AD52-30AE2E418BEE";
paths = (
{
closed = 1;
nodes = (
"419 682 OFFCURVE",
"477 740 OFFCURVE",
"477 812 CURVE SMOOTH",
"477 884 OFFCURVE",
"419 942 OFFCURVE",
"347 942 CURVE SMOOTH",
"275 942 OFFCURVE",
"217 884 OFFCURVE",
"217 812 CURVE SMOOTH",
"217 740 OFFCURVE",
"275 682 OFFCURVE",
"347 682 CURVE SMOOTH"
);
},
{
closed = 1;
nodes = (
"285 700 OFFCURVE",
"235 750 OFFCURVE",
"235 812 CURVE SMOOTH",
"235 874 OFFCURVE",
"285 924 OFFCURVE",
"347 924 CURVE SMOOTH",
"409 924 OFFCURVE",
"459 874 OFFCURVE",
"459 812 CURVE SMOOTH",
"459 750 OFFCURVE",
"409 700 OFFCURVE",
"347 700 CURVE SMOOTH"
);
}
);
width = 695;
},
{
components = (
{
name = com_A_diacritic;
}
);
layerId = "E846E39B-8E1C-41DF-9DB7-AA75C54DD1EE";
paths = (
{
closed = 1;
nodes = (
"498 643 OFFCURVE",
"565 710 OFFCURVE",
"565 793 CURVE SMOOTH",
"565 876 OFFCURVE",
"498 943 OFFCURVE",
"415 943 CURVE SMOOTH",
"332 943 OFFCURVE",
"265 876 OFFCURVE",
"265 793 CURVE SMOOTH",
"265 710 OFFCURVE",
"332 643 OFFCURVE",
"415 643 CURVE SMOOTH"
);
},
{
closed = 1;
nodes = (
"353 681 OFFCURVE",
"303 731 OFFCURVE",
"303 793 CURVE SMOOTH",
"303 855 OFFCURVE",
"353 905 OFFCURVE",
"415 905 CURVE SMOOTH",
"477 905 OFFCURVE",
"527 855 OFFCURVE",
"527 793 CURVE SMOOTH",
"527 731 OFFCURVE",
"477 681 OFFCURVE",
"415 681 CURVE SMOOTH"
);
}
);
width = 830;
}
);
leftKerningGroup = A;
leftMetricsKey = "=A";
rightKerningGroup = A;
rightMetricsKey = "=A";
unicode = 00C5;
},
{
glyphname = AE;
lastChange = "2016-10-09 19:36:28 +0000";
layers = (
{
anchors = (
{
name = bottom;
position = "{447, 0}";
},
{
name = ogonek;
position = "{785, 0}";
},
{
name = top;
position = "{447, 650}";
},
{
name = topleft;
position = "{377, 680}";
}
);
layerId = "D0758D58-6BF2-4444-AD52-30AE2E418BEE";
paths = (
{
closed = 1;
nodes = (
"36 0 LINE",
"447 645 LINE",
"447 681 LINE",
"10 0 LINE"
);
},
{
closed = 1;
nodes = (
"157 202 LINE",
"467 202 LINE",
"467 220 LINE",
"157 220 LINE"
);
},
{
closed = 1;
nodes = (
"447 0 LINE",
"467 0 LINE",
"467 680 LINE",
"447 680 LINE"
);
},
{
closed = 1;
nodes = (
"467 350 LINE",
"807 350 LINE",
"807 368 LINE",
"467 368 LINE"
);
},
{
closed = 1;
nodes = (
"467 662 LINE",
"857 662 LINE",
"857 680 LINE",
"467 680 LINE"
);
},
{
closed = 1;
nodes = (
"467 0 LINE",
"857 0 LINE",
"857 18 LINE",
"467 18 LINE"
);
}
);
width = 917;
},
{
anchors = (
{
name = bottom;
position = "{435, 0}";
},
{
name = ogonek;
position = "{710, 3}";
},
{
name = top;
position = "{435, 680}";
},
{
name = topleft;
position = "{415, 680}";
}
);
layerId = "E846E39B-8E1C-41DF-9DB7-AA75C54DD1EE";
paths = (
{
closed = 1;
nodes = (
"220 0 LINE",
"435 332 LINE",
"435 680 LINE",
"-30 0 LINE"
);
},
{
closed = 1;
nodes = (
"240 60 LINE",
"550 60 LINE",
"550 190 LINE",
"240 190 LINE"
);
},
{
closed = 1;
nodes = (
"435 0 LINE",
"685 0 LINE",
"685 680 LINE",
"435 680 LINE"
);
},
{
closed = 1;
nodes = (
"685 260 LINE",
"955 260 LINE",
"955 430 LINE",
"685 430 LINE"
);
},
{
closed = 1;
nodes = (
"685 490 LINE",
"1005 490 LINE",
"1005 680 LINE",
"685 680 LINE"
);
},
{
closed = 1;
nodes = (
"685 0 LINE",
"1005 0 LINE",
"1005 190 LINE",
"685 190 LINE"
);
}
);
width = 1015;
}
);
leftKerningGroup = A;
leftMetricsKey = "=A";
rightMetricsKey = "=E";
unicode = 00C6;
},
{
glyphname = B;
lastChange = "2016-08-28 11:38:27 +0000";
layers = (
{
anchors = (
{
name = bottom;
position = "{405, 0}";
},
{
name = top;
position = "{405, 680}";
}
);
layerId = "E846E39B-8E1C-41DF-9DB7-AA75C54DD1EE";
paths = (
{
closed = 1;
nodes = (
"30 0 LINE",
"340 0 LINE",
"340 680 LINE",
"30 680 LINE"
);
},
{
closed = 1;
nodes = (
"340 500 LINE",
"400 500 LINE",
"410 680 LINE",
"340 680 LINE"
);
},
{
closed = 1;
nodes = (
"400 500 LINE",
"460 500 OFFCURVE",
"475 477 OFFCURVE",
"475 455 CURVE SMOOTH",
"475 433 OFFCURVE",
"460 410 OFFCURVE",
"400 410 CURVE",
"400 310 LINE",
"609 310 OFFCURVE",
"770 341 OFFCURVE",
"770 485 CURVE SMOOTH",
"770 639 OFFCURVE",
"619 680 OFFCURVE",
"410 680 CURVE"
);
},
{
closed = 1;
nodes = (
"340 270 LINE",
"410 270 LINE",
"410 410 LINE",
"340 410 LINE"
);
},
{
closed = 1;
nodes = (
"340 0 LINE",
"420 0 LINE",
"410 180 LINE",
"340 180 LINE"
);
},
{
closed = 1;
nodes = (
"410 270 LINE",
"470 270 OFFCURVE",
"485 247 OFFCURVE",
"485 225 CURVE SMOOTH",
"485 203 OFFCURVE",
"470 180 OFFCURVE",
"410 180 CURVE",
"420 0 LINE",
"649 0 OFFCURVE",
"800 31 OFFCURVE",
"800 185 CURVE SMOOTH",
"800 329 OFFCURVE",
"639 380 OFFCURVE",
"410 380 CURVE"
);
}
);
width = 820;
},
{
anchors = (
{
name = bottom;
position = "{355, 0}";
},
{
name = top;
position = "{355, 650}";
}
);
layerId = "D0758D58-6BF2-4444-AD52-30AE2E418BEE";
paths = (
{
closed = 1;
nodes = (
"80 0 LINE",
"100 0 LINE",
"100 680 LINE",
"80 680 LINE"
);
},
{
closed = 1;
nodes = (
"100 662 LINE",
"400 662 LINE",
"400 680 LINE",
"100 680 LINE"
);
},
{
closed = 1;
nodes = (
"400 662 LINE",
"519 662 OFFCURVE",
"593 610 OFFCURVE",
"593 510 CURVE SMOOTH",
"593 420 OFFCURVE",
"530 360 OFFCURVE",
"400 360 CURVE",
"400 345 LINE",
"540 345 OFFCURVE",
"613 410 OFFCURVE",
"613 510 CURVE SMOOTH",
"613 620 OFFCURVE",
"529 680 OFFCURVE",
"400 680 CURVE"
);
},
{
closed = 1;
nodes = (
"90 342 LINE",
"400 342 LINE",
"400 360 LINE",
"90 360 LINE"
);
},
{
closed = 1;
nodes = (
"100 0 LINE",
"400 0 LINE",
"400 18 LINE",
"100 18 LINE"
);
},
{
closed = 1;
nodes = (
"400 342 LINE",
"559 342 OFFCURVE",
"650 304 OFFCURVE",
"650 185 CURVE SMOOTH",
"650 65 OFFCURVE",
"559 18 OFFCURVE",
"400 18 CURVE",
"400 0 LINE",
"569 0 OFFCURVE",
"670 55 OFFCURVE",
"670 185 CURVE SMOOTH",
"670 314 OFFCURVE",
"569 357 OFFCURVE",
"400 357 CURVE"
);
}
);
width = 720;
}
);
leftMetricsKey = "=H";
rightKerningGroup = O;
rightMetricsKey = "=O";
unicode = 0042;
},
{
glyphname = C;
lastChange = "2016-08-28 11:38:27 +0000";
layers = (
{
anchors = (
{
name = bottom;
position = "{405, 0}";
},
{
name = top;
position = "{405, 680}";
}
);
guideLines = (
{
angle = 51.8198;
position = "{581, 385}";
}
);
layerId = "E846E39B-8E1C-41DF-9DB7-AA75C54DD1EE";
paths = (
{
closed = 1;
nodes = (
"498 239 OFFCURVE",
"458 281 OFFCURVE",
"458 340 CURVE SMOOTH",
"458 399 OFFCURVE",
"498 441 OFFCURVE",
"562 441 CURVE SMOOTH",
"608 441 OFFCURVE",
"631 420 OFFCURVE",
"658 392 CURVE",
"759 456 LINE",
"690 612 OFFCURVE",
"568 700 OFFCURVE",
"402 700 CURVE SMOOTH",
"177 700 OFFCURVE",
"20 539 OFFCURVE",
"20 340 CURVE SMOOTH",
"20 141 OFFCURVE",
"177 -20 OFFCURVE",
"402 -20 CURVE SMOOTH",
"568 -20 OFFCURVE",
"690 68 OFFCURVE",
"759 224 CURVE",
"658 288 LINE",
"631 261 OFFCURVE",
"608 239 OFFCURVE",
"562 239 CURVE SMOOTH"
);
}
);
width = 769;
},
{
anchors = (
{
name = bottom;
position = "{404, 0}";
},
{
name = top;
position = "{404, 650}";
}
);
layerId = "D0758D58-6BF2-4444-AD52-30AE2E418BEE";
paths = (
{
closed = 1;
nodes = (
"204 8 OFFCURVE",
"70 161 OFFCURVE",
"70 340 CURVE SMOOTH",
"70 519 OFFCURVE",
"204 672 OFFCURVE",
"404 672 CURVE SMOOTH",
"530 672 OFFCURVE",
"612 626 OFFCURVE",
"692 499 CURVE",
"708 507 LINE",
"628 639 OFFCURVE",
"535 690 OFFCURVE",
"401 690 CURVE SMOOTH",
"193 690 OFFCURVE",
"50 529 OFFCURVE",
"50 340 CURVE SMOOTH",
"50 151 OFFCURVE",
"193 -10 OFFCURVE",
"401 -10 CURVE SMOOTH",
"535 -10 OFFCURVE",
"638 51 OFFCURVE",
"708 183 CURVE",
"692 191 LINE",
"622 64 OFFCURVE",
"530 8 OFFCURVE",
"404 8 CURVE SMOOTH"
);
}
);
width = 748;
}
);
leftKerningGroup = O;
leftMetricsKey = "=O";
rightKerningGroup = O;
rightMetricsKey = "=O-10";
unicode = 0043;
},
{
glyphname = D;
lastChange = "2016-08-28 11:38:27 +0000";
layers = (
{
anchors = (
{
name = bottom;
position = "{390, 0}";
},
{
name = center;
position = "{390, 340}";
},
{
name = top;
position = "{390, 680}";
}
);
layerId = "E846E39B-8E1C-41DF-9DB7-AA75C54DD1EE";
paths = (
{
closed = 1;
nodes = (
"30 0 LINE",
"330 0 LINE",
"330 680 LINE",
"30 680 LINE"
);
},
{
closed = 1;
nodes = (
"330 430 LINE",
"400 430 LINE",
"410 680 LINE",
"330 680 LINE"
);
},
{
closed = 1;
nodes = (
"330 0 LINE",
"410 0 LINE",
"400 250 LINE",
"330 250 LINE"
);
},
{
closed = 1;
nodes = (
"400 430 LINE",
"459 430 OFFCURVE",
"495 387 OFFCURVE",
"495 340 CURVE SMOOTH",
"495 293 OFFCURVE",
"459 250 OFFCURVE",
"400 250 CURVE",
"410 0 LINE",
"639 0 OFFCURVE",
"810 141 OFFCURVE",
"810 340 CURVE SMOOTH",
"810 539 OFFCURVE",
"639 680 OFFCURVE",
"410 680 CURVE"
);
}
);
width = 830;
},
{
anchors = (
{
name = bottom;
position = "{350, 0}";
},
{
name = center;
position = "{350, 340}";
},
{
name = top;
position = "{350, 650}";
}
);
layerId = "D0758D58-6BF2-4444-AD52-30AE2E418BEE";
paths = (
{
closed = 1;
nodes = (
"80 0 LINE",
"100 0 LINE",
"100 680 LINE",
"80 680 LINE"
);
},
{
closed = 1;
nodes = (
"100 662 LINE",
"355 662 LINE",
"360 680 LINE",
"100 680 LINE"
);
},
{
closed = 1;
nodes = (
"100 0 LINE",
"360 0 LINE",
"355 18 LINE",
"100 18 LINE"
);
},
{
closed = 1;
nodes = (
"355 662 LINE",
"534 662 OFFCURVE",
"680 529 OFFCURVE",
"680 340 CURVE SMOOTH",
"680 151 OFFCURVE",
"534 18 OFFCURVE",
"355 18 CURVE",
"360 0 LINE",
"549 0 OFFCURVE",
"700 141 OFFCURVE",
"700 340 CURVE SMOOTH",
"700 539 OFFCURVE",
"549 680 OFFCURVE",
"360 680 CURVE"
);
}
);
width = 750;
}
);
leftMetricsKey = "=H";
rightKerningGroup = O;
rightMetricsKey = "=O";
unicode = 0044;
},
{
glyphname = Eth;
lastChange = "2016-08-28 11:35:38 +0000";
layers = (
{
anchors = (
{
name = bottom;
position = "{350, 0}";
},
{
name = center;
position = "{350, 340}";
},
{
name = top;
position = "{350, 650}";
}
);
layerId = "D0758D58-6BF2-4444-AD52-30AE2E418BEE";
paths = (
{
closed = 1;
nodes = (
"350 342 LINE",
"350 360 LINE",
"90 360 LINE",
"90 342 LINE"
);
},
{
closed = 1;
nodes = (
"80 0 LINE",
"100 0 LINE",
"100 680 LINE",
"80 680 LINE"
);
},
{
closed = 1;
nodes = (
"100 662 LINE",
"355 662 LINE",
"360 680 LINE",
"100 680 LINE"
);
},
{
closed = 1;
nodes = (
"100 0 LINE",
"360 0 LINE",
"355 18 LINE",
"100 18 LINE"
);
},
{
closed = 1;
nodes = (
"355 662 LINE",
"534 662 OFFCURVE",
"680 529 OFFCURVE",
"680 340 CURVE SMOOTH",
"680 151 OFFCURVE",
"534 18 OFFCURVE",
"355 18 CURVE",
"360 0 LINE",
"549 0 OFFCURVE",
"700 141 OFFCURVE",
"700 340 CURVE SMOOTH",
"700 539 OFFCURVE",
"549 680 OFFCURVE",
"360 680 CURVE"
);
}
);
width = 750;
},
{
anchors = (
{
name = bottom;
position = "{390, 0}";
},
{
name = center;
position = "{390, 340}";
},
{
name = top;
position = "{390, 680}";
}
);
layerId = "E846E39B-8E1C-41DF-9DB7-AA75C54DD1EE";
paths = (
{
closed = 1;
nodes = (
"410 265 LINE",
"410 415 LINE",
"70 415 LINE",
"70 265 LINE"
);
},
{
closed = 1;
nodes = (
"30 0 LINE",
"330 0 LINE",
"330 680 LINE",
"30 680 LINE"
);
},
{
closed = 1;
nodes = (
"330 460 LINE",
"400 460 LINE",
"410 680 LINE",
"330 680 LINE"
);
},
{
closed = 1;
nodes = (
"330 0 LINE",
"410 0 LINE",
"400 220 LINE",
"330 220 LINE"
);
},
{
closed = 1;
nodes = (
"400 460 LINE",
"459 460 OFFCURVE",
"495 407 OFFCURVE",
"495 340 CURVE SMOOTH",
"495 273 OFFCURVE",
"459 220 OFFCURVE",
"400 220 CURVE",
"410 0 LINE",
"639 0 OFFCURVE",
"810 141 OFFCURVE",
"810 340 CURVE SMOOTH",
"810 539 OFFCURVE",
"639 680 OFFCURVE",
"410 680 CURVE"
);
}
);
width = 830;
}
);
rightKerningGroup = O;
rightMetricsKey = "=D";
unicode = 00D0;
},
{
glyphname = E;
lastChange = "2016-09-22 13:55:04 +0000";
layers = (
{
anchors = (
{
name = bottom;
position = "{355, 0}";
},
{
name = ogonek;
position = "{680, 0}";
},
{
name = top;
position = "{355, 680}";
},
{
name = topleft;
position = "{10, 680}";
}
);
layerId = "E846E39B-8E1C-41DF-9DB7-AA75C54DD1EE";
paths = (
{
closed = 1;
nodes = (
"30 0 LINE",
"340 0 LINE",
"340 680 LINE",
"30 680 LINE"
);
},
{
closed = 1;
nodes = (
"340 260 LINE",
"630 260 LINE",
"630 430 LINE",
"340 430 LINE"
);
},
{
closed = 1;
nodes = (
"340 480 LINE",
"680 480 LINE",
"680 680 LINE",
"340 680 LINE"
);
},
{
closed = 1;
nodes = (
"340 0 LINE",
"680 0 LINE",
"680 200 LINE",
"340 200 LINE"
);
}
);
width = 690;
},
{
anchors = (
{
name = bottom;
position = "{335, 0}";
},
{
name = ogonek;
position = "{590, 0}";
},
{
name = top;
position = "{335, 650}";
},
{
name = topleft;
position = "{10, 680}";
}
);
layerId = "D0758D58-6BF2-4444-AD52-30AE2E418BEE";
paths = (
{
closed = 1;
nodes = (
"80 0 LINE",
"100 0 LINE",
"100 680 LINE",
"80 680 LINE"
);
},
{
closed = 1;
nodes = (
"100 350 LINE",
"540 350 LINE",
"540 368 LINE",
"100 368 LINE"
);
},
{
closed = 1;
nodes = (
"100 662 LINE",
"590 662 LINE",
"590 680 LINE",
"100 680 LINE"
);
},
{
closed = 1;
nodes = (
"100 0 LINE",
"590 0 LINE",
"590 18 LINE",
"100 18 LINE"
);
}
);
width = 650;
}
);
leftMetricsKey = "=H";
rightKerningGroup = E;
rightMetricsKey = "=H-20";
unicode = 0045;
},
{
glyphname = F;
lastChange = "2016-10-09 19:36:28 +0000";
layers = (
{
anchors = (
{
name = bottom;
position = "{335, 0}";
},
{
name = top;
position = "{335, 680}";
}
);
layerId = "E846E39B-8E1C-41DF-9DB7-AA75C54DD1EE";
paths = (
{
closed = 1;
nodes = (
"30 0 LINE",
"340 0 LINE",
"340 680 LINE",
"30 680 LINE"
);
},
{
closed = 1;
nodes = (
"340 180 LINE",
"650 180 LINE",
"650 380 LINE",
"340 380 LINE"
);
},
{
closed = 1;
nodes = (
"340 450 LINE",
"660 450 LINE",
"660 680 LINE",
"340 680 LINE"
);
}
);
width = 660;
},
{
anchors = (
{
name = bottom;
position = "{300, 0}";
},
{
name = top;
position = "{300, 650}";
}
);
layerId = "D0758D58-6BF2-4444-AD52-30AE2E418BEE";
paths = (
{
closed = 1;
nodes = (
"80 0 LINE",
"100 0 LINE",
"100 680 LINE",
"80 680 LINE"
);
},
{
closed = 1;
nodes = (
"100 330 LINE",
"560 330 LINE",
"560 348 LINE",
"100 348 LINE"
);
},
{
closed = 1;
nodes = (
"100 662 LINE",
"570 662 LINE",
"570 680 LINE",
"100 680 LINE"
);
}
);
width = 620;
}
);
leftMetricsKey = "=H";
rightKerningGroup = F;
rightMetricsKey = "=E-10";
unicode = 0046;
},
{
glyphname = G;
lastChange = "2016-10-09 19:36:26 +0000";
layers = (
{
anchors = (
{
name = bottom;
position = "{420, 0}";
},
{
name = top;
position = "{420, 680}";
}
);
layerId = "E846E39B-8E1C-41DF-9DB7-AA75C54DD1EE";
paths = (
{
closed = 1;
nodes = (
"541 -20 OFFCURVE",
"667 13 OFFCURVE",
"769 95 CURVE",
"539 268 LINE",
"519 251 OFFCURVE",
"487 230 OFFCURVE",
"437 230 CURVE SMOOTH",
"369 230 OFFCURVE",
"320 270 OFFCURVE",
"320 340 CURVE SMOOTH",
"320 410 OFFCURVE",
"370 450 OFFCURVE",
"434 450 CURVE SMOOTH",
"473 450 OFFCURVE",
"503 435 OFFCURVE",
"528 402 CURVE",
"759 526 LINE",
"672 648 OFFCURVE",
"559 700 OFFCURVE",
"419 700 CURVE SMOOTH",
"175 700 OFFCURVE",
"20 542 OFFCURVE",
"20 336 CURVE SMOOTH",
"20 142 OFFCURVE",
"157 -20 OFFCURVE",
"422 -20 CURVE SMOOTH"
);
},
{
closed = 1;
nodes = (
"769 95 LINE",
"769 328 LINE",
"489 328 LINE",
"489 75 LINE"
);
}
);
width = 799;
},
{
anchors = (
{
name = bottom;
position = "{410, 0}";
},
{
name = top;
position = "{410, 650}";
}
);
layerId = "D0758D58-6BF2-4444-AD52-30AE2E418BEE";
paths = (
{
closed = 1;
nodes = (
"531 -10 OFFCURVE",
"637 34 OFFCURVE",
"719 134 CURVE",
"699 137 LINE",
"632 58 OFFCURVE",
"537 8 OFFCURVE",
"411 8 CURVE SMOOTH",
"201 8 OFFCURVE",
"70 165 OFFCURVE",
"70 340 CURVE SMOOTH",
"70 519 OFFCURVE",
"204 672 OFFCURVE",
"404 672 CURVE SMOOTH",
"530 672 OFFCURVE",
"612 626 OFFCURVE",
"692 499 CURVE",
"708 507 LINE",
"628 639 OFFCURVE",
"535 690 OFFCURVE",
"401 690 CURVE SMOOTH",
"193 690 OFFCURVE",
"50 529 OFFCURVE",
"50 340 CURVE SMOOTH",
"50 154 OFFCURVE",
"189 -10 OFFCURVE",
"410 -10 CURVE SMOOTH"
);
},
{
closed = 1;
nodes = (
"719 297 LINE",
"699 297 LINE",
"699 137 LINE",
"719 134 LINE"
);
}
);
width = 799;
}
);
leftKerningGroup = O;
leftMetricsKey = "=C";
rightKerningGroup = O;
rightMetricsKey = "=H";
unicode = 0047;
},
{
glyphname = H;
lastChange = "2016-08-28 11:38:27 +0000";
layers = (
{
anchors = (
{
name = bottom;
position = "{440, 0}";
},
{
name = center;
position = "{440, 340}";
},
{
name = top;
position = "{440, 680}";
},
{
name = topleft;
position = "{10, 680}";
}
);
layerId = "E846E39B-8E1C-41DF-9DB7-AA75C54DD1EE";
paths = (
{
closed = 1;
nodes = (
"30 0 LINE",
"340 0 LINE",
"340 680 LINE",
"30 680 LINE"
);
},
{
closed = 1;
nodes = (
"340 230 LINE",
"540 230 LINE",
"540 460 LINE",
"340 460 LINE"
);
},
{
closed = 1;
nodes = (
"540 0 LINE",
"850 0 LINE",
"850 680 LINE",
"540 680 LINE"
);
}
);
width = 880;
},
{
anchors = (
{
name = bottom;
position = "{360, 0}";
},
{
name = center;
position = "{360, 340}";
},
{
name = top;
position = "{360, 650}";
},
{
name = topleft;
position = "{10, 680}";
}
);
layerId = "D0758D58-6BF2-4444-AD52-30AE2E418BEE";
paths = (
{
closed = 1;
nodes = (
"80 0 LINE",
"100 0 LINE",
"100 680 LINE",
"80 680 LINE"
);
},
{
closed = 1;
nodes = (
"90 352 LINE",
"630 352 LINE",
"630 370 LINE",
"90 370 LINE"
);
},
{
closed = 1;
nodes = (
"620 0 LINE",
"640 0 LINE",
"640 680 LINE",
"620 680 LINE"
);
}
);
width = 720;
}
);
leftMetricsKey = "=l+10";
rightMetricsKey = "=l+10";
unicode = 0048;
},
{
glyphname = Hbar;
lastChange = "2016-08-28 11:35:38 +0000";
layers = (
{
components = (
{
name = H;
}
);
layerId = "D0758D58-6BF2-4444-AD52-30AE2E418BEE";
paths = (
{
closed = 1;
nodes = (
"720 512 LINE",
"720 530 LINE",
"0 530 LINE",
"0 512 LINE"
);
}
);
width = 720;
},
{
components = (
{
name = H;
}
);
layerId = "E846E39B-8E1C-41DF-9DB7-AA75C54DD1EE";
paths = (
{
closed = 1;
nodes = (
"900 525 LINE",
"900 625 LINE",
"-20 625 LINE",
"-20 525 LINE"
);
}
);
width = 880;
}
);
unicode = 0126;
},
{
glyphname = I;
lastChange = "2016-08-28 11:38:27 +0000";
layers = (
{
anchors = (
{
name = bottom;
position = "{185, 0}";
},
{
name = ogonek;
position = "{181, 0}";
},
{
name = top;
position = "{185, 680}";
},
{
name = topleft;
position = "{0, 680}";
}
);
layerId = "E846E39B-8E1C-41DF-9DB7-AA75C54DD1EE";
paths = (
{
closed = 1;
nodes = (
"30 0 LINE",
"340 0 LINE",
"340 680 LINE",
"30 680 LINE"
);
}
);
width = 370;
},
{
anchors = (
{
name = bottom;
position = "{90, 0}";
},
{
name = ogonek;
position = "{100, 0}";
},
{
name = top;
position = "{90, 650}";
},
{
name = topleft;
position = "{0, 680}";
}
);
layerId = "D0758D58-6BF2-4444-AD52-30AE2E418BEE";
paths = (
{
closed = 1;
nodes = (
"80 0 LINE",
"100 0 LINE",
"100 680 LINE",
"80 680 LINE"
);
}
);
width = 180;
}
);
leftMetricsKey = "=l+10";
rightMetricsKey = "=l+10";
unicode = 0049;
},
{
glyphname = J;
lastChange = "2016-09-22 12:54:50 +0000";
layers = (
{
anchors = (
{
name = bottom;
position = "{241, 0}";
},
{
name = top;
position = "{241, 680}";
}
);
layerId = "E846E39B-8E1C-41DF-9DB7-AA75C54DD1EE";
paths = (
{
closed = 1;
nodes = (
"131 296 LINE SMOOTH",
"131 252 OFFCURVE",
"120 183 OFFCURVE",
"39 183 CURVE SMOOTH",
"30 183 OFFCURVE",
"21 184 OFFCURVE",
"10 186 CURVE",
"10 0 LINE",
"54 -15 OFFCURVE",
"102 -20 OFFCURVE",
"146 -20 CURVE SMOOTH",
"304 -20 OFFCURVE",
"441 46 OFFCURVE",
"441 266 CURVE SMOOTH",
"441 680 LINE",
"131 680 LINE"
);
}
);
width = 471;
},
{
anchors = (
{
name = bottom;
position = "{176, 0}";
},
{
name = top;
position = "{176, 650}";
}
);
layerId = "D0758D58-6BF2-4444-AD52-30AE2E418BEE";
paths = (
{
closed = 1;
nodes = (
"281 193 LINE SMOOTH",
"281 56 OFFCURVE",
"230 8 OFFCURVE",
"129 8 CURVE SMOOTH",
"90 8 OFFCURVE",
"58 15 OFFCURVE",
"20 31 CURVE",
"20 13 LINE",
"62 -4 OFFCURVE",
"93 -10 OFFCURVE",
"129 -10 CURVE SMOOTH",
"239 -10 OFFCURVE",
"301 46 OFFCURVE",
"301 193 CURVE SMOOTH",
"301 680 LINE",
"281 680 LINE"
);
}
);
width = 381;
}
);
rightKerningGroup = J;
rightMetricsKey = "=I";
unicode = 004A;
},
{
glyphname = K;
lastChange = "2016-09-20 18:48:25 +0000";
layers = (
{
anchors = (
{
name = bottom;
position = "{445, 0}";
},
{
name = top;
position = "{445, 680}";
}
);
layerId = "E846E39B-8E1C-41DF-9DB7-AA75C54DD1EE";
paths = (
{
closed = 1;
nodes = (
"30 0 LINE",
"340 0 LINE",
"340 680 LINE",
"30 680 LINE"
);
},
{
closed = 1;
nodes = (
"646 376 LINE",
"837 680 LINE",
"527 680 LINE",
"330 350 LINE"
);
},
{
closed = 1;
nodes = (
"330 350 LINE",
"351 118 OFFCURVE",
"501 -20 OFFCURVE",
"708 -20 CURVE SMOOTH",
"761 -20 OFFCURVE",
"800 -13 OFFCURVE",
"837 0 CURVE",
"837 220 LINE",
"823 217 OFFCURVE",
"809 216 OFFCURVE",
"796 216 CURVE SMOOTH",
"689 216 OFFCURVE",
"646 304 OFFCURVE",
"646 376 CURVE"
);
}
);
width = 847;
},
{
anchors = (
{
name = bottom;
position = "{310, 0}";
},
{
name = top;
position = "{130, 650}";
}
);
layerId = "D0758D58-6BF2-4444-AD52-30AE2E418BEE";
paths = (
{
closed = 1;
nodes = (
"80 0 LINE",
"100 0 LINE",
"100 680 LINE",
"80 680 LINE"
);
},
{
closed = 1;
nodes = (
"234 345 LINE",
"577 680 LINE",
"552 680 LINE",
"210 350 LINE"
);
},
{
closed = 1;
nodes = (
"210 350 LINE",
"265 93 OFFCURVE",
"387 -10 OFFCURVE",
"521 -10 CURVE SMOOTH",
"552 -10 OFFCURVE",
"590 -5 OFFCURVE",
"625 10 CURVE",
"625 28 LINE",
"590 13 OFFCURVE",
"552 8 OFFCURVE",
"523 8 CURVE SMOOTH",
"403 8 OFFCURVE",
"282 104 OFFCURVE",
"234 345 CURVE"
);
}
);
width = 645;
},
{
associatedMasterId = "E846E39B-8E1C-41DF-9DB7-AA75C54DD1EE";
layerId = "4B83C5BD-E574-4D96-B109-836E52AB7427";
name = "Bold Jun 17 16, 21:09";
paths = (
{
closed = 1;
nodes = (
"10 0 LINE",
"320 0 LINE",
"320 680 LINE",
"10 680 LINE"
);
},
{
closed = 1;
nodes = (
"586 376 LINE",
"800 680 LINE",
"490 680 LINE",
"233 266 LINE"
);
},
{
closed = 1;
nodes = (
"290 290 LINE",
"351 118 OFFCURVE",
"441 -20 OFFCURVE",
"648 -20 CURVE SMOOTH",
"701 -20 OFFCURVE",
"740 -13 OFFCURVE",
"777 0 CURVE",
"777 230 LINE",
"640 202 OFFCURVE",
"586 327 OFFCURVE",
"586 376 CURVE"
);
}
);
width = 790;
},
{
associatedMasterId = "E846E39B-8E1C-41DF-9DB7-AA75C54DD1EE";
layerId = "C0087483-8B79-4784-B6FC-ABF0CF56B97B";
name = "Bold Jun 18 16, 14:54";
paths = (
{
closed = 1;
nodes = (
"10 0 LINE",
"320 0 LINE",
"320 680 LINE",
"10 680 LINE"
);
},
{
closed = 1;
nodes = (
"480 0 LINE",
"820 0 LINE",
"621 359 LINE",
"300 350 LINE"
);
},
{
closed = 1;
nodes = (
"621 359 LINE",
"810 680 LINE",
"500 680 LINE",
"300 350 LINE"
);
}
);
width = 850;
}
);
leftMetricsKey = "=H";
rightKerningGroup = K;
rightMetricsKey = "=R";
unicode = 004B;
},
{
glyphname = L;
lastChange = "2016-09-22 10:31:51 +0000";
layers = (
{
anchors = (
{
name = bottom;
position = "{335, 0}";
},
{
name = center;
position = "{305, 340}";
},
{
name = top;
position = "{195, 680}";
},
{
name = topright;
position = "{600, 680}";
}
);
layerId = "E846E39B-8E1C-41DF-9DB7-AA75C54DD1EE";
paths = (
{
closed = 1;
nodes = (
"30 0 LINE",
"370 0 LINE",
"370 680 LINE",
"30 680 LINE"
);
},
{
closed = 1;
nodes = (
"370 0 LINE",
"610 0 LINE",
"610 290 LINE",
"370 290 LINE"
);
}
);
width = 630;
},
{
anchors = (
{
name = bottom;
position = "{340, 0}";
},
{
name = center;
position = "{280, 340}";
},
{
name = top;
position = "{95, 650}";
},
{
name = topright;
position = "{550, 680}";
}
);
layerId = "D0758D58-6BF2-4444-AD52-30AE2E418BEE";
paths = (
{
closed = 1;
nodes = (
"80 0 LINE",
"100 0 LINE",
"100 680 LINE",
"80 680 LINE"
);
},
{
closed = 1;
nodes = (
"100 0 LINE",
"560 0 LINE",
"560 18 LINE",
"100 18 LINE"
);
}
);
width = 600;
}
);
leftMetricsKey = "=H";
rightKerningGroup = L;
unicode = 004C;
},
{
glyphname = Lslash;
lastChange = "2016-09-22 10:33:04 +0000";
layers = (
{
components = (
{
name = L;
transform = "{1, 0, 0, 1, 60, 0}";
}
);
guideLines = (
{
angle = 27.4744;
position = "{327, 370}";
}
);
layerId = "D0758D58-6BF2-4444-AD52-30AE2E418BEE";
paths = (
{
closed = 1;
nodes = (
"427 401 LINE",
"427 422 LINE",
"30 215 LINE",
"30 194 LINE"
);
}
);
width = 660;
},
{
components = (
{
name = L;
transform = "{1, 0, 0, 1, 40, 0}";
}
);
guideLines = (
{
angle = 27.4991;
position = "{286, 491}";
}
);
layerId = "E846E39B-8E1C-41DF-9DB7-AA75C54DD1EE";
paths = (
{
closed = 1;
nodes = (
"541 383 LINE",
"541 614 LINE",
"10 337 LINE",
"10 106 LINE"
);
}
);
width = 670;
}
);
leftMetricsKey = "=|t";
rightKerningGroup = L;
unicode = 0141;
},
{
glyphname = M;
lastChange = "2016-09-22 10:42:59 +0000";
layers = (
{
anchors = (
{
name = bottom;
position = "{510, 0}";
},
{
name = top;
position = "{510, 680}";
}
);
layerId = "E846E39B-8E1C-41DF-9DB7-AA75C54DD1EE";
paths = (
{
closed = 1;
nodes = (
"510 410 LINE",
"110 720 LINE",
"30 -2 LINE",
"330 -2 LINE",
"350 218 LINE",
"510 83 LINE"
);
},
{
closed = 1;
nodes = (
"670 218 LINE",
"690 -2 LINE",
"990 -2 LINE",
"910 720 LINE",
"510 410 LINE",
"510 83 LINE"
);
}
);
width = 1020;
},
{
anchors = (
{
name = bottom;
position = "{470, 0}";
},
{
name = top;
position = "{470, 650}";
}
);
layerId = "D0758D58-6BF2-4444-AD52-30AE2E418BEE";
paths = (
{
closed = 1;
nodes = (
"470 248 LINE",
"140 700 LINE",
"80 -2 LINE",
"100 -2 LINE",
"156 644 LINE",
"470 213 LINE"
);
},
{
closed = 1;
nodes = (
"784 644 LINE",
"840 -2 LINE",
"860 -2 LINE",
"800 700 LINE",
"470 248 LINE",
"470 213 LINE"
);
}
);
width = 940;
}
);
leftKerningGroup = M;
leftMetricsKey = "=H";
rightKerningGroup = M;
rightMetricsKey = "=H";
unicode = 004D;
},
{
glyphname = N;
lastChange = "2016-08-28 11:38:27 +0000";
layers = (
{
anchors = (
{
name = bottom;
position = "{415, 0}";
},
{
name = top;
position = "{415, 680}";
}
);
layerId = "E846E39B-8E1C-41DF-9DB7-AA75C54DD1EE";
paths = (
{
closed = 1;
nodes = (
"310 -2 LINE",
"310 228 LINE",
"800 -32 LINE",
"800 680 LINE",
"520 680 LINE",
"520 450 LINE",
"30 710 LINE",
"30 -2 LINE"
);
}
);
width = 830;
},
{
anchors = (
{
name = bottom;
position = "{385, 0}";
},
{
name = top;
position = "{385, 650}";
}
);
layerId = "D0758D58-6BF2-4444-AD52-30AE2E418BEE";
paths = (
{
closed = 1;
nodes = (
"100 -2 LINE",
"100 649 LINE",
"690 -22 LINE",
"690 680 LINE",
"670 680 LINE",
"670 29 LINE",
"80 700 LINE",
"80 -2 LINE"
);
}
);
width = 770;
}
);
leftMetricsKey = "=H";
rightMetricsKey = "=H";
unicode = 004E;
},
{
glyphname = Eng;
lastChange = "2016-08-28 11:35:38 +0000";
layers = (
{
layerId = "D0758D58-6BF2-4444-AD52-30AE2E418BEE";
paths = (
{
closed = 1;
nodes = (
"100 -2 LINE",
"100 649 LINE",
"690 -22 LINE",
"690 680 LINE",
"670 680 LINE",
"670 29 LINE",
"80 700 LINE",
"80 -2 LINE"
);
},
{
closed = 1;
nodes = (
"670 -27 LINE SMOOTH",
"670 -164 OFFCURVE",
"619 -212 OFFCURVE",
"518 -212 CURVE SMOOTH",
"479 -212 OFFCURVE",
"447 -205 OFFCURVE",
"409 -189 CURVE",
"409 -207 LINE",
"451 -224 OFFCURVE",
"482 -230 OFFCURVE",
"518 -230 CURVE SMOOTH",
"628 -230 OFFCURVE",
"690 -174 OFFCURVE",
"690 -27 CURVE SMOOTH",
"690 160 LINE",
"670 160 LINE"
);
}
);
width = 770;
},
{
anchors = (
{
name = bottom;
position = "{415, 0}";
},
{
name = top;
position = "{415, 680}";
}
);
guideLines = (
{
position = "{442, -220}";
}
);
layerId = "E846E39B-8E1C-41DF-9DB7-AA75C54DD1EE";
paths = (
{
closed = 1;
nodes = (
"531 96 LINE SMOOTH",
"531 12 OFFCURVE",
"520 -57 OFFCURVE",
"399 -57 CURVE SMOOTH",
"390 -57 OFFCURVE",
"381 -56 OFFCURVE",
"370 -54 CURVE",
"370 -200 LINE",
"414 -215 OFFCURVE",
"462 -220 OFFCURVE",
"506 -220 CURVE SMOOTH",
"664 -220 OFFCURVE",
"801 -154 OFFCURVE",
"801 66 CURVE SMOOTH",
"801 180 LINE",
"531 180 LINE"
);
},
{
closed = 1;
nodes = (
"310 -2 LINE",
"310 228 LINE",
"710 16 LINE",
"801 180 LINE",
"800 680 LINE",
"520 680 LINE",
"520 450 LINE",
"30 710 LINE",
"30 -2 LINE"
);
}
);
width = 831;
}
);
leftMetricsKey = "=N";
rightMetricsKey = "=N";
unicode = 014A;
},
{
glyphname = O;
lastChange = "2016-09-22 13:58:46 +0000";
layers = (
{
anchors = (
{
name = bottom;
position = "{410, 0}";
},
{
name = center;
position = "{410, 340}";
},
{
name = ogonek;
position = "{738, 10}";
},
{
name = top;
position = "{410, 680}";
},
{
name = topleft;
position = "{20, 680}";
},
{
name = topright;
position = "{800, 680}";
}
);
layerId = "E846E39B-8E1C-41DF-9DB7-AA75C54DD1EE";
paths = (
{
closed = 1;
nodes = (
"640 -20 OFFCURVE",
"800 141 OFFCURVE",
"800 340 CURVE SMOOTH",
"800 539 OFFCURVE",
"640 700 OFFCURVE",
"410 700 CURVE SMOOTH",
"180 700 OFFCURVE",
"20 539 OFFCURVE",
"20 340 CURVE SMOOTH",
"20 141 OFFCURVE",
"180 -20 OFFCURVE",
"410 -20 CURVE SMOOTH"
);
},
{
closed = 1;
nodes = (
"368 265 OFFCURVE",
"335 298 OFFCURVE",
"335 340 CURVE SMOOTH",
"335 382 OFFCURVE",
"368 415 OFFCURVE",
"410 415 CURVE SMOOTH",
"452 415 OFFCURVE",
"484 382 OFFCURVE",
"484 340 CURVE SMOOTH",
"484 298 OFFCURVE",
"452 265 OFFCURVE",
"410 265 CURVE SMOOTH"
);
}
);
width = 820;
},
{
anchors = (
{
name = bottom;
position = "{400, 0}";
},
{
name = center;
position = "{400, 340}";
},
{
name = ogonek;
position = "{720, 10}";
},
{
name = top;
position = "{400, 650}";
},
{
name = topleft;
position = "{20, 680}";
},
{
name = topright;
position = "{780, 680}";
}
);
layerId = "D0758D58-6BF2-4444-AD52-30AE2E418BEE";
paths = (
{
closed = 1;
nodes = (
"604 -10 OFFCURVE",
"750 151 OFFCURVE",
"750 340 CURVE SMOOTH",
"750 529 OFFCURVE",
"604 690 OFFCURVE",
"400 690 CURVE SMOOTH",
"195 690 OFFCURVE",
"50 529 OFFCURVE",
"50 340 CURVE SMOOTH",
"50 151 OFFCURVE",
"195 -10 OFFCURVE",
"400 -10 CURVE SMOOTH"
);
},
{
closed = 1;
nodes = (
"207 8 OFFCURVE",
"70 161 OFFCURVE",
"70 340 CURVE SMOOTH",
"70 519 OFFCURVE",
"207 672 OFFCURVE",
"400 672 CURVE SMOOTH",
"592 672 OFFCURVE",
"730 519 OFFCURVE",
"730 340 CURVE SMOOTH",
"730 161 OFFCURVE",
"592 8 OFFCURVE",
"400 8 CURVE SMOOTH"
);
}
);
width = 800;
}
);
leftKerningGroup = O;
leftMetricsKey = "=o+10";
rightKerningGroup = O;
rightMetricsKey = "=o+10";
unicode = 004F;
},
{
glyphname = Oslash;
lastChange = "2016-09-22 10:43:14 +0000";
layers = (
{
anchors = (
{
name = bottom;
position = "{400, 0}";
},
{
name = center;
position = "{400, 340}";
},
{
name = ogonek;
position = "{720, 10}";
},
{
name = top;
position = "{400, 650}";
},
{
name = topleft;
position = "{20, 680}";
},
{
name = topright;
position = "{780, 680}";
}
);
layerId = "D0758D58-6BF2-4444-AD52-30AE2E418BEE";
paths = (
{
closed = 1;
nodes = (
"604 -10 OFFCURVE",
"750 151 OFFCURVE",
"750 340 CURVE SMOOTH",
"750 529 OFFCURVE",
"604 690 OFFCURVE",
"400 690 CURVE SMOOTH",
"195 690 OFFCURVE",
"50 529 OFFCURVE",
"50 340 CURVE SMOOTH",
"50 151 OFFCURVE",
"195 -10 OFFCURVE",
"400 -10 CURVE SMOOTH"
);
},
{
closed = 1;
nodes = (
"207 8 OFFCURVE",
"70 161 OFFCURVE",
"70 340 CURVE SMOOTH",
"70 519 OFFCURVE",
"207 672 OFFCURVE",
"400 672 CURVE SMOOTH",
"592 672 OFFCURVE",
"730 519 OFFCURVE",
"730 340 CURVE SMOOTH",
"730 161 OFFCURVE",
"592 8 OFFCURVE",
"400 8 CURVE SMOOTH"
);
},
{
closed = 1;
nodes = (
"127 -33 LINE",
"143 -44 LINE",
"659 693 LINE",
"643 704 LINE"
);
}
);
width = 800;
},
{
anchors = (
{
name = bottom;
position = "{410, 0}";
},
{
name = center;
position = "{410, 340}";
},
{
name = ogonek;
position = "{738, 10}";
},
{
name = top;
position = "{410, 680}";
},
{
name = topleft;
position = "{20, 680}";
},
{
name = topright;
position = "{800, 680}";
}
);
layerId = "E846E39B-8E1C-41DF-9DB7-AA75C54DD1EE";
paths = (
{
closed = 1;
nodes = (
"640 -20 OFFCURVE",
"800 141 OFFCURVE",
"800 340 CURVE SMOOTH",
"800 539 OFFCURVE",
"640 700 OFFCURVE",
"410 700 CURVE SMOOTH",
"180 700 OFFCURVE",
"20 539 OFFCURVE",
"20 340 CURVE SMOOTH",
"20 141 OFFCURVE",
"180 -20 OFFCURVE",
"410 -20 CURVE SMOOTH"
);
},
{
closed = 1;
nodes = (
"329 194 OFFCURVE",
"264 258 OFFCURVE",
"264 340 CURVE SMOOTH",
"264 422 OFFCURVE",
"329 486 OFFCURVE",
"410 486 CURVE SMOOTH",
"492 486 OFFCURVE",
"555 422 OFFCURVE",
"555 340 CURVE SMOOTH",
"555 258 OFFCURVE",
"492 194 OFFCURVE",
"410 194 CURVE SMOOTH"
);
},
{
closed = 1;
nodes = (
"95 24 LINE",
"218 -62 LINE",
"735 676 LINE",
"612 762 LINE"
);
}
);
width = 820;
}
);
leftKerningGroup = O;
leftMetricsKey = "=O";
rightKerningGroup = O;
rightMetricsKey = "=O";
unicode = 00D8;
},
{
glyphname = OE;
lastChange = "2016-10-09 19:36:28 +0000";
layers = (
{
anchors = (
{
name = bottom;
position = "{400, 0}";
},
{
name = center;
position = "{400, 340}";
},
{
name = ogonek;
position = "{720, 10}";
},
{
name = top;
position = "{400, 650}";
},
{
name = topleft;
position = "{20, 680}";
},
{
name = topright;
position = "{780, 680}";
}
);
layerId = "D0758D58-6BF2-4444-AD52-30AE2E418BEE";
paths = (
{
closed = 1;
nodes = (
"547 0 LINE",
"567 0 LINE",
"567 680 LINE",
"547 680 LINE"
);
},
{
closed = 1;
nodes = (
"567 350 LINE",
"907 350 LINE",
"907 368 LINE",
"567 368 LINE"
);
},
{
closed = 1;
nodes = (
"567 662 LINE",
"957 662 LINE",
"957 680 LINE",
"567 680 LINE"
);
},
{
closed = 1;
nodes = (
"567 0 LINE",
"957 0 LINE",
"957 18 LINE",
"567 18 LINE"
);
},
{
closed = 1;
nodes = (
"547 655 LINE",
"504 677 OFFCURVE",
"454 690 OFFCURVE",
"400 690 CURVE SMOOTH",
"195 690 OFFCURVE",
"50 529 OFFCURVE",
"50 340 CURVE SMOOTH",
"50 151 OFFCURVE",
"195 -10 OFFCURVE",
"400 -10 CURVE SMOOTH",
"454 -10 OFFCURVE",
"504 3 OFFCURVE",
"547 25 CURVE",
"547 46 LINE",
"504 22 OFFCURVE",
"455 8 OFFCURVE",
"400 8 CURVE SMOOTH",
"207 8 OFFCURVE",
"70 161 OFFCURVE",
"70 340 CURVE SMOOTH",
"70 519 OFFCURVE",
"207 672 OFFCURVE",
"400 672 CURVE SMOOTH",
"455 672 OFFCURVE",
"504 658 OFFCURVE",
"547 634 CURVE"
);
}
);
width = 1017;
},
{
anchors = (
{
name = bottom;
position = "{410, 0}";
},
{
name = center;
position = "{410, 340}";
},
{
name = ogonek;
position = "{738, 10}";
},
{
name = top;
position = "{410, 680}";
},
{
name = topleft;
position = "{20, 680}";
},
{
name = topright;
position = "{800, 680}";
}
);
layerId = "E846E39B-8E1C-41DF-9DB7-AA75C54DD1EE";
paths = (
{
closed = 1;
nodes = (
"1065 680 LINE",
"505 680 LINE",
"450 698 OFFCURVE",
"408 700 OFFCURVE",
"383 700 CURVE SMOOTH",
"162 700 OFFCURVE",
"20 539 OFFCURVE",
"20 340 CURVE SMOOTH",
"20 141 OFFCURVE",
"162 -20 OFFCURVE",
"383 -20 CURVE SMOOTH",
"408 -20 OFFCURVE",
"450 -18 OFFCURVE",
"505 0 CURVE",
"1065 0 LINE",
"1065 190 LINE",
"745 190 LINE",
"745 260 LINE",
"1015 260 LINE",
"1015 430 LINE",
"745 430 LINE",
"745 490 LINE",
"1065 490 LINE"
);
},
{
closed = 1;
nodes = (
"358 219 OFFCURVE",
"305 272 OFFCURVE",
"305 340 CURVE SMOOTH",
"305 408 OFFCURVE",
"358 461 OFFCURVE",
"425 461 CURVE SMOOTH",
"493 461 OFFCURVE",
"544 408 OFFCURVE",
"544 340 CURVE SMOOTH",
"544 272 OFFCURVE",
"493 219 OFFCURVE",
"425 219 CURVE SMOOTH"
);
}
);
width = 1075;
}
);
leftKerningGroup = O;
leftMetricsKey = "=O";
rightMetricsKey = "=E";
unicode = 0152;
},
{
glyphname = P;
lastChange = "2016-09-22 10:30:21 +0000";
layers = (
{
anchors = (
{
name = bottom;
position = "{380, 0}";
},
{
name = top;
position = "{380, 680}";
}
);
layerId = "E846E39B-8E1C-41DF-9DB7-AA75C54DD1EE";
paths = (
{
closed = 1;
nodes = (
"30 0 LINE",
"330 0 LINE",
"330 680 LINE",
"30 680 LINE"
);
},
{
closed = 1;
nodes = (
"330 460 LINE",
"370 460 LINE",
"380 680 LINE",
"330 680 LINE"
);
},
{
closed = 1;
nodes = (
"330 150 LINE",
"380 150 LINE",
"370 370 LINE",
"330 370 LINE"
);
},
{
closed = 1;
nodes = (
"370 460 LINE",
"431 460 OFFCURVE",
"445 437 OFFCURVE",
"445 415 CURVE SMOOTH",
"445 393 OFFCURVE",
"431 370 OFFCURVE",
"370 370 CURVE",
"380 150 LINE",
"609 150 OFFCURVE",
"760 241 OFFCURVE",
"760 415 CURVE SMOOTH",
"760 589 OFFCURVE",
"609 680 OFFCURVE",
"380 680 CURVE"
);
}
);
width = 770;
},
{
anchors = (
{
name = bottom;
position = "{320, 0}";
},
{
name = top;
position = "{320, 650}";
}
);
layerId = "D0758D58-6BF2-4444-AD52-30AE2E418BEE";
paths = (
{
closed = 1;
nodes = (
"80 0 LINE",
"100 0 LINE",
"100 670 LINE",
"80 670 LINE"
);
},
{
closed = 1;
nodes = (
"100 652 LINE",
"340 652 LINE",
"340 670 LINE",
"100 670 LINE"
);
},
{
closed = 1;
nodes = (
"100 240 LINE",
"340 240 LINE",
"340 260 LINE",
"100 260 LINE"
);
},
{
closed = 1;
nodes = (
"340 652 LINE",
"469 652 OFFCURVE",
"590 599 OFFCURVE",
"590 455 CURVE SMOOTH",
"590 311 OFFCURVE",
"469 260 OFFCURVE",
"340 260 CURVE",
"340 240 LINE",
"479 240 OFFCURVE",
"610 301 OFFCURVE",
"610 455 CURVE SMOOTH",
"610 609 OFFCURVE",
"479 670 OFFCURVE",
"340 670 CURVE"
);
}
);
width = 650;
}
);
leftMetricsKey = "=H";
rightKerningGroup = P;
rightMetricsKey = "=O-10";
unicode = 0050;
},
{
glyphname = Thorn;
lastChange = "2016-08-28 11:35:38 +0000";
layers = (
{
layerId = "D0758D58-6BF2-4444-AD52-30AE2E418BEE";
paths = (
{
closed = 1;
nodes = (
"80 0 LINE",
"100 0 LINE",
"100 670 LINE",
"80 670 LINE"
);
},
{
closed = 1;
nodes = (
"100 542 LINE",
"350 542 LINE",
"350 560 LINE",
"100 560 LINE"
);
},
{
closed = 1;
nodes = (
"100 110 LINE",
"350 110 LINE",
"350 130 LINE",
"100 130 LINE"
);
},
{
closed = 1;
nodes = (
"350 542 LINE",
"479 542 OFFCURVE",
"600 479 OFFCURVE",
"600 335 CURVE SMOOTH",
"600 191 OFFCURVE",
"479 130 OFFCURVE",
"350 130 CURVE",
"350 110 LINE",
"489 110 OFFCURVE",
"620 181 OFFCURVE",
"620 335 CURVE SMOOTH",
"620 489 OFFCURVE",
"489 560 OFFCURVE",
"350 560 CURVE"
);
}
);
width = 660;
},
{
layerId = "E846E39B-8E1C-41DF-9DB7-AA75C54DD1EE";
paths = (
{
closed = 1;
nodes = (
"30 0 LINE",
"330 0 LINE",
"330 680 LINE",
"30 680 LINE"
);
},
{
closed = 1;
nodes = (
"330 395 LINE",
"380 395 LINE",
"390 615 LINE",
"330 615 LINE"
);
},
{
closed = 1;
nodes = (
"330 65 LINE",
"390 65 LINE",
"380 285 LINE",
"330 285 LINE"
);
},
{
closed = 1;
nodes = (
"380 395 LINE",
"431 395 OFFCURVE",
"455 372 OFFCURVE",
"455 340 CURVE SMOOTH",
"455 308 OFFCURVE",
"431 285 OFFCURVE",
"380 285 CURVE",
"390 65 LINE",
"619 65 OFFCURVE",
"770 156 OFFCURVE",
"770 340 CURVE SMOOTH",
"770 524 OFFCURVE",
"619 615 OFFCURVE",
"390 615 CURVE"
);
}
);
width = 780;
}
);
leftMetricsKey = "=P";
rightKerningGroup = O;
rightMetricsKey = "=P";
unicode = 00DE;
},
{
glyphname = Q;
lastChange = "2016-08-28 11:38:27 +0000";
layers = (
{
anchors = (
{
name = bottom;
position = "{410, 0}";
},
{
name = top;
position = "{410, 680}";
}
);
guideLines = (
{
angle = 90;
position = "{410, 265}";
},
{
angle = 90;
position = "{800, 265}";
}
);
layerId = "E846E39B-8E1C-41DF-9DB7-AA75C54DD1EE";
paths = (
{
closed = 1;
nodes = (
"639 -20 OFFCURVE",
"800 141 OFFCURVE",
"800 340 CURVE SMOOTH",
"800 539 OFFCURVE",
"639 700 OFFCURVE",
"410 700 CURVE SMOOTH",
"180 700 OFFCURVE",
"20 539 OFFCURVE",
"20 340 CURVE SMOOTH",
"20 141 OFFCURVE",
"180 -20 OFFCURVE",
"410 -20 CURVE SMOOTH"
);
},
{
closed = 1;
nodes = (
"697 -250 OFFCURVE",
"764 -208 OFFCURVE",
"800 -112 CURVE",
"710 -22 LINE",
"692 -37 OFFCURVE",
"666 -46 OFFCURVE",
"643 -46 CURVE SMOOTH",
"573 -46 OFFCURVE",
"545 17 OFFCURVE",
"444 17 CURVE SMOOTH",
"368 17 OFFCURVE",
"289 -31 OFFCURVE",
"255 -102 CURVE",
"344 -192 LINE",
"365 -173 OFFCURVE",
"393 -168 OFFCURVE",
"411 -168 CURVE SMOOTH",
"486 -168 OFFCURVE",
"519 -250 OFFCURVE",
"623 -250 CURVE SMOOTH"
);
},
{
closed = 1;
nodes = (
"360 249 OFFCURVE",
"320 289 OFFCURVE",
"320 340 CURVE SMOOTH",
"320 391 OFFCURVE",
"360 431 OFFCURVE",
"410 431 CURVE SMOOTH",
"461 431 OFFCURVE",
"500 391 OFFCURVE",
"500 340 CURVE SMOOTH",
"500 289 OFFCURVE",
"461 249 OFFCURVE",
"410 249 CURVE SMOOTH"
);
}
);
width = 820;
},
{
anchors = (
{
name = bottom;
position = "{400, 0}";
},
{
name = top;
position = "{400, 650}";
}
);
guideLines = (
{
angle = 90;
position = "{750, 340}";
}
);
layerId = "D0758D58-6BF2-4444-AD52-30AE2E418BEE";
paths = (
{
closed = 1;
nodes = (
"604 -10 OFFCURVE",
"750 151 OFFCURVE",
"750 340 CURVE SMOOTH",
"750 529 OFFCURVE",
"604 690 OFFCURVE",
"400 690 CURVE SMOOTH",
"195 690 OFFCURVE",
"50 529 OFFCURVE",
"50 340 CURVE SMOOTH",
"50 151 OFFCURVE",
"195 -10 OFFCURVE",
"400 -10 CURVE SMOOTH"
);
},
{
closed = 1;
nodes = (
"689 -116 OFFCURVE",
"722 -80 OFFCURVE",
"750 -37 CURVE",
"737 -31 LINE",
"710 -71 OFFCURVE",
"679 -100 OFFCURVE",
"627 -100 CURVE SMOOTH",
"527 -100 OFFCURVE",
"520 3 OFFCURVE",
"412 3 CURVE SMOOTH",
"349 3 OFFCURVE",
"316 -30 OFFCURVE",
"288 -73 CURVE",
"301 -79 LINE",
"328 -39 OFFCURVE",
"359 -10 OFFCURVE",
"411 -10 CURVE SMOOTH",
"511 -10 OFFCURVE",
"518 -116 OFFCURVE",
"626 -116 CURVE SMOOTH"
);
},
{
closed = 1;
nodes = (
"207 8 OFFCURVE",
"70 161 OFFCURVE",
"70 340 CURVE SMOOTH",
"70 519 OFFCURVE",
"207 672 OFFCURVE",
"400 672 CURVE SMOOTH",
"592 672 OFFCURVE",
"730 519 OFFCURVE",
"730 340 CURVE SMOOTH",
"730 161 OFFCURVE",
"592 8 OFFCURVE",
"400 8 CURVE SMOOTH"
);
}
);
width = 800;
}
);
leftMetricsKey = "=O";
rightKerningGroup = O;
rightMetricsKey = "=O";
unicode = 0051;
},
{
glyphname = R;
lastChange = "2016-08-28 11:38:27 +0000";
layers = (
{
anchors = (
{
name = bottom;
position = "{383, 0}";
},
{
name = top;
position = "{373, 680}";
}
);
layerId = "E846E39B-8E1C-41DF-9DB7-AA75C54DD1EE";
paths = (
{
closed = 1;
nodes = (
"30 0 LINE",
"330 0 LINE",
"330 680 LINE",
"30 680 LINE"
);
},
{
closed = 1;
nodes = (
"330 480 LINE",
"370 480 LINE",
"380 680 LINE",
"330 680 LINE"
);
},
{
closed = 1;
nodes = (
"330 200 LINE",
"380 200 LINE",
"370 400 LINE",
"330 400 LINE"
);
},
{
closed = 1;
nodes = (
"370 480 LINE",
"424 480 OFFCURVE",
"440 462 OFFCURVE",
"440 440 CURVE SMOOTH",
"440 418 OFFCURVE",
"424 400 OFFCURVE",
"370 400 CURVE",
"380 200 LINE",
"604 200 OFFCURVE",
"755 286 OFFCURVE",
"755 440 CURVE SMOOTH",
"755 594 OFFCURVE",
"604 680 OFFCURVE",
"380 680 CURVE"
);
},
{
closed = 1;
nodes = (
"330 200 LINE",
"384 39 OFFCURVE",
"504 -20 OFFCURVE",
"627 -20 CURVE SMOOTH",
"663 -20 OFFCURVE",
"710 -15 OFFCURVE",
"755 0 CURVE",
"755 210 LINE",
"741 208 OFFCURVE",
"728 207 OFFCURVE",
"717 207 CURVE SMOOTH",
"643 207 OFFCURVE",
"626 254 OFFCURVE",
"626 296 CURVE"
);
}
);
width = 765;
},
{
anchors = (
{
name = bottom;
position = "{303, 0}";
},
{
name = top;
position = "{293, 650}";
}
);
layerId = "D0758D58-6BF2-4444-AD52-30AE2E418BEE";
paths = (
{
closed = 1;
nodes = (
"80 0 LINE",
"100 0 LINE",
"100 670 LINE",
"80 670 LINE"
);
},
{
closed = 1;
nodes = (
"100 652 LINE",
"340 652 LINE",
"340 670 LINE",
"100 670 LINE"
);
},
{
closed = 1;
nodes = (
"100 280 LINE",
"340 280 LINE",
"340 300 LINE",
"100 300 LINE"
);
},
{
closed = 1;
nodes = (
"340 652 LINE",
"459 652 OFFCURVE",
"570 599 OFFCURVE",
"570 475 CURVE SMOOTH",
"570 351 OFFCURVE",
"459 300 OFFCURVE",
"340 300 CURVE",
"340 280 LINE",
"469 280 OFFCURVE",
"590 341 OFFCURVE",
"590 475 CURVE SMOOTH",
"590 609 OFFCURVE",
"469 670 OFFCURVE",
"340 670 CURVE"
);
},
{
closed = 1;
nodes = (
"300 290 LINE",
"347 58 OFFCURVE",
"449 -10 OFFCURVE",
"551 -10 CURVE SMOOTH",
"581 -10 OFFCURVE",
"610 -5 OFFCURVE",
"645 10 CURVE",
"645 28 LINE",
"610 13 OFFCURVE",
"581 8 OFFCURVE",
"552 8 CURVE SMOOTH",
"460 8 OFFCURVE",
"366 69 OFFCURVE",
"319 290 CURVE"
);
}
);
width = 665;
}
);
leftMetricsKey = "=H";
rightKerningGroup = R;
unicode = 0052;
},
{
glyphname = S;
lastChange = "2016-09-22 10:52:20 +0000";
layers = (
{
anchors = (
{
name = bottom;
position = "{338, 0}";
},
{
name = top;
position = "{338, 680}";
}
);
layerId = "E846E39B-8E1C-41DF-9DB7-AA75C54DD1EE";
paths = (
{
closed = 1;
nodes = (
"430 506 OFFCURVE",
"435 530 OFFCURVE",
"477 530 CURVE SMOOTH",
"521 530 OFFCURVE",
"565 504 OFFCURVE",
"604 467 CURVE",
"671 530 LINE",
"605 634 OFFCURVE",
"502 700 OFFCURVE",
"345 700 CURVE SMOOTH",
"169 700 OFFCURVE",
"50 618 OFFCURVE",
"50 479 CURVE SMOOTH",
"50 294 OFFCURVE",
"261 258 OFFCURVE",
"261 183 CURVE SMOOTH",
"261 164 OFFCURVE",
"247 150 OFFCURVE",
"214 150 CURVE SMOOTH",
"165 150 OFFCURVE",
"109 181 OFFCURVE",
"62 223 CURVE",
"5 150 LINE",
"95 27 OFFCURVE",
"228 -20 OFFCURVE",
"358 -20 CURVE SMOOTH",
"514 -20 OFFCURVE",
"656 48 OFFCURVE",
"656 200 CURVE SMOOTH",
"656 404 OFFCURVE",
"430 425 OFFCURVE",
"430 496 CURVE SMOOTH"
);
}
);
width = 691;
},
{
anchors = (
{
name = bottom;
position = "{294, 0}";
},
{
name = top;
position = "{294, 650}";
}
);
guideLines = (
{
angle = 36.8699;
position = "{48, 257}";
}
);
layerId = "D0758D58-6BF2-4444-AD52-30AE2E418BEE";
paths = (
{
closed = 1;
nodes = (
"91 610 OFFCURVE",
"179 672 OFFCURVE",
"313 672 CURVE SMOOTH",
"411 672 OFFCURVE",
"475 639 OFFCURVE",
"534 581 CURVE",
"547 592 LINE",
"489 649 OFFCURVE",
"422 690 OFFCURVE",
"312 690 CURVE SMOOTH",
"170 690 OFFCURVE",
"72 621 OFFCURVE",
"72 514 CURVE SMOOTH",
"72 278 OFFCURVE",
"544 407 OFFCURVE",
"544 168 CURVE SMOOTH",
"544 57 OFFCURVE",
"442 8 OFFCURVE",
"319 8 CURVE SMOOTH",
"207 8 OFFCURVE",
"124 49 OFFCURVE",
"48 127 CURVE",
"35 116 LINE",
"117 28 OFFCURVE",
"205 -10 OFFCURVE",
"317 -10 CURVE SMOOTH",
"455 -10 OFFCURVE",
"563 47 OFFCURVE",
"563 170 CURVE SMOOTH",
"563 428 OFFCURVE",
"91 296 OFFCURVE",
"91 515 CURVE SMOOTH"
);
}
);
width = 613;
},
{
associatedMasterId = "D0758D58-6BF2-4444-AD52-30AE2E418BEE";
guideLines = (
{
angle = 36.8699;
position = "{46, 166}";
}
);
layerId = "404E2129-479F-4BE5-8B0F-872F22F8B6CC";
name = "Light Jul 15 16, 18:25";
paths = (
{
closed = 1;
nodes = (
"106 610 OFFCURVE",
"188 672 OFFCURVE",
"321 672 CURVE SMOOTH",
"427 672 OFFCURVE",
"485 632 OFFCURVE",
"549 568 CURVE",
"562 579 LINE",
"500 642 OFFCURVE",
"436 690 OFFCURVE",
"319 690 CURVE SMOOTH",
"178 690 OFFCURVE",
"87 621 OFFCURVE",
"87 518 CURVE SMOOTH",
"87 283 OFFCURVE",
"559 401 OFFCURVE",
"559 167 CURVE SMOOTH",
"559 58 OFFCURVE",
"456 8 OFFCURVE",
"336 8 CURVE SMOOTH",
"216 8 OFFCURVE",
"136 57 OFFCURVE",
"63 142 CURVE",
"50 131 LINE",
"124 42 OFFCURVE",
"205 -10 OFFCURVE",
"334 -10 CURVE SMOOTH",
"469 -10 OFFCURVE",
"578 48 OFFCURVE",
"578 169 CURVE SMOOTH",
"578 421 OFFCURVE",
"106 302 OFFCURVE",
"106 519 CURVE SMOOTH"
);
}
);
width = 628;
}
);
leftKerningGroup = S;
leftMetricsKey = "=O-15";
rightKerningGroup = S;
rightMetricsKey = "=O";
unicode = 0053;
},
{
glyphname = T;
lastChange = "2016-09-22 12:53:44 +0000";
layers = (
{
anchors = (
{
name = bottom;
position = "{370, 0}";
},
{
name = center;
position = "{370, 340}";
},
{
name = top;
position = "{370, 680}";
}
);
layerId = "E846E39B-8E1C-41DF-9DB7-AA75C54DD1EE";
paths = (
{
closed = 1;
nodes = (
"215 0 LINE",
"525 0 LINE",
"525 680 LINE",
"215 680 LINE"
);
},
{
closed = 1;
nodes = (
"525 400 LINE",
"720 400 LINE",
"720 680 LINE",
"525 680 LINE"
);
},
{
closed = 1;
nodes = (
"20 400 LINE",
"215 400 LINE",
"215 680 LINE",
"20 680 LINE"
);
}
);
width = 740;
},
{
anchors = (
{
name = bottom;
position = "{310, 0}";
},
{
name = center;
position = "{310, 340}";
},
{
name = top;
position = "{310, 650}";
}
);
layerId = "D0758D58-6BF2-4444-AD52-30AE2E418BEE";
paths = (
{
closed = 1;
nodes = (
"300 0 LINE",
"320 0 LINE",
"320 680 LINE",
"300 680 LINE"
);
},
{
closed = 1;
nodes = (
"320 662 LINE",
"600 662 LINE",
"600 680 LINE",
"320 680 LINE"
);
},
{
closed = 1;
nodes = (
"20 662 LINE",
"300 662 LINE",
"300 680 LINE",
"20 680 LINE"
);
}
);
width = 620;
}
);
leftKerningGroup = T;
rightKerningGroup = T;
unicode = 0054;
},
{
glyphname = Tbar;
lastChange = "2016-08-28 11:35:38 +0000";
layers = (
{
components = (
{
name = T;
}
);
layerId = "D0758D58-6BF2-4444-AD52-30AE2E418BEE";
paths = (
{
closed = 1;
nodes = (
"485 342 LINE",
"485 360 LINE",
"135 360 LINE",
"135 342 LINE"
);
}
);
width = 620;
},
{
components = (
{
name = T;
}
);
layerId = "E846E39B-8E1C-41DF-9DB7-AA75C54DD1EE";
paths = (
{
closed = 1;
nodes = (
"590 195 LINE",
"590 345 LINE",
"150 345 LINE",
"150 195 LINE"
);
}
);
width = 740;
}
);
leftKerningGroup = T;
leftMetricsKey = "=T";
rightKerningGroup = T;
rightMetricsKey = "=T";
unicode = 0166;
},
{
glyphname = U;
lastChange = "2016-09-22 12:55:06 +0000";
layers = (
{
anchors = (
{
name = bottom;
position = "{395, 0}";
},
{
name = ogonek;
position = "{549, 0}";
},
{
name = top;
position = "{395, 680}";
},
{
name = topright;
position = "{780, 680}";
}
);
guideLines = (
{
angle = 90;
position = "{400, 400}";
}
);
layerId = "E846E39B-8E1C-41DF-9DB7-AA75C54DD1EE";
paths = (
{
closed = 1;
nodes = (
"30 290 LINE",
"340 306 LINE",
"340 680 LINE",
"30 680 LINE"
);
},
{
closed = 1;
nodes = (
"400 237 LINE",
"368 237 OFFCURVE",
"340 257 OFFCURVE",
"340 306 CURVE",
"30 290 LINE",
"30 61 OFFCURVE",
"216 -20 OFFCURVE",
"400 -20 CURVE"
);
},
{
closed = 1;
nodes = (
"460 680 LINE",
"460 306 LINE",
"760 290 LINE",
"760 680 LINE"
);
},
{
closed = 1;
nodes = (
"584 -20 OFFCURVE",
"760 61 OFFCURVE",
"760 290 CURVE",
"460 306 LINE",
"460 257 OFFCURVE",
"432 237 OFFCURVE",
"400 237 CURVE",
"400 -20 LINE"
);
}
);
width = 790;
},
{
anchors = (
{
name = bottom;
position = "{390, 0}";
},
{
name = ogonek;
position = "{480, 0}";
},
{
name = top;
position = "{390, 650}";
},
{
name = topright;
position = "{770, 680}";
}
);
layerId = "D0758D58-6BF2-4444-AD52-30AE2E418BEE";
paths = (
{
closed = 1;
nodes = (
"80 320 LINE",
"100 320 LINE",
"100 680 LINE",
"80 680 LINE"
);
},
{
closed = 1;
nodes = (
"390 8 LINE",
"216 8 OFFCURVE",
"100 111 OFFCURVE",
"100 320 CURVE",
"80 320 LINE",
"80 101 OFFCURVE",
"206 -10 OFFCURVE",
"390 -10 CURVE"
);
},
{
closed = 1;
nodes = (
"680 680 LINE",
"680 320 LINE",
"700 320 LINE",
"700 680 LINE"
);
},
{
closed = 1;
nodes = (
"574 -10 OFFCURVE",
"700 101 OFFCURVE",
"700 320 CURVE",
"680 320 LINE",
"680 111 OFFCURVE",
"564 8 OFFCURVE",
"390 8 CURVE",
"390 -10 LINE"
);
}
);
width = 780;
}
);
leftKerningGroup = U;
leftMetricsKey = "=H";
rightKerningGroup = U;
rightMetricsKey = "=H";
unicode = 0055;
},
{
glyphname = V;
lastChange = "2016-09-22 13:56:16 +0000";
layers = (
{
anchors = (
{
name = bottom;
position = "{450, 0}";
},
{
name = top;
position = "{450, 680}";
}
);
layerId = "E846E39B-8E1C-41DF-9DB7-AA75C54DD1EE";
paths = (
{
closed = 1;
nodes = (
"580 680 LINE",
"460 458 LINE",
"455 -90 LINE",
"900 680 LINE"
);
},
{
closed = 1;
nodes = (
"455 -90 LINE",
"460 458 LINE",
"340 680 LINE",
"0 680 LINE"
);
}
);
width = 900;
},
{
anchors = (
{
name = bottom;
position = "{332, 0}";
},
{
name = top;
position = "{332, 650}";
}
);
layerId = "D0758D58-6BF2-4444-AD52-30AE2E418BEE";
paths = (
{
closed = 1;
nodes = (
"343 -33 LINE",
"344 14 LINE",
"43 680 LINE",
"20 680 LINE"
);
},
{
closed = 1;
nodes = (
"643 680 LINE",
"344 14 LINE",
"343 -33 LINE",
"666 680 LINE"
);
}
);
width = 686;
}
);
leftKerningGroup = V;
rightKerningGroup = V;
unicode = 0056;
},
{
glyphname = W;
lastChange = "2016-09-22 10:44:36 +0000";
layers = (
{
anchors = (
{
name = bottom;
position = "{520, 0}";
},
{
name = top;
position = "{520, 680}";
}
);
components = (
{
alignment = -1;
name = M;
transform = "{1, 0, 0, -1, 0, 680}";
}
);
layerId = "E846E39B-8E1C-41DF-9DB7-AA75C54DD1EE";
width = 1020;
},
{
anchors = (
{
name = bottom;
position = "{480, 0}";
},
{
name = top;
position = "{480, 650}";
}
);
components = (
{
alignment = -1;
name = M;
transform = "{1, 0, 0, -1, 0, 680}";
}
);
layerId = "D0758D58-6BF2-4444-AD52-30AE2E418BEE";
width = 940;
},
{
associatedMasterId = "D0758D58-6BF2-4444-AD52-30AE2E418BEE";
layerId = "C76CA57F-98CC-423D-AAD0-F821F6D01B2B";
name = "Light Jul 5 16, 15:30";
paths = (
{
closed = 1;
nodes = (
"110 33 LINE",
"110 680 LINE",
"90 680 LINE",
"90 -22 LINE",
"450 435 LINE",
"450 465 LINE"
);
},
{
closed = 1;
nodes = (
"450 435 LINE",
"810 -22 LINE",
"810 680 LINE",
"790 680 LINE",
"790 33 LINE",
"450 465 LINE"
);
}
);
width = 900;
}
);
leftKerningGroup = W;
leftMetricsKey = "=M";
rightKerningGroup = W;
rightMetricsKey = "=M";
unicode = 0057;
},
{
glyphname = X;
lastChange = "2016-09-22 10:38:04 +0000";
layers = (
{
anchors = (
{
name = bottom;
position = "{395, 0}";
},
{
name = top;
position = "{395, 680}";
}
);
layerId = "E846E39B-8E1C-41DF-9DB7-AA75C54DD1EE";
paths = (
{
closed = 1;
nodes = (
"800 680 LINE",
"550 680 LINE",
"450 520 LINE",
"355 680 LINE",
"-20 680 LINE",
"203 339 LINE",
"-10 0 LINE",
"240 0 LINE",
"340 160 LINE",
"435 0 LINE",
"810 0 LINE",
"587 341 LINE"
);
}
);
width = 790;
},
{
anchors = (
{
name = bottom;
position = "{325, 0}";
},
{
name = top;
position = "{325, 650}";
}
);
guideLines = (
{
angle = 129.1699;
position = "{319, 340}";
}
);
layerId = "D0758D58-6BF2-4444-AD52-30AE2E418BEE";
paths = (
{
closed = 1;
nodes = (
"612 680 LINE",
"589 680 LINE",
"327 361 LINE",
"67 680 LINE",
"42 680 LINE",
"315 345 LINE",
"30 0 LINE",
"53 0 LINE",
"325 329 LINE",
"596 0 LINE",
"620 0 LINE",
"337 345 LINE"
);
}
);
width = 650;
},
{
associatedMasterId = "E846E39B-8E1C-41DF-9DB7-AA75C54DD1EE";
guideLines = (
{
angle = -55.6197;
position = "{90, 490}";
},
{
angle = -55.6197;
position = "{455, 490}";
}
);
layerId = "BF1FA68A-7E55-425A-8FB6-D4ED1C274B93";
name = "Bold Jul 5 16, 00:44";
paths = (
{
closed = 1;
nodes = (
"330 0 LINE",
"720 0 LINE",
"380 680 LINE",
"-20 680 LINE"
);
},
{
closed = 1;
nodes = (
"162 384 LINE",
"-20 0 LINE",
"190 0 LINE",
"370 384 LINE"
);
},
{
closed = 1;
nodes = (
"502 680 LINE",
"330 296 LINE",
"540 296 LINE",
"710 680 LINE"
);
}
);
width = 750;
},
{
associatedMasterId = "E846E39B-8E1C-41DF-9DB7-AA75C54DD1EE";
layerId = "8A96C7F4-42A7-4303-9B4D-94C1CD57A69C";
name = "Bold Jul 15 16, 15:01";
paths = (
{
closed = 1;
nodes = (
"840 0 LINE",
"580 380 LINE",
"380 380 LINE",
"370 140 LINE",
"465 0 LINE"
);
},
{
closed = 1;
nodes = (
"280 0 LINE",
"370 140 LINE",
"380 380 LINE",
"270 380 LINE",
"20 0 LINE"
);
},
{
closed = 1;
nodes = (
"480 300 LINE",
"480 540 LINE",
"385 680 LINE",
"10 680 LINE",
"270 300 LINE"
);
},
{
closed = 1;
nodes = (
"580 300 LINE",
"830 680 LINE",
"570 680 LINE",
"480 540 LINE",
"480 300 LINE"
);
}
);
width = 850;
},
{
associatedMasterId = "D0758D58-6BF2-4444-AD52-30AE2E418BEE";
guideLines = (
{
angle = 129.1699;
position = "{349, 340}";
}
);
layerId = "A03E687A-8CC8-4E5F-A901-9E5E79344D35";
name = "Light Jul 15 16, 15:01";
paths = (
{
closed = 1;
nodes = (
"83 0 LINE",
"355 329 LINE",
"356 345 LINE",
"345 345 LINE",
"60 0 LINE"
);
},
{
closed = 1;
nodes = (
"650 0 LINE",
"367 345 LINE",
"356 345 LINE",
"355 329 LINE",
"626 0 LINE"
);
},
{
closed = 1;
nodes = (
"356 345 LINE",
"357 361 LINE",
"97 680 LINE",
"72 680 LINE",
"345 345 LINE"
);
},
{
closed = 1;
nodes = (
"367 345 LINE",
"642 680 LINE",
"619 680 LINE",
"357 361 LINE",
"356 345 LINE"
);
}
);
width = 710;
}
);
leftKerningGroup = X;
leftMetricsKey = "=|E-30";
rightKerningGroup = X;
rightMetricsKey = "=E-30";
unicode = 0058;
},
{
glyphname = Y;
lastChange = "2016-09-22 13:48:23 +0000";
layers = (
{
anchors = (
{
name = bottom;
position = "{440, 0}";
},
{
name = top;
position = "{440, 680}";
},
{
name = topleft;
position = "{20, 680}";
}
);
layerId = "E846E39B-8E1C-41DF-9DB7-AA75C54DD1EE";
paths = (
{
closed = 1;
nodes = (
"460 220 LINE",
"460 498 LINE",
"360 680 LINE",
"0 680 LINE",
"290 220 LINE"
);
},
{
closed = 1;
nodes = (
"600 0 LINE",
"600 220 LINE",
"290 220 LINE",
"290 0 LINE"
);
},
{
closed = 1;
nodes = (
"600 220 LINE",
"880 680 LINE",
"550 680 LINE",
"460 498 LINE",
"460 220 LINE"
);
}
);
width = 880;
},
{
anchors = (
{
name = bottom;
position = "{332, 0}";
},
{
name = top;
position = "{332, 650}";
},
{
name = topleft;
position = "{40, 680}";
}
);
layerId = "D0758D58-6BF2-4444-AD52-30AE2E418BEE";
paths = (
{
closed = 1;
nodes = (
"333 240 LINE",
"333 260 LINE",
"43 680 LINE",
"20 680 LINE",
"323 240 LINE"
);
},
{
closed = 1;
nodes = (
"343 0 LINE",
"343 240 LINE",
"323 240 LINE",
"323 0 LINE"
);
},
{
closed = 1;
nodes = (
"343 240 LINE",
"643 680 LINE",
"621 680 LINE",
"333 260 LINE",
"333 240 LINE"
);
}
);
width = 663;
}
);
leftKerningGroup = Y;
leftMetricsKey = "=V";
rightKerningGroup = Y;
rightMetricsKey = "=V";
unicode = 0059;
},
{
glyphname = Z;
lastChange = "2016-09-22 13:56:52 +0000";
layers = (
{
anchors = (
{
name = bottom;
position = "{441, 0}";
},
{
name = top;
position = "{441, 680}";
}
);
layerId = "E846E39B-8E1C-41DF-9DB7-AA75C54DD1EE";
paths = (
{
closed = 1;
nodes = (
"802 230 LINE",
"532 230 LINE",
"802 680 LINE",
"70 680 LINE",
"70 450 LINE",
"300 450 LINE",
"30 0 LINE",
"802 0 LINE"
);
}
);
width = 822;
},
{
anchors = (
{
name = bottom;
position = "{316, 0}";
},
{
name = top;
position = "{316, 650}";
}
);
layerId = "D0758D58-6BF2-4444-AD52-30AE2E418BEE";
paths = (
{
closed = 1;
nodes = (
"612 18 LINE",
"62 18 LINE",
"612 680 LINE",
"40 680 LINE",
"40 662 LINE",
"570 662 LINE",
"20 0 LINE",
"612 0 LINE"
);
}
);
width = 632;
}
);
leftKerningGroup = Z;
rightKerningGroup = Z;
unicode = 005A;
},
{
glyphname = a;
lastChange = "2016-09-22 11:09:21 +0000";
layers = (
{
anchors = (
{
name = bottom;
position = "{328, 0}";
},
{
name = ogonek;
position = "{647, 0}";
},
{
name = top;
position = "{278, 550}";
}
);
layerId = "E846E39B-8E1C-41DF-9DB7-AA75C54DD1EE";
paths = (
{
closed = 1;
nodes = (
"575 -20 OFFCURVE",
"608 -11 OFFCURVE",
"646 0 CURVE",
"646 170 LINE",
"638 167 OFFCURVE",
"632 166 OFFCURVE",
"625 166 CURVE SMOOTH",
"583 166 OFFCURVE",
"574 205 OFFCURVE",
"562 264 CURVE SMOOTH",
"526 437 OFFCURVE",
"461 570 OFFCURVE",
"219 570 CURVE SMOOTH",
"168 570 OFFCURVE",
"105 564 OFFCURVE",
"53 550 CURVE",
"53 360 LINE",
"77 368 OFFCURVE",
"101 372 OFFCURVE",
"129 372 CURVE SMOOTH",
"225 372 OFFCURVE",
"236 325 OFFCURVE",
"256 236 CURVE SMOOTH",
"295 62 OFFCURVE",
"339 -20 OFFCURVE",
"516 -20 CURVE SMOOTH"
);
},
{
closed = 1;
nodes = (
"260 -20 OFFCURVE",
"332 47 OFFCURVE",
"332 132 CURVE SMOOTH",
"332 216 OFFCURVE",
"261 283 OFFCURVE",
"171 283 CURVE SMOOTH",
"77 283 OFFCURVE",
"15 216 OFFCURVE",
"15 132 CURVE SMOOTH",
"15 47 OFFCURVE",
"78 -20 OFFCURVE",
"171 -20 CURVE SMOOTH"
);
},
{
closed = 1;
nodes = (
"223 107 OFFCURVE",
"208 121 OFFCURVE",
"208 142 CURVE SMOOTH",
"208 162 OFFCURVE",
"223 177 OFFCURVE",
"243 177 CURVE SMOOTH",
"262 177 OFFCURVE",
"278 162 OFFCURVE",
"278 142 CURVE SMOOTH",
"278 121 OFFCURVE",
"262 107 OFFCURVE",
"243 107 CURVE SMOOTH"
);
}
);
width = 646;
},
{
anchors = (
{
name = bottom;
position = "{235, 0}";
},
{
name = ogonek;
position = "{567, 0}";
},
{
name = top;
position = "{224, 490}";
}
);
layerId = "D0758D58-6BF2-4444-AD52-30AE2E418BEE";
paths = (
{
closed = 1;
nodes = (
"548 -2 OFFCURVE",
"559 -1 OFFCURVE",
"567 0 CURVE",
"567 18 LINE",
"558 17 OFFCURVE",
"548 16 OFFCURVE",
"539 16 CURVE SMOOTH",
"442 16 OFFCURVE",
"434 111 OFFCURVE",
"419 254 CURVE SMOOTH",
"402 415 OFFCURVE",
"372 500 OFFCURVE",
"231 500 CURVE SMOOTH",
"172 500 OFFCURVE",
"111 485 OFFCURVE",
"60 455 CURVE",
"60 435 LINE",
"111 468 OFFCURVE",
"179 482 OFFCURVE",
"232 482 CURVE SMOOTH",
"357 482 OFFCURVE",
"382 403 OFFCURVE",
"399 254 CURVE SMOOTH",
"416 102 OFFCURVE",
"424 -2 OFFCURVE",
"538 -2 CURVE SMOOTH"
);
},
{
closed = 1;
nodes = (
"345 -10 OFFCURVE",
"425 62 OFFCURVE",
"425 146 CURVE SMOOTH",
"425 230 OFFCURVE",
"345 296 OFFCURVE",
"235 296 CURVE SMOOTH",
"119 296 OFFCURVE",
"45 222 OFFCURVE",
"45 143 CURVE SMOOTH",
"45 64 OFFCURVE",
"120 -10 OFFCURVE",
"233 -10 CURVE SMOOTH"
);
},
{
closed = 1;
nodes = (
"130 8 OFFCURVE",
"65 72 OFFCURVE",
"65 143 CURVE SMOOTH",
"65 213 OFFCURVE",
"129 278 OFFCURVE",
"235 278 CURVE SMOOTH",
"341 278 OFFCURVE",
"409 213 OFFCURVE",
"409 143 CURVE SMOOTH",
"409 72 OFFCURVE",
"340 8 OFFCURVE",
"235 8 CURVE SMOOTH"
);
}
);
width = 567;
},
{
associatedMasterId = "E846E39B-8E1C-41DF-9DB7-AA75C54DD1EE";
layerId = "F48BED4A-37C4-44DB-AFB5-6F74A43346FF";
name = "Bold May 21 16, 14:01";
paths = (
{
closed = 1;
nodes = (
"258 -20 OFFCURVE",
"327 48 OFFCURVE",
"327 132 CURVE SMOOTH",
"327 216 OFFCURVE",
"258 284 OFFCURVE",
"162 284 CURVE SMOOTH",
"79 284 OFFCURVE",
"10 216 OFFCURVE",
"10 132 CURVE SMOOTH",
"10 48 OFFCURVE",
"79 -20 OFFCURVE",
"162 -20 CURVE SMOOTH"
);
},
{
closed = 1;
nodes = (
"200 110 OFFCURVE",
"185 124 OFFCURVE",
"185 142 CURVE SMOOTH",
"185 160 OFFCURVE",
"200 174 OFFCURVE",
"218 174 CURVE SMOOTH",
"235 174 OFFCURVE",
"250 160 OFFCURVE",
"250 142 CURVE SMOOTH",
"250 124 OFFCURVE",
"235 110 OFFCURVE",
"218 110 CURVE SMOOTH"
);
},
{
closed = 1;
nodes = (
"221 256 LINE",
"272 -34 OFFCURVE",
"446 -44 OFFCURVE",
"621 -4 CURVE",
"621 146 LINE",
"558 128 OFFCURVE",
"530 207 OFFCURVE",
"521 256 CURVE"
);
},
{
closed = 1;
nodes = (
"521 256 LINE",
"464 583 OFFCURVE",
"223 593 OFFCURVE",
"48 553 CURVE",
"48 353 LINE",
"152 371 OFFCURVE",
"206 342 OFFCURVE",
"221 256 CURVE"
);
}
);
width = 601;
},
{
associatedMasterId = "E846E39B-8E1C-41DF-9DB7-AA75C54DD1EE";
layerId = "F7AC83AA-970F-457F-AFE6-B3F0CB81B2AF";
name = "Bold Jul 5 16, 11:24";
paths = (
{
closed = 1;
nodes = (
"557 -20 OFFCURVE",
"597 -13 OFFCURVE",
"632 0 CURVE",
"632 180 LINE",
"624 177 OFFCURVE",
"618 176 OFFCURVE",
"612 176 CURVE SMOOTH",
"574 176 OFFCURVE",
"559 205 OFFCURVE",
"552 244 CURVE SMOOTH",
"520 421 OFFCURVE",
"501 570 OFFCURVE",
"265 570 CURVE SMOOTH",
"180 570 OFFCURVE",
"113 551 OFFCURVE",
"59 530 CURVE",
"59 350 LINE",
"83 358 OFFCURVE",
"106 362 OFFCURVE",
"137 362 CURVE SMOOTH",
"229 362 OFFCURVE",
"238 327 OFFCURVE",
"252 256 CURVE SMOOTH",
"287 84 OFFCURVE",
"324 -20 OFFCURVE",
"509 -20 CURVE SMOOTH"
);
},
{
closed = 1;
nodes = (
"275 -20 OFFCURVE",
"354 55 OFFCURVE",
"354 148 CURVE SMOOTH",
"354 240 OFFCURVE",
"276 315 OFFCURVE",
"177 315 CURVE SMOOTH",
"78 315 OFFCURVE",
"5 240 OFFCURVE",
"5 148 CURVE SMOOTH",
"5 55 OFFCURVE",
"79 -20 OFFCURVE",
"177 -20 CURVE SMOOTH"
);
},
{
closed = 1;
nodes = (
"215 124 OFFCURVE",
"199 139 OFFCURVE",
"199 159 CURVE SMOOTH",
"199 178 OFFCURVE",
"215 194 OFFCURVE",
"234 194 CURVE SMOOTH",
"252 194 OFFCURVE",
"269 178 OFFCURVE",
"269 159 CURVE SMOOTH",
"269 139 OFFCURVE",
"252 124 OFFCURVE",
"234 124 CURVE SMOOTH"
);
}
);
width = 612;
}
);
leftKerningGroup = a;
rightKerningGroup = a;
unicode = 0061;
},
{
glyphname = ae;
lastChange = "2016-09-20 19:30:39 +0000";
layers = (
{
layerId = "D0758D58-6BF2-4444-AD52-30AE2E418BEE";
paths = (
{
closed = 1;
nodes = (
"631 8 OFFCURVE",
"537 114 OFFCURVE",
"537 245 CURVE SMOOTH",
"537 376 OFFCURVE",
"631 482 OFFCURVE",
"771 482 CURVE SMOOTH",
"910 482 OFFCURVE",
"992 378 OFFCURVE",
"992 285 CURVE",
"1012 275 LINE",
"1012 388 OFFCURVE",
"920 500 OFFCURVE",
"771 500 CURVE SMOOTH",
"620 500 OFFCURVE",
"520 385 OFFCURVE",
"520 245 CURVE SMOOTH",
"520 105 OFFCURVE",
"621 -10 OFFCURVE",
"774 -10 CURVE SMOOTH",
"884 -10 OFFCURVE",
"961 49 OFFCURVE",
"1007 136 CURVE",
"991 144 LINE",
"946 62 OFFCURVE",
"879 8 OFFCURVE",
"776 8 CURVE SMOOTH"
);
},
{
closed = 1;
nodes = (
"436 482 OFFCURVE",
"520 374 OFFCURVE",
"520 247 CURVE SMOOTH",
"520 113 OFFCURVE",
"426 8 OFFCURVE",
"286 8 CURVE SMOOTH",
"147 8 OFFCURVE",
"65 112 OFFCURVE",
"65 205 CURVE",
"45 215 LINE",
"45 102 OFFCURVE",
"137 -10 OFFCURVE",
"286 -10 CURVE SMOOTH",
"437 -10 OFFCURVE",
"537 104 OFFCURVE",
"537 247 CURVE SMOOTH",
"537 383 OFFCURVE",
"447 500 OFFCURVE",
"293 500 CURVE SMOOTH",
"183 500 OFFCURVE",
"96 441 OFFCURVE",
"50 354 CURVE",
"66 346 LINE",
"111 428 OFFCURVE",
"188 482 OFFCURVE",
"291 482 CURVE SMOOTH"
);
},
{
closed = 1;
nodes = (
"45 215 LINE",
"55 199 LINE",
"1012 275 LINE",
"1002 291 LINE"
);
}
);
width = 1052;
},
{
layerId = "E846E39B-8E1C-41DF-9DB7-AA75C54DD1EE";
paths = (
{
closed = 1;
nodes = (
"617 175 OFFCURVE",
"595 228 OFFCURVE",
"595 291 CURVE SMOOTH",
"595 365 OFFCURVE",
"625 395 OFFCURVE",
"668 395 CURVE SMOOTH",
"711 395 OFFCURVE",
"735 363 OFFCURVE",
"735 305 CURVE",
"880 265 LINE",
"880 448 OFFCURVE",
"757 570 OFFCURVE",
"590 570 CURVE SMOOTH",
"411 570 OFFCURVE",
"300 431 OFFCURVE",
"300 275 CURVE SMOOTH",
"300 116 OFFCURVE",
"415 -20 OFFCURVE",
"595 -20 CURVE SMOOTH",
"742 -20 OFFCURVE",
"820 70 OFFCURVE",
"861 180 CURVE",
"794 223 LINE",
"762 195 OFFCURVE",
"728 175 OFFCURVE",
"686 175 CURVE SMOOTH"
);
},
{
closed = 1;
nodes = (
"278 375 OFFCURVE",
"300 322 OFFCURVE",
"300 259 CURVE SMOOTH",
"300 185 OFFCURVE",
"270 155 OFFCURVE",
"227 155 CURVE SMOOTH",
"184 155 OFFCURVE",
"160 187 OFFCURVE",
"160 245 CURVE",
"15 285 LINE",
"15 102 OFFCURVE",
"138 -20 OFFCURVE",
"305 -20 CURVE SMOOTH",
"484 -20 OFFCURVE",
"595 119 OFFCURVE",
"595 275 CURVE SMOOTH",
"595 434 OFFCURVE",
"480 570 OFFCURVE",
"300 570 CURVE SMOOTH",
"153 570 OFFCURVE",
"75 480 OFFCURVE",
"34 370 CURVE",
"101 327 LINE",
"133 355 OFFCURVE",
"167 375 OFFCURVE",
"209 375 CURVE SMOOTH"
);
},
{
closed = 1;
nodes = (
"735 345 LINE",
"15 285 LINE",
"160 205 LINE",
"880 265 LINE"
);
}
);
width = 890;
},
{
associatedMasterId = "D0758D58-6BF2-4444-AD52-30AE2E418BEE";
layerId = "B55F82BA-5537-47E2-AF85-0ED27B7303A6";
name = "Light Jul 29 16, 13:34";
paths = (
{
closed = 1;
nodes = (
"878 275 LINE",
"868 291 LINE",
"395 291 LINE",
"395 275 LINE"
);
},
{
closed = 1;
nodes = (
"497 8 OFFCURVE",
"403 114 OFFCURVE",
"403 245 CURVE SMOOTH",
"403 376 OFFCURVE",
"497 482 OFFCURVE",
"638 482 CURVE SMOOTH",
"776 482 OFFCURVE",
"858 378 OFFCURVE",
"858 285 CURVE",
"878 275 LINE",
"878 388 OFFCURVE",
"786 500 OFFCURVE",
"637 500 CURVE SMOOTH",
"486 500 OFFCURVE",
"386 385 OFFCURVE",
"386 245 CURVE SMOOTH",
"386 105 OFFCURVE",
"486 -10 OFFCURVE",
"642 -10 CURVE SMOOTH",
"749 -10 OFFCURVE",
"827 49 OFFCURVE",
"873 136 CURVE",
"857 144 LINE",
"812 62 OFFCURVE",
"745 8 OFFCURVE",
"643 8 CURVE SMOOTH"
);
}
);
width = 918;
}
);
leftKerningGroup = o;
leftMetricsKey = "=a";
rightKerningGroup = o;
rightMetricsKey = "=e";
unicode = 00E6;
},
{
glyphname = c;
lastChange = "2016-09-22 10:28:53 +0000";
layers = (
{
anchors = (
{
name = bottom;
position = "{326, 0}";
},
{
name = top;
position = "{326, 550}";
}
);
guideLines = (
{
angle = 31.7595;
position = "{537, 318}";
}
);
layerId = "E846E39B-8E1C-41DF-9DB7-AA75C54DD1EE";
paths = (
{
closed = 1;
nodes = (
"409 192 OFFCURVE",
"372 227 OFFCURVE",
"372 275 CURVE SMOOTH",
"372 323 OFFCURVE",
"409 358 OFFCURVE",
"460 358 CURVE SMOOTH",
"494 358 OFFCURVE",
"515 342 OFFCURVE",
"537 318 CURVE",
"621 370 LINE",
"561 503 OFFCURVE",
"458 570 OFFCURVE",
"326 570 CURVE SMOOTH",
"140 570 OFFCURVE",
"10 438 OFFCURVE",
"10 275 CURVE SMOOTH",
"10 112 OFFCURVE",
"140 -20 OFFCURVE",
"326 -20 CURVE SMOOTH",
"458 -20 OFFCURVE",
"561 47 OFFCURVE",
"621 180 CURVE",
"537 232 LINE",
"515 208 OFFCURVE",
"494 192 OFFCURVE",
"460 192 CURVE SMOOTH"
);
}
);
width = 631;
},
{
anchors = (
{
name = bottom;
position = "{295, 0}";
},
{
name = top;
position = "{295, 490}";
}
);
guideLines = (
{
angle = 206.565;
position = "{522, 350}";
}
);
layerId = "D0758D58-6BF2-4444-AD52-30AE2E418BEE";
paths = (
{
closed = 1;
nodes = (
"159 8 OFFCURVE",
"60 114 OFFCURVE",
"60 245 CURVE SMOOTH",
"60 376 OFFCURVE",
"159 482 OFFCURVE",
"300 482 CURVE SMOOTH",
"401 482 OFFCURVE",
"468 428 OFFCURVE",
"514 346 CURVE",
"530 354 LINE",
"484 441 OFFCURVE",
"406 500 OFFCURVE",
"299 500 CURVE SMOOTH",
"148 500 OFFCURVE",
"40 385 OFFCURVE",
"40 245 CURVE SMOOTH",
"40 105 OFFCURVE",
"148 -10 OFFCURVE",
"299 -10 CURVE SMOOTH",
"406 -10 OFFCURVE",
"484 49 OFFCURVE",
"530 136 CURVE",
"514 144 LINE",
"468 62 OFFCURVE",
"401 8 OFFCURVE",
"300 8 CURVE SMOOTH"
);
}
);
width = 570;
}
);
leftKerningGroup = o;
leftMetricsKey = "=o";
rightKerningGroup = o;
rightMetricsKey = "=o";
unicode = 0063;
},
{
glyphname = d;
lastChange = "2016-08-28 11:38:27 +0000";
layers = (
{
anchors = (
{
name = bottom;
position = "{359, 0}";
},
{
name = center;
position = "{359, 275}";
},
{
name = top;
position = "{359, 550}";
},
{
name = topright;
position = "{697, 550}";
}
);
layerId = "E846E39B-8E1C-41DF-9DB7-AA75C54DD1EE";
paths = (
{
closed = 1;
nodes = (
"419 -10 OFFCURVE",
"501 112 OFFCURVE",
"501 275 CURVE SMOOTH",
"501 438 OFFCURVE",
"419 560 OFFCURVE",
"276 560 CURVE SMOOTH",
"122 560 OFFCURVE",
"10 438 OFFCURVE",
"10 275 CURVE SMOOTH",
"10 112 OFFCURVE",
"122 -10 OFFCURVE",
"276 -10 CURVE SMOOTH"
);
},
{
closed = 1;
nodes = (
"333 225 OFFCURVE",
"310 248 OFFCURVE",
"310 275 CURVE SMOOTH",
"310 302 OFFCURVE",
"333 325 OFFCURVE",
"360 325 CURVE SMOOTH",
"388 325 OFFCURVE",
"410 302 OFFCURVE",
"410 275 CURVE SMOOTH",
"410 248 OFFCURVE",
"388 225 OFFCURVE",
"360 225 CURVE SMOOTH"
);
},
{
closed = 1;
nodes = (
"697 0 LINE",
"697 700 LINE",
"397 700 LINE",
"397 337 LINE",
"428 275 LINE",
"397 200 LINE",
"477 0 LINE"
);
}
);
width = 717;
},
{
anchors = (
{
name = bottom;
position = "{310, 0}";
},
{
name = center;
position = "{310, 245}";
},
{
name = top;
position = "{310, 490}";
},
{
name = topright;
position = "{599, 490}";
}
);
layerId = "D0758D58-6BF2-4444-AD52-30AE2E418BEE";
paths = (
{
closed = 1;
nodes = (
"448 -10 OFFCURVE",
"546 107 OFFCURVE",
"546 245 CURVE SMOOTH",
"546 383 OFFCURVE",
"448 500 OFFCURVE",
"295 500 CURVE SMOOTH",
"142 500 OFFCURVE",
"40 383 OFFCURVE",
"40 245 CURVE SMOOTH",
"40 107 OFFCURVE",
"142 -10 OFFCURVE",
"295 -10 CURVE SMOOTH"
);
},
{
closed = 1;
nodes = (
"152 8 OFFCURVE",
"60 117 OFFCURVE",
"60 245 CURVE SMOOTH",
"60 373 OFFCURVE",
"152 482 OFFCURVE",
"295 482 CURVE SMOOTH",
"438 482 OFFCURVE",
"530 373 OFFCURVE",
"530 245 CURVE SMOOTH",
"530 117 OFFCURVE",
"438 8 OFFCURVE",
"295 8 CURVE SMOOTH"
);
},
{
closed = 1;
nodes = (
"549 0 LINE",
"549 700 LINE",
"529 700 LINE",
"529 337 LINE",
"540 275 LINE",
"529 200 LINE",
"534 0 LINE"
);
}
);
width = 619;
}
);
leftKerningGroup = o;
leftMetricsKey = "=o";
rightMetricsKey = "=l";
unicode = 0064;
},
{
glyphname = eth;
lastChange = "2016-08-28 11:35:38 +0000";
layers = (
{
layerId = "D0758D58-6BF2-4444-AD52-30AE2E418BEE";
paths = (
{
closed = 1;
nodes = (
"302 789 LINE",
"286 798 LINE",
"153 567 LINE",
"169 558 LINE"
);
},
{
closed = 1;
nodes = (
"100 716 LINE",
"412 645 OFFCURVE",
"513 483 OFFCURVE",
"513 235 CURVE",
"510 235 LINE",
"510 117 OFFCURVE",
"424 8 OFFCURVE",
"285 8 CURVE",
"285 -10 LINE",
"434 -10 OFFCURVE",
"530 107 OFFCURVE",
"530 235 CURVE SMOOTH",
"530 493 OFFCURVE",
"424 660 OFFCURVE",
"105 730 CURVE"
);
},
{
closed = 1;
nodes = (
"136 480 OFFCURVE",
"40 363 OFFCURVE",
"40 235 CURVE SMOOTH",
"40 107 OFFCURVE",
"136 -10 OFFCURVE",
"285 -10 CURVE",
"285 8 LINE",
"146 8 OFFCURVE",
"60 117 OFFCURVE",
"60 235 CURVE SMOOTH",
"60 353 OFFCURVE",
"146 462 OFFCURVE",
"285 462 CURVE SMOOTH",
"424 462 OFFCURVE",
"510 353 OFFCURVE",
"510 235 CURVE",
"520 235 LINE",
"520 363 OFFCURVE",
"434 480 OFFCURVE",
"285 480 CURVE SMOOTH"
);
}
);
width = 570;
},
{
layerId = "E846E39B-8E1C-41DF-9DB7-AA75C54DD1EE";
paths = (
{
closed = 1;
nodes = (
"107 680 LINE",
"390 604 OFFCURVE",
"425 472 OFFCURVE",
"425 235 CURVE",
"375 235 LINE",
"375 209 OFFCURVE",
"354 185 OFFCURVE",
"325 185 CURVE",
"325 -20 LINE",
"509 -20 OFFCURVE",
"640 70 OFFCURVE",
"640 279 CURVE SMOOTH",
"640 473 OFFCURVE",
"528 728 OFFCURVE",
"140 792 CURVE"
);
},
{
closed = 1;
nodes = (
"413 786 LINE",
"311 845 LINE",
"152 570 LINE",
"254 511 LINE"
);
},
{
closed = 1;
nodes = (
"121 480 OFFCURVE",
"10 377 OFFCURVE",
"10 237 CURVE SMOOTH",
"10 91 OFFCURVE",
"131 -20 OFFCURVE",
"325 -20 CURVE",
"325 185 LINE",
"295 185 OFFCURVE",
"275 209 OFFCURVE",
"275 235 CURVE SMOOTH",
"275 261 OFFCURVE",
"295 285 OFFCURVE",
"325 285 CURVE SMOOTH",
"354 285 OFFCURVE",
"375 261 OFFCURVE",
"375 235 CURVE",
"470 235 LINE",
"470 408 OFFCURVE",
"389 480 OFFCURVE",
"266 480 CURVE SMOOTH"
);
}
);
width = 650;
}
);
leftKerningGroup = o;
leftMetricsKey = "=o";
rightMetricsKey = "=o";
unicode = 00F0;
},
{
glyphname = dcroat;
lastChange = "2016-10-09 20:07:43 +0000";
layers = (
{
components = (
{
name = d;
}
);
layerId = "D0758D58-6BF2-4444-AD52-30AE2E418BEE";
paths = (
{
closed = 1;
nodes = (
"539 582 LINE",
"539 600 LINE",
"369 600 LINE",
"369 582 LINE"
);
}
);
width = 619;
},
{
components = (
{
name = d;
}
);
layerId = "E846E39B-8E1C-41DF-9DB7-AA75C54DD1EE";
paths = (
{
closed = 1;
nodes = (
"660 582 LINE",
"660 650 LINE",
"300 650 LINE",
"300 582 LINE"
);
}
);
width = 717;
}
);
leftKerningGroup = o;
leftMetricsKey = "=d";
rightMetricsKey = "=d";
unicode = 0111;
},
{
glyphname = e;
lastChange = "2016-09-22 10:37:48 +0000";
layers = (
{
anchors = (
{
name = bottom;
position = "{325, 0}";
},
{
name = ogonek;
position = "{445, 0}";
},
{
name = top;
position = "{325, 550}";
}
);
layerId = "E846E39B-8E1C-41DF-9DB7-AA75C54DD1EE";
paths = (
{
closed = 1;
nodes = (
"397 175 OFFCURVE",
"363 212 OFFCURVE",
"357 265 CURVE",
"640 265 LINE",
"640 448 OFFCURVE",
"508 570 OFFCURVE",
"328 570 CURVE SMOOTH",
"140 570 OFFCURVE",
"10 438 OFFCURVE",
"10 275 CURVE SMOOTH",
"10 112 OFFCURVE",
"140 -20 OFFCURVE",
"332 -20 CURVE SMOOTH",
"478 -20 OFFCURVE",
"571 57 OFFCURVE",
"621 180 CURVE",
"554 223 LINE",
"522 195 OFFCURVE",
"488 175 OFFCURVE",
"445 175 CURVE SMOOTH"
);
},
{
closed = 1;
nodes = (
"460 395 OFFCURVE",
"481 378 OFFCURVE",
"490 345 CURVE",
"362 345 LINE",
"373 379 OFFCURVE",
"397 395 OFFCURVE",
"428 395 CURVE SMOOTH"
);
}
);
width = 650;
},
{
anchors = (
{
name = bottom;
position = "{288, 0}";
},
{
name = ogonek;
position = "{371, 0}";
},
{
name = top;
position = "{288, 490}";
}
);
layerId = "D0758D58-6BF2-4444-AD52-30AE2E418BEE";
paths = (
{
closed = 1;
nodes = (
"535 275 LINE",
"525 291 LINE",
"52 291 LINE",
"52 275 LINE"
);
},
{
closed = 1;
nodes = (
"154 8 OFFCURVE",
"60 114 OFFCURVE",
"60 245 CURVE SMOOTH",
"60 376 OFFCURVE",
"154 482 OFFCURVE",
"295 482 CURVE SMOOTH",
"433 482 OFFCURVE",
"515 378 OFFCURVE",
"515 285 CURVE",
"535 275 LINE",
"535 388 OFFCURVE",
"443 500 OFFCURVE",
"294 500 CURVE SMOOTH",
"143 500 OFFCURVE",
"40 385 OFFCURVE",
"40 245 CURVE SMOOTH",
"40 105 OFFCURVE",
"143 -10 OFFCURVE",
"299 -10 CURVE SMOOTH",
"406 -10 OFFCURVE",
"484 49 OFFCURVE",
"530 136 CURVE",
"514 144 LINE",
"469 62 OFFCURVE",
"402 8 OFFCURVE",
"300 8 CURVE SMOOTH"
);
}
);
width = 575;
}
);
leftKerningGroup = o;
leftMetricsKey = "=o";
rightKerningGroup = o;
rightMetricsKey = "=o";
unicode = 0065;
},
{
glyphname = eogonek;
lastChange = "2016-09-22 10:39:42 +0000";
layers = (
{
anchors = (
{
name = _ogonek;
position = "{371, 0}";
}
);
components = (
{
name = e;
}
);
layerId = "D0758D58-6BF2-4444-AD52-30AE2E418BEE";
paths = (
{
closed = 1;
nodes = (
"451 -202 LINE",
"426 -210 OFFCURVE",
"405 -213 OFFCURVE",
"390 -213 CURVE SMOOTH",
"338 -213 OFFCURVE",
"317 -176 OFFCURVE",
"317 -136 CURVE SMOOTH",
"317 -81 OFFCURVE",
"358 -35 OFFCURVE",
"441 33 CURVE",
"431 43 LINE",
"352 -20 OFFCURVE",
"297 -70 OFFCURVE",
"297 -137 CURVE SMOOTH",
"297 -184 OFFCURVE",
"325 -230 OFFCURVE",
"390 -230 CURVE SMOOTH",
"406 -230 OFFCURVE",
"427 -227 OFFCURVE",
"451 -220 CURVE"
);
}
);
width = 575;
},
{
anchors = (
{
name = _ogonek;
position = "{445, 0}";
}
);
components = (
{
name = e;
}
);
layerId = "E846E39B-8E1C-41DF-9DB7-AA75C54DD1EE";
paths = (
{
closed = 1;
nodes = (
"547 -115 LINE",
"542 -116 OFFCURVE",
"538 -116 OFFCURVE",
"534 -116 CURVE SMOOTH",
"487 -116 OFFCURVE",
"467 -90 OFFCURVE",
"467 -49 CURVE SMOOTH",
"467 -21 OFFCURVE",
"476 7 OFFCURVE",
"525 50 CURVE",
"485 50 LINE",
"333 3 OFFCURVE",
"290 -65 OFFCURVE",
"290 -119 CURVE SMOOTH",
"290 -164 OFFCURVE",
"321 -220 OFFCURVE",
"437 -220 CURVE SMOOTH",
"464 -220 OFFCURVE",
"509 -217 OFFCURVE",
"547 -206 CURVE"
);
}
);
width = 650;
}
);
leftKerningGroup = o;
leftMetricsKey = "=e";
rightKerningGroup = o;
rightMetricsKey = "=e";
unicode = 0119;
},
{
glyphname = f;
lastChange = "2016-09-20 20:01:00 +0000";
layers = (
{
anchors = (
{
name = bottom;
position = "{226, 0}";
},
{
name = top;
position = "{226, 550}";
}
);
layerId = "E846E39B-8E1C-41DF-9DB7-AA75C54DD1EE";
paths = (
{
closed = 1;
nodes = (
"320 550 LINE",
"20 520 LINE",
"20 0 LINE",
"320 0 LINE"
);
},
{
closed = 1;
nodes = (
"320 591 OFFCURVE",
"350 624 OFFCURVE",
"405 624 CURVE SMOOTH",
"416 624 OFFCURVE",
"428 623 OFFCURVE",
"441 620 CURVE",
"441 770 LINE",
"405 778 OFFCURVE",
"366 782 OFFCURVE",
"327 782 CURVE SMOOTH",
"173 782 OFFCURVE",
"20 712 OFFCURVE",
"20 520 CURVE",
"320 550 LINE"
);
},
{
closed = 1;
nodes = (
"441 550 LINE",
"64 550 LINE",
"64 330 LINE",
"441 330 LINE"
);
}
);
width = 451;
},
{
anchors = (
{
name = bottom;
position = "{181, 0}";
},
{
name = top;
position = "{181, 490}";
}
);
layerId = "D0758D58-6BF2-4444-AD52-30AE2E418BEE";
paths = (
{
closed = 1;
nodes = (
"90 540 LINE",
"70 540 LINE",
"70 0 LINE",
"90 0 LINE"
);
},
{
closed = 1;
nodes = (
"89 660 OFFCURVE",
"141 715 OFFCURVE",
"247 715 CURVE SMOOTH",
"277 715 OFFCURVE",
"312 711 OFFCURVE",
"351 702 CURVE",
"351 720 LINE",
"313 728 OFFCURVE",
"278 733 OFFCURVE",
"247 733 CURVE SMOOTH",
"132 733 OFFCURVE",
"70 670 OFFCURVE",
"70 540 CURVE",
"90 540 LINE"
);
},
{
closed = 1;
nodes = (
"351 490 LINE",
"84 490 LINE",
"84 472 LINE",
"351 472 LINE"
);
}
);
width = 361;
}
);
leftMetricsKey = "=n";
rightKerningGroup = f;
unicode = 0066;
},
{
glyphname = g;
lastChange = "2016-10-08 18:57:11 +0000";
layers = (
{
anchors = (
{
name = bottom;
position = "{273, 0}";
},
{
name = top;
position = "{273, 550}";
}
);
guideLines = (
{
angle = 90;
position = "{576, 314}";
},
{
position = "{442, -220}";
},
{
position = "{315, 314}";
},
{
angle = 90;
position = "{283, 314}";
}
);
layerId = "E846E39B-8E1C-41DF-9DB7-AA75C54DD1EE";
paths = (
{
closed = 1;
nodes = (
"362 30 OFFCURVE",
"341 -19 OFFCURVE",
"268 -19 CURVE SMOOTH",
"226 -19 OFFCURVE",
"196 5 OFFCURVE",
"196 47 CURVE SMOOTH",
"196 75 OFFCURVE",
"207 117 OFFCURVE",
"233 146 CURVE",
"113 166 LINE",
"40 108 OFFCURVE",
"20 50 OFFCURVE",
"21 -9 CURVE SMOOTH",
"22 -87 OFFCURVE",
"87 -159 OFFCURVE",
"178 -158 CURVE SMOOTH",
"315 -156 OFFCURVE",
"327 -60 OFFCURVE",
"441 -60 CURVE",
"441 30 LINE"
);
},
{
closed = 1;
nodes = (
"520 -220 OFFCURVE",
"576 -164 OFFCURVE",
"576 -95 CURVE SMOOTH",
"576 -26 OFFCURVE",
"520 30 OFFCURVE",
"441 30 CURVE SMOOTH",
"362 30 OFFCURVE",
"306 -26 OFFCURVE",
"306 -95 CURVE SMOOTH",
"306 -164 OFFCURVE",
"362 -220 OFFCURVE",
"441 -220 CURVE SMOOTH"
);
},
{
closed = 1;
nodes = (
"421 -130 OFFCURVE",
"406 -115 OFFCURVE",
"406 -95 CURVE SMOOTH",
"406 -75 OFFCURVE",
"421 -60 OFFCURVE",
"441 -60 CURVE SMOOTH",
"461 -60 OFFCURVE",
"476 -75 OFFCURVE",
"476 -95 CURVE SMOOTH",
"476 -115 OFFCURVE",
"461 -130 OFFCURVE",
"441 -130 CURVE SMOOTH"
);
},
{
closed = 1;
nodes = (
"566 700 LINE",
"392 700 OFFCURVE",
"350 616 OFFCURVE",
"390 469 CURVE",
"491 469 LINE",
"481 516 OFFCURVE",
"520 550 OFFCURVE",
"566 550 CURVE"
);
},
{
closed = 1;
nodes = (
"126 570 OFFCURVE",
"10 456 OFFCURVE",
"10 314 CURVE SMOOTH",
"10 173 OFFCURVE",
"126 58 OFFCURVE",
"283 58 CURVE SMOOTH",
"440 58 OFFCURVE",
"556 173 OFFCURVE",
"556 314 CURVE SMOOTH",
"556 456 OFFCURVE",
"440 570 OFFCURVE",
"283 570 CURVE SMOOTH"
);
},
{
closed = 1;
nodes = (
"264 280 OFFCURVE",
"248 294 OFFCURVE",
"248 314 CURVE SMOOTH",
"248 334 OFFCURVE",
"264 350 OFFCURVE",
"283 350 CURVE SMOOTH",
"302 350 OFFCURVE",
"318 334 OFFCURVE",
"318 314 CURVE SMOOTH",
"318 294 OFFCURVE",
"302 280 OFFCURVE",
"283 280 CURVE SMOOTH"
);
}
);
width = 566;
},
{
anchors = (
{
name = bottom;
position = "{285, 0}";
},
{
name = top;
position = "{285, 490}";
}
);
layerId = "D0758D58-6BF2-4444-AD52-30AE2E418BEE";
paths = (
{
closed = 1;
nodes = (
"290 20 OFFCURVE",
"268 -102 OFFCURVE",
"163 -102 CURVE SMOOTH",
"108 -102 OFFCURVE",
"60 -68 OFFCURVE",
"60 5 CURVE SMOOTH",
"60 52 OFFCURVE",
"80 97 OFFCURVE",
"130 146 CURVE",
"115 156 LINE",
"62 98 OFFCURVE",
"40 55 OFFCURVE",
"40 3 CURVE SMOOTH",
"40 -86 OFFCURVE",
"104 -120 OFFCURVE",
"166 -118 CURVE SMOOTH",
"277 -114 OFFCURVE",
"302 7 OFFCURVE",
"421 7 CURVE",
"421 20 LINE"
);
},
{
closed = 1;
nodes = (
"496 -230 OFFCURVE",
"550 -174 OFFCURVE",
"550 -105 CURVE SMOOTH",
"550 -36 OFFCURVE",
"496 20 OFFCURVE",
"421 20 CURVE SMOOTH",
"345 20 OFFCURVE",
"291 -36 OFFCURVE",
"291 -105 CURVE SMOOTH",
"291 -174 OFFCURVE",
"345 -230 OFFCURVE",
"421 -230 CURVE SMOOTH"
);
},
{
closed = 1;
nodes = (
"354 -214 OFFCURVE",
"309 -165 OFFCURVE",
"309 -105 CURVE SMOOTH",
"309 -45 OFFCURVE",
"354 4 OFFCURVE",
"421 4 CURVE SMOOTH",
"487 4 OFFCURVE",
"532 -45 OFFCURVE",
"532 -105 CURVE SMOOTH",
"532 -165 OFFCURVE",
"487 -214 OFFCURVE",
"421 -214 CURVE SMOOTH"
);
},
{
closed = 1;
nodes = (
"527 620 LINE",
"423 620 OFFCURVE",
"382 536 OFFCURVE",
"432 439 CURVE",
"447 439 LINE",
"405 536 OFFCURVE",
"433 602 OFFCURVE",
"527 602 CURVE"
);
},
{
closed = 1;
nodes = (
"162 500 OFFCURVE",
"71 405 OFFCURVE",
"71 287 CURVE SMOOTH",
"71 170 OFFCURVE",
"162 74 OFFCURVE",
"293 74 CURVE SMOOTH",
"424 74 OFFCURVE",
"515 170 OFFCURVE",
"515 287 CURVE SMOOTH",
"515 405 OFFCURVE",
"424 500 OFFCURVE",
"293 500 CURVE SMOOTH"
);
},
{
closed = 1;
nodes = (
"413 482 OFFCURVE",
"495 395 OFFCURVE",
"495 287 CURVE SMOOTH",
"495 180 OFFCURVE",
"413 92 OFFCURVE",
"293 92 CURVE SMOOTH",
"173 92 OFFCURVE",
"91 180 OFFCURVE",
"91 287 CURVE SMOOTH",
"91 395 OFFCURVE",
"173 482 OFFCURVE",
"293 482 CURVE SMOOTH"
);
}
);
width = 570;
},
{
annotations = (
{
position = "{483.36, -98.007}";
type = Circle;
width = 30;
}
);
associatedMasterId = "E846E39B-8E1C-41DF-9DB7-AA75C54DD1EE";
guideLines = (
{
angle = 90;
position = "{576, 314}";
}
);
layerId = "3913E1D2-AAD8-40A9-85F1-A6A3CB349B0C";
name = "Bold May 23 16, 12:00";
paths = (
{
closed = 1;
nodes = (
"556 314 LINE",
"556 456 OFFCURVE",
"440 570 OFFCURVE",
"283 570 CURVE",
"283 350 LINE",
"303 350 OFFCURVE",
"319 334 OFFCURVE",
"319 314 CURVE"
);
},
{
closed = 1;
nodes = (
"283 279 LINE",
"263 279 OFFCURVE",
"247 294 OFFCURVE",
"247 314 CURVE",
"10 314 LINE",
"10 173 OFFCURVE",
"126 58 OFFCURVE",
"283 58 CURVE"
);
},
{
closed = 1;
nodes = (
"247 314 LINE",
"247 334 OFFCURVE",
"263 350 OFFCURVE",
"283 350 CURVE",
"283 570 LINE",
"126 570 OFFCURVE",
"10 456 OFFCURVE",
"10 314 CURVE"
);
},
{
closed = 1;
nodes = (
"440 58 OFFCURVE",
"556 173 OFFCURVE",
"556 314 CURVE",
"319 314 LINE",
"319 294 OFFCURVE",
"303 279 OFFCURVE",
"283 279 CURVE",
"283 58 LINE"
);
},
{
closed = 1;
nodes = (
"566 700 LINE",
"412 700 OFFCURVE",
"360 616 OFFCURVE",
"390 469 CURVE",
"491 469 LINE",
"489 516 OFFCURVE",
"540 536 OFFCURVE",
"566 536 CURVE"
);
},
{
closed = 1;
nodes = (
"606 -220 OFFCURVE",
"648 -91 OFFCURVE",
"568 -11 CURVE",
"321 -280 LINE",
"334 -293 OFFCURVE",
"334 -309 OFFCURVE",
"310 -333 CURVE",
"491 -336 LINE"
);
},
{
closed = 1;
nodes = (
"310 -333 LINE",
"276 -367 OFFCURVE",
"228 -379 OFFCURVE",
"164 -376 CURVE",
"154 -446 LINE",
"276 -470 OFFCURVE",
"396 -431 OFFCURVE",
"491 -336 CURVE"
);
},
{
closed = 1;
nodes = (
"-57 -50 OFFCURVE",
"-78 -172 OFFCURVE",
"9 -259 CURVE",
"232 13 LINE",
"219 26 OFFCURVE",
"223 46 OFFCURVE",
"242 66 CURVE",
"66 73 LINE"
);
},
{
closed = 1;
nodes = (
"242 66 LINE",
"276 100 OFFCURVE",
"323 111 OFFCURVE",
"385 106 CURVE",
"402 169 LINE",
"280 207 OFFCURVE",
"167 175 OFFCURVE",
"66 73 CURVE"
);
},
{
closed = 1;
nodes = (
"119 -369 OFFCURVE",
"286 -245 OFFCURVE",
"321 -280 CURVE",
"568 -11 LINE",
"438 119 OFFCURVE",
"273 -28 OFFCURVE",
"232 13 CURVE",
"9 -259 LINE"
);
}
);
width = 566;
}
);
leftKerningGroup = o;
leftMetricsKey = "=o";
rightKerningGroup = o;
rightMetricsKey = "=o-20";
unicode = 0067;
},
{
glyphname = h;
lastChange = "2016-08-28 11:38:27 +0000";
layers = (
{
anchors = (
{
name = bottom;
position = "{352, 0}";
},
{
name = center;
position = "{352, 275}";
},
{
name = top;
position = "{352, 550}";
}
);
layerId = "E846E39B-8E1C-41DF-9DB7-AA75C54DD1EE";
paths = (
{
closed = 1;
nodes = (
"320 0 LINE",
"320 700 LINE",
"20 700 LINE",
"20 0 LINE"
);
},
{
closed = 1;
nodes = (
"320 273 LINE",
"320 301 OFFCURVE",
"333 315 OFFCURVE",
"352 315 CURVE SMOOTH",
"372 315 OFFCURVE",
"384 301 OFFCURVE",
"384 273 CURVE",
"684 365 LINE",
"684 493 OFFCURVE",
"614 560 OFFCURVE",
"483 560 CURVE SMOOTH",
"314 560 OFFCURVE",
"226 436 OFFCURVE",
"226 273 CURVE"
);
},
{
closed = 1;
nodes = (
"384 0 LINE",
"684 0 LINE",
"684 365 LINE",
"384 273 LINE"
);
}
);
width = 704;
},
{
anchors = (
{
name = bottom;
position = "{292, 0}";
},
{
name = center;
position = "{292, 245}";
},
{
name = top;
position = "{292, 490}";
}
);
layerId = "D0758D58-6BF2-4444-AD52-30AE2E418BEE";
paths = (
{
closed = 1;
nodes = (
"90 0 LINE",
"90 700 LINE",
"70 700 LINE",
"70 0 LINE"
);
},
{
closed = 1;
nodes = (
"90 223 LINE",
"90 386 OFFCURVE",
"213 482 OFFCURVE",
"336 482 CURVE SMOOTH",
"442 482 OFFCURVE",
"504 432 OFFCURVE",
"504 300 CURVE",
"524 302 LINE",
"524 445 OFFCURVE",
"449 500 OFFCURVE",
"336 500 CURVE SMOOTH",
"204 500 OFFCURVE",
"75 396 OFFCURVE",
"75 223 CURVE"
);
},
{
closed = 1;
nodes = (
"504 0 LINE",
"524 0 LINE",
"524 302 LINE",
"504 300 LINE"
);
}
);
width = 594;
}
);
leftMetricsKey = "=n";
rightKerningGroup = n;
rightMetricsKey = "=n";
unicode = 0068;
},
{
glyphname = hbar;
lastChange = "2016-10-09 20:07:47 +0000";
layers = (
{
components = (
{
name = h;
}
);
layerId = "D0758D58-6BF2-4444-AD52-30AE2E418BEE";
paths = (
{
closed = 1;
nodes = (
"250 582 LINE",
"250 600 LINE",
"80 600 LINE",
"80 582 LINE"
);
}
);
width = 594;
},
{
components = (
{
name = h;
}
);
layerId = "E846E39B-8E1C-41DF-9DB7-AA75C54DD1EE";
paths = (
{
closed = 1;
nodes = (
"420 582 LINE",
"420 650 LINE",
"60 650 LINE",
"60 582 LINE"
);
}
);
width = 704;
}
);
leftMetricsKey = "=h";
rightKerningGroup = n;
rightMetricsKey = "=h";
unicode = 0127;
},
{
glyphname = idotless;
lastChange = "2016-09-20 20:11:50 +0000";
layers = (
{
anchors = (
{
name = bottom;
position = "{80, 0}";
},
{
name = ogonek;
position = "{90, 0}";
},
{
name = top;
position = "{80, 490}";
}
);
layerId = "D0758D58-6BF2-4444-AD52-30AE2E418BEE";
paths = (
{
closed = 1;
nodes = (
"70 0 LINE",
"90 0 LINE",
"90 490 LINE",
"70 490 LINE"
);
}
);
width = 160;
},
{
anchors = (
{
name = bottom;
position = "{170, 0}";
},
{
name = ogonek;
position = "{260, 0}";
},
{
name = top;
position = "{170, 550}";
}
);
layerId = "E846E39B-8E1C-41DF-9DB7-AA75C54DD1EE";
paths = (
{
closed = 1;
nodes = (
"20 0 LINE",
"320 0 LINE",
"320 550 LINE",
"20 550 LINE"
);
}
);
width = 340;
}
);
leftKerningGroup = n;
rightKerningGroup = n;
unicode = 0131;
},
{
glyphname = j;
lastChange = "2016-09-21 06:56:49 +0000";
layers = (
{
components = (
{
name = dotaccent;
transform = "{1, 0, 0, 1, 20, 0}";
}
);
guideLines = (
{
position = "{442, -220}";
}
);
layerId = "E846E39B-8E1C-41DF-9DB7-AA75C54DD1EE";
paths = (
{
closed = 1;
nodes = (
"230 -220 OFFCURVE",
"320 -150 OFFCURVE",
"320 50 CURVE SMOOTH",
"320 550 LINE",
"20 550 LINE",
"20 -220 LINE"
);
}
);
width = 340;
},
{
components = (
{
name = dotaccent;
transform = "{1, 0, 0, 1, 50, 0}";
}
);
layerId = "D0758D58-6BF2-4444-AD52-30AE2E418BEE";
paths = (
{
closed = 1;
nodes = (
"80 -200 OFFCURVE",
"90 -190 OFFCURVE",
"90 -180 CURVE SMOOTH",
"90 490 LINE",
"70 490 LINE",
"70 -200 LINE"
);
}
);
width = 160;
},
{
associatedMasterId = "E846E39B-8E1C-41DF-9DB7-AA75C54DD1EE";
layerId = "C1F02E1A-0CEE-4C3F-8B31-7785E2794F5D";
name = "Bold Jun 18 16, 16:09";
paths = (
{
closed = 1;
nodes = (
"20 90 LINE",
"320 70 LINE",
"320 550 LINE",
"20 550 LINE"
);
},
{
closed = 1;
nodes = (
"20 41 OFFCURVE",
"-7 2 OFFCURVE",
"-54 -10 CURVE",
"-54 -200 LINE",
"158 -200 OFFCURVE",
"320 -140 OFFCURVE",
"320 70 CURVE",
"20 90 LINE"
);
},
{
closed = 1;
nodes = (
"281 599 OFFCURVE",
"334 661 OFFCURVE",
"320 714 CURVE SMOOTH",
"306 767 OFFCURVE",
"229 793 OFFCURVE",
"149 772 CURVE SMOOTH",
"69 751 OFFCURVE",
"16 689 OFFCURVE",
"30 636 CURVE SMOOTH",
"44 583 OFFCURVE",
"121 557 OFFCURVE",
"201 578 CURVE SMOOTH"
);
}
);
width = 342;
},
{
associatedMasterId = "E846E39B-8E1C-41DF-9DB7-AA75C54DD1EE";
layerId = "2E807BA8-B233-45A7-B1EC-A8CDF816F2D0";
name = "Bold Jun 18 16, 16:09 Jun 18 16, 16:09";
paths = (
{
closed = 1;
nodes = (
"20 90 LINE",
"320 70 LINE",
"320 550 LINE",
"20 550 LINE"
);
},
{
closed = 1;
nodes = (
"20 41 OFFCURVE",
"-7 2 OFFCURVE",
"-54 -10 CURVE",
"-54 -200 LINE",
"158 -200 OFFCURVE",
"320 -140 OFFCURVE",
"320 70 CURVE",
"20 90 LINE"
);
},
{
closed = 1;
nodes = (
"281 599 OFFCURVE",
"334 661 OFFCURVE",
"320 714 CURVE SMOOTH",
"306 767 OFFCURVE",
"229 793 OFFCURVE",
"149 772 CURVE SMOOTH",
"69 751 OFFCURVE",
"16 689 OFFCURVE",
"30 636 CURVE SMOOTH",
"44 583 OFFCURVE",
"121 557 OFFCURVE",
"201 578 CURVE SMOOTH"
);
}
);
width = 342;
},
{
associatedMasterId = "E846E39B-8E1C-41DF-9DB7-AA75C54DD1EE";
layerId = "E1A41507-2D3E-4C6C-8441-1BEBB3E549A5";
name = "Bold Jun 18 16, 16:09";
paths = (
{
closed = 1;
nodes = (
"20 -150 LINE",
"320 -20 LINE",
"320 550 LINE",
"20 550 LINE"
);
},
{
closed = 1;
nodes = (
"281 599 OFFCURVE",
"334 661 OFFCURVE",
"320 714 CURVE SMOOTH",
"306 767 OFFCURVE",
"229 793 OFFCURVE",
"149 772 CURVE SMOOTH",
"69 751 OFFCURVE",
"16 689 OFFCURVE",
"30 636 CURVE SMOOTH",
"44 583 OFFCURVE",
"121 557 OFFCURVE",
"201 578 CURVE SMOOTH"
);
}
);
width = 342;
}
);
leftMetricsKey = "=i";
rightKerningGroup = n;
rightMetricsKey = "=i";
unicode = 006A;
},
{
glyphname = k;
lastChange = "2016-08-28 11:38:27 +0000";
layers = (
{
anchors = (
{
name = bottom;
position = "{375, 0}";
},
{
name = top;
position = "{355, 550}";
}
);
layerId = "E846E39B-8E1C-41DF-9DB7-AA75C54DD1EE";
paths = (
{
closed = 1;
nodes = (
"20 0 LINE",
"320 0 LINE",
"320 700 LINE",
"20 700 LINE"
);
},
{
closed = 1;
nodes = (
"551 329 LINE",
"710 550 LINE",
"470 550 LINE",
"280 290 LINE"
);
},
{
closed = 1;
nodes = (
"280 290 LINE",
"302 117 OFFCURVE",
"390 -20 OFFCURVE",
"578 -20 CURVE SMOOTH",
"621 -20 OFFCURVE",
"663 -13 OFFCURVE",
"700 0 CURVE",
"700 230 LINE",
"683 225 OFFCURVE",
"667 222 OFFCURVE",
"652 222 CURVE SMOOTH",
"591 222 OFFCURVE",
"551 265 OFFCURVE",
"551 329 CURVE"
);
}
);
width = 710;
},
{
anchors = (
{
name = bottom;
position = "{240, 0}";
},
{
name = top;
position = "{70, 490}";
}
);
layerId = "D0758D58-6BF2-4444-AD52-30AE2E418BEE";
paths = (
{
closed = 1;
nodes = (
"70 0 LINE",
"90 0 LINE",
"90 700 LINE",
"70 700 LINE"
);
},
{
closed = 1;
nodes = (
"211 267 LINE",
"457 490 LINE",
"432 490 LINE",
"190 270 LINE"
);
},
{
closed = 1;
nodes = (
"190 270 LINE",
"230 105 OFFCURVE",
"327 -10 OFFCURVE",
"447 -10 CURVE SMOOTH",
"467 -10 OFFCURVE",
"493 -8 OFFCURVE",
"530 5 CURVE",
"530 23 LINE",
"493 9 OFFCURVE",
"463 8 OFFCURVE",
"449 8 CURVE SMOOTH",
"333 8 OFFCURVE",
"250 118 OFFCURVE",
"211 267 CURVE"
);
}
);
width = 540;
},
{
associatedMasterId = "E846E39B-8E1C-41DF-9DB7-AA75C54DD1EE";
layerId = "BEA024D2-A00F-4F47-9F89-1135B293DE5D";
name = "Bold Jun 18 16, 14:55";
paths = (
{
closed = 1;
nodes = (
"20 0 LINE",
"320 0 LINE",
"320 700 LINE",
"20 700 LINE"
);
},
{
closed = 1;
nodes = (
"430 0 LINE",
"750 0 LINE",
"551 329 LINE",
"280 270 LINE"
);
},
{
closed = 1;
nodes = (
"551 329 LINE",
"710 550 LINE",
"460 550 LINE",
"280 270 LINE"
);
}
);
width = 700;
}
);
leftMetricsKey = "=l";
rightKerningGroup = k;
rightMetricsKey = "=r";
unicode = 006B;
},
{
glyphname = l;
lastChange = "2016-08-28 11:38:27 +0000";
layers = (
{
anchors = (
{
name = bottom;
position = "{170, 0}";
},
{
name = center;
position = "{170, 275}";
},
{
name = top;
position = "{170, 680}";
},
{
name = topright;
position = "{320, 550}";
}
);
layerId = "E846E39B-8E1C-41DF-9DB7-AA75C54DD1EE";
paths = (
{
closed = 1;
nodes = (
"20 0 LINE",
"320 0 LINE",
"320 700 LINE",
"20 700 LINE"
);
}
);
width = 340;
},
{
anchors = (
{
name = bottom;
position = "{80, 0}";
},
{
name = center;
position = "{80, 245}";
},
{
name = top;
position = "{80, 660}";
},
{
name = topright;
position = "{140, 490}";
}
);
layerId = "D0758D58-6BF2-4444-AD52-30AE2E418BEE";
paths = (
{
closed = 1;
nodes = (
"70 0 LINE",
"90 0 LINE",
"90 700 LINE",
"70 700 LINE"
);
}
);
width = 160;
}
);
leftMetricsKey = "=n";
rightMetricsKey = "=n";
unicode = 006C;
},
{
glyphname = lslash;
lastChange = "2016-09-22 10:34:37 +0000";
layers = (
{
components = (
{
name = l;
transform = "{1, 0, 0, 1, 84, 0}";
}
);
guideLines = (
{
angle = 27.4744;
position = "{297, 470}";
}
);
layerId = "D0758D58-6BF2-4444-AD52-30AE2E418BEE";
paths = (
{
closed = 1;
nodes = (
"297 449 LINE",
"297 470 LINE",
"30 331 LINE",
"30 310 LINE"
);
}
);
width = 317;
},
{
components = (
{
name = l;
transform = "{1, 0, 0, 1, 40, 0}";
}
);
guideLines = (
{
angle = 27.4744;
position = "{417, 570}";
}
);
layerId = "E846E39B-8E1C-41DF-9DB7-AA75C54DD1EE";
paths = (
{
closed = 1;
nodes = (
"417 319 LINE",
"417 540 LINE",
"10 328 LINE",
"10 107 LINE"
);
}
);
width = 427;
}
);
leftMetricsKey = "=|t";
rightKerningGroup = r;
unicode = 0142;
},
{
glyphname = m;
lastChange = "2016-08-28 11:38:27 +0000";
layers = (
{
layerId = "E846E39B-8E1C-41DF-9DB7-AA75C54DD1EE";
paths = (
{
closed = 1;
nodes = (
"320 273 LINE",
"320 301 OFFCURVE",
"329 315 OFFCURVE",
"347 315 CURVE SMOOTH",
"366 315 OFFCURVE",
"374 301 OFFCURVE",
"374 273 CURVE",
"674 365 LINE",
"674 493 OFFCURVE",
"609 560 OFFCURVE",
"478 560 CURVE SMOOTH",
"299 560 OFFCURVE",
"206 436 OFFCURVE",
"206 273 CURVE"
);
},
{
closed = 1;
nodes = (
"320 283 LINE",
"320 350 LINE",
"240 550 LINE",
"20 550 LINE",
"20 0 LINE",
"320 0 LINE"
);
},
{
closed = 1;
nodes = (
"374 0 LINE",
"674 0 LINE",
"674 365 LINE",
"374 273 LINE"
);
},
{
closed = 1;
nodes = (
"674 273 LINE",
"674 301 OFFCURVE",
"683 315 OFFCURVE",
"701 315 CURVE SMOOTH",
"720 315 OFFCURVE",
"728 301 OFFCURVE",
"728 273 CURVE",
"1028 365 LINE",
"1028 493 OFFCURVE",
"963 560 OFFCURVE",
"832 560 CURVE SMOOTH",
"653 560 OFFCURVE",
"560 436 OFFCURVE",
"560 273 CURVE"
);
},
{
closed = 1;
nodes = (
"728 0 LINE",
"1028 0 LINE",
"1028 365 LINE",
"728 273 LINE"
);
}
);
width = 1048;
},
{
layerId = "D0758D58-6BF2-4444-AD52-30AE2E418BEE";
paths = (
{
closed = 1;
nodes = (
"90 223 LINE",
"90 386 OFFCURVE",
"213 482 OFFCURVE",
"326 482 CURVE SMOOTH",
"432 482 OFFCURVE",
"484 432 OFFCURVE",
"484 300 CURVE",
"504 302 LINE",
"504 445 OFFCURVE",
"439 500 OFFCURVE",
"326 500 CURVE SMOOTH",
"204 500 OFFCURVE",
"75 396 OFFCURVE",
"75 223 CURVE"
);
},
{
closed = 1;
nodes = (
"90 223 LINE",
"90 280 LINE",
"86 490 LINE",
"70 490 LINE",
"70 0 LINE",
"90 0 LINE"
);
},
{
closed = 1;
nodes = (
"484 0 LINE",
"504 0 LINE",
"504 302 LINE",
"484 300 LINE"
);
},
{
closed = 1;
nodes = (
"504 223 LINE",
"504 386 OFFCURVE",
"627 482 OFFCURVE",
"740 482 CURVE SMOOTH",
"846 482 OFFCURVE",
"898 432 OFFCURVE",
"898 300 CURVE",
"918 302 LINE",
"918 445 OFFCURVE",
"853 500 OFFCURVE",
"740 500 CURVE SMOOTH",
"618 500 OFFCURVE",
"489 396 OFFCURVE",
"489 223 CURVE"
);
},
{
closed = 1;
nodes = (
"898 0 LINE",
"918 0 LINE",
"918 302 LINE",
"898 300 LINE"
);
}
);
width = 988;
}
);
leftKerningGroup = n;
leftMetricsKey = "=n";
rightKerningGroup = n;
rightMetricsKey = "=n";
unicode = 006D;
},
{
glyphname = n;
lastChange = "2016-08-28 11:38:27 +0000";
layers = (
{
anchors = (
{
name = bottom;
position = "{352, 0}";
},
{
name = top;
position = "{352, 550}";
}
);
layerId = "E846E39B-8E1C-41DF-9DB7-AA75C54DD1EE";
paths = (
{
closed = 1;
nodes = (
"320 273 LINE",
"320 301 OFFCURVE",
"333 315 OFFCURVE",
"352 315 CURVE SMOOTH",
"372 315 OFFCURVE",
"384 301 OFFCURVE",
"384 273 CURVE",
"684 365 LINE",
"684 493 OFFCURVE",
"614 560 OFFCURVE",
"483 560 CURVE SMOOTH",
"314 560 OFFCURVE",
"226 436 OFFCURVE",
"226 273 CURVE"
);
},
{
closed = 1;
nodes = (
"320 283 LINE",
"320 350 LINE",
"240 550 LINE",
"20 550 LINE",
"20 0 LINE",
"320 0 LINE"
);
},
{
closed = 1;
nodes = (
"384 0 LINE",
"684 0 LINE",
"684 365 LINE",
"384 273 LINE"
);
}
);
width = 704;
},
{
anchors = (
{
name = bottom;
position = "{292, 0}";
},
{
name = top;
position = "{292, 490}";
}
);
guideLines = (
{
position = "{314, 500}";
}
);
layerId = "D0758D58-6BF2-4444-AD52-30AE2E418BEE";
paths = (
{
closed = 1;
nodes = (
"90 223 LINE",
"90 386 OFFCURVE",
"213 482 OFFCURVE",
"336 482 CURVE SMOOTH",
"442 482 OFFCURVE",
"504 432 OFFCURVE",
"504 300 CURVE",
"524 302 LINE",
"524 445 OFFCURVE",
"449 500 OFFCURVE",
"336 500 CURVE SMOOTH",
"204 500 OFFCURVE",
"75 396 OFFCURVE",
"75 223 CURVE"
);
},
{
closed = 1;
nodes = (
"90 223 LINE",
"90 280 LINE",
"86 490 LINE",
"70 490 LINE",
"70 0 LINE",
"90 0 LINE"
);
},
{
closed = 1;
nodes = (
"504 0 LINE",
"524 0 LINE",
"524 302 LINE",
"504 300 LINE"
);
}
);
width = 594;
}
);
leftKerningGroup = n;
rightKerningGroup = n;
unicode = 006E;
},
{
glyphname = eng;
lastChange = "2016-08-28 11:35:38 +0000";
layers = (
{
anchors = (
{
name = bottom;
position = "{292, 0}";
},
{
name = top;
position = "{292, 490}";
}
);
layerId = "D0758D58-6BF2-4444-AD52-30AE2E418BEE";
paths = (
{
closed = 1;
nodes = (
"514 -200 OFFCURVE",
"524 -190 OFFCURVE",
"524 -180 CURVE SMOOTH",
"524 90 LINE",
"504 90 LINE",
"504 -200 LINE"
);
},
{
closed = 1;
nodes = (
"90 223 LINE",
"90 386 OFFCURVE",
"213 482 OFFCURVE",
"336 482 CURVE SMOOTH",
"442 482 OFFCURVE",
"504 432 OFFCURVE",
"504 300 CURVE",
"524 302 LINE",
"524 445 OFFCURVE",
"449 500 OFFCURVE",
"336 500 CURVE SMOOTH",
"204 500 OFFCURVE",
"75 396 OFFCURVE",
"75 223 CURVE"
);
},
{
closed = 1;
nodes = (
"90 223 LINE",
"90 280 LINE",
"86 490 LINE",
"70 490 LINE",
"70 0 LINE",
"90 0 LINE"
);
},
{
closed = 1;
nodes = (
"504 90 LINE",
"524 90 LINE",
"524 302 LINE",
"504 300 LINE"
);
}
);
width = 594;
},
{
anchors = (
{
name = bottom;
position = "{352, 0}";
},
{
name = top;
position = "{352, 550}";
}
);
layerId = "E846E39B-8E1C-41DF-9DB7-AA75C54DD1EE";
paths = (
{
closed = 1;
nodes = (
"594 -200 OFFCURVE",
"684 -130 OFFCURVE",
"684 70 CURVE SMOOTH",
"684 150 LINE",
"384 150 LINE",
"384 -200 LINE"
);
},
{
closed = 1;
nodes = (
"320 273 LINE",
"320 301 OFFCURVE",
"333 315 OFFCURVE",
"352 315 CURVE SMOOTH",
"372 315 OFFCURVE",
"384 301 OFFCURVE",
"384 273 CURVE",
"684 365 LINE",
"684 493 OFFCURVE",
"614 560 OFFCURVE",
"483 560 CURVE SMOOTH",
"314 560 OFFCURVE",
"226 436 OFFCURVE",
"226 273 CURVE"
);
},
{
closed = 1;
nodes = (
"320 283 LINE",
"320 350 LINE",
"240 550 LINE",
"20 550 LINE",
"20 0 LINE",
"320 0 LINE"
);
},
{
closed = 1;
nodes = (
"384 150 LINE",
"684 150 LINE",
"684 365 LINE",
"384 273 LINE"
);
}
);
width = 704;
}
);
leftKerningGroup = n;
leftMetricsKey = "=n";
rightKerningGroup = n;
rightMetricsKey = "=n";
unicode = 014B;
},
{
glyphname = o;
lastChange = "2016-09-17 04:59:57 +0000";
layers = (
{
anchors = (
{
name = bottom;
position = "{325, 0}";
},
{
name = center;
position = "{325, 275}";
},
{
name = ogonek;
position = "{585, 10}";
},
{
name = top;
position = "{325, 550}";
},
{
name = topright;
position = "{630, 550}";
}
);
layerId = "E846E39B-8E1C-41DF-9DB7-AA75C54DD1EE";
paths = (
{
closed = 1;
nodes = (
"141 570 OFFCURVE",
"10 438 OFFCURVE",
"10 275 CURVE SMOOTH",
"10 112 OFFCURVE",
"141 -20 OFFCURVE",
"325 -20 CURVE SMOOTH",
"509 -20 OFFCURVE",
"640 112 OFFCURVE",
"640 275 CURVE SMOOTH",
"640 438 OFFCURVE",
"509 570 OFFCURVE",
"325 570 CURVE SMOOTH"
);
},
{
closed = 1;
nodes = (
"297 225 OFFCURVE",
"275 247 OFFCURVE",
"275 275 CURVE SMOOTH",
"275 303 OFFCURVE",
"297 325 OFFCURVE",
"325 325 CURVE SMOOTH",
"353 325 OFFCURVE",
"375 303 OFFCURVE",
"375 275 CURVE SMOOTH",
"375 247 OFFCURVE",
"353 225 OFFCURVE",
"325 225 CURVE SMOOTH"
);
}
);
width = 650;
},
{
anchors = (
{
name = bottom;
position = "{295, 0}";
},
{
name = center;
position = "{295, 245}";
},
{
name = ogonek;
position = "{531, 10}";
},
{
name = top;
position = "{295, 490}";
},
{
name = topright;
position = "{570, 490}";
}
);
layerId = "D0758D58-6BF2-4444-AD52-30AE2E418BEE";
paths = (
{
closed = 1;
nodes = (
"146 500 OFFCURVE",
"40 383 OFFCURVE",
"40 245 CURVE SMOOTH",
"40 107 OFFCURVE",
"146 -10 OFFCURVE",
"295 -10 CURVE SMOOTH",
"443 -10 OFFCURVE",
"550 107 OFFCURVE",
"550 245 CURVE SMOOTH",
"550 383 OFFCURVE",
"443 500 OFFCURVE",
"295 500 CURVE SMOOTH"
);
},
{
closed = 1;
nodes = (
"156 8 OFFCURVE",
"60 117 OFFCURVE",
"60 245 CURVE SMOOTH",
"60 373 OFFCURVE",
"156 482 OFFCURVE",
"295 482 CURVE SMOOTH",
"433 482 OFFCURVE",
"530 373 OFFCURVE",
"530 245 CURVE SMOOTH",
"530 117 OFFCURVE",
"433 8 OFFCURVE",
"295 8 CURVE SMOOTH"
);
}
);
width = 590;
}
);
leftKerningGroup = o;
rightKerningGroup = o;
unicode = 006F;
},
{
glyphname = oslash;
lastChange = "2016-08-28 11:35:38 +0000";
layers = (
{
anchors = (
{
name = bottom;
position = "{295, 0}";
},
{
name = center;
position = "{295, 245}";
},
{
name = ogonek;
position = "{531, 10}";
},
{
name = top;
position = "{295, 490}";
},
{
name = topright;
position = "{570, 490}";
}
);
layerId = "D0758D58-6BF2-4444-AD52-30AE2E418BEE";
paths = (
{
closed = 1;
nodes = (
"146 500 OFFCURVE",
"40 383 OFFCURVE",
"40 245 CURVE SMOOTH",
"40 107 OFFCURVE",
"146 -10 OFFCURVE",
"295 -10 CURVE SMOOTH",
"443 -10 OFFCURVE",
"550 107 OFFCURVE",
"550 245 CURVE SMOOTH",
"550 383 OFFCURVE",
"443 500 OFFCURVE",
"295 500 CURVE SMOOTH"
);
},
{
closed = 1;
nodes = (
"156 8 OFFCURVE",
"60 117 OFFCURVE",
"60 245 CURVE SMOOTH",
"60 373 OFFCURVE",
"156 482 OFFCURVE",
"295 482 CURVE SMOOTH",
"433 482 OFFCURVE",
"530 373 OFFCURVE",
"530 245 CURVE SMOOTH",
"530 117 OFFCURVE",
"433 8 OFFCURVE",
"295 8 CURVE SMOOTH"
);
},
{
closed = 1;
nodes = (
"79 -42 LINE",
"95 -53 LINE",
"491 512 LINE",
"475 523 LINE"
);
}
);
width = 590;
},
{
anchors = (
{
name = bottom;
position = "{325, 0}";
},
{
name = center;
position = "{325, 275}";
},
{
name = ogonek;
position = "{585, 10}";
},
{
name = top;
position = "{325, 550}";
},
{
name = topright;
position = "{630, 550}";
}
);
layerId = "E846E39B-8E1C-41DF-9DB7-AA75C54DD1EE";
paths = (
{
closed = 1;
nodes = (
"141 570 OFFCURVE",
"10 438 OFFCURVE",
"10 275 CURVE SMOOTH",
"10 112 OFFCURVE",
"141 -20 OFFCURVE",
"325 -20 CURVE SMOOTH",
"509 -20 OFFCURVE",
"640 112 OFFCURVE",
"640 275 CURVE SMOOTH",
"640 438 OFFCURVE",
"509 570 OFFCURVE",
"325 570 CURVE SMOOTH"
);
},
{
closed = 1;
nodes = (
"259 157 OFFCURVE",
"207 209 OFFCURVE",
"207 275 CURVE SMOOTH",
"207 341 OFFCURVE",
"259 393 OFFCURVE",
"325 393 CURVE SMOOTH",
"391 393 OFFCURVE",
"443 341 OFFCURVE",
"443 275 CURVE SMOOTH",
"443 209 OFFCURVE",
"391 157 OFFCURVE",
"325 157 CURVE SMOOTH"
);
},
{
closed = 1;
nodes = (
"58 6 LINE",
"164 -69 LINE",
"594 545 LINE",
"488 620 LINE"
);
}
);
width = 650;
}
);
leftKerningGroup = o;
leftMetricsKey = "=o";
rightKerningGroup = o;
rightMetricsKey = "=o";
unicode = 00F8;
},
{
glyphname = oe;
lastChange = "2016-08-28 11:35:38 +0000";
layers = (
{
anchors = (
{
name = bottom;
position = "{778, 0}";
},
{
name = center;
position = "{295, 245}";
},
{
name = ogonek;
position = "{861, 0}";
},
{
name = top;
position = "{778, 490}";
},
{
name = topright;
position = "{570, 490}";
}
);
layerId = "D0758D58-6BF2-4444-AD52-30AE2E418BEE";
paths = (
{
closed = 1;
nodes = (
"146 500 OFFCURVE",
"40 383 OFFCURVE",
"40 245 CURVE SMOOTH",
"40 107 OFFCURVE",
"146 -10 OFFCURVE",
"295 -10 CURVE SMOOTH",
"443 -10 OFFCURVE",
"547 107 OFFCURVE",
"547 245 CURVE SMOOTH",
"547 383 OFFCURVE",
"443 500 OFFCURVE",
"295 500 CURVE SMOOTH"
);
},
{
closed = 1;
nodes = (
"156 8 OFFCURVE",
"60 117 OFFCURVE",
"60 245 CURVE SMOOTH",
"60 373 OFFCURVE",
"156 482 OFFCURVE",
"295 482 CURVE SMOOTH",
"433 482 OFFCURVE",
"530 373 OFFCURVE",
"530 245 CURVE SMOOTH",
"530 117 OFFCURVE",
"433 8 OFFCURVE",
"295 8 CURVE SMOOTH"
);
},
{
closed = 1;
nodes = (
"1025 275 LINE",
"1015 291 LINE",
"542 291 LINE",
"542 275 LINE"
);
},
{
closed = 1;
nodes = (
"644 8 OFFCURVE",
"550 114 OFFCURVE",
"550 245 CURVE SMOOTH",
"550 376 OFFCURVE",
"644 482 OFFCURVE",
"785 482 CURVE SMOOTH",
"923 482 OFFCURVE",
"1005 378 OFFCURVE",
"1005 285 CURVE",
"1025 275 LINE",
"1025 388 OFFCURVE",
"933 500 OFFCURVE",
"784 500 CURVE SMOOTH",
"633 500 OFFCURVE",
"533 385 OFFCURVE",
"533 245 CURVE SMOOTH",
"533 105 OFFCURVE",
"633 -10 OFFCURVE",
"789 -10 CURVE SMOOTH",
"896 -10 OFFCURVE",
"974 49 OFFCURVE",
"1020 136 CURVE",
"1004 144 LINE",
"959 62 OFFCURVE",
"892 8 OFFCURVE",
"790 8 CURVE SMOOTH"
);
}
);
width = 1065;
},
{
anchors = (
{
name = bottom;
position = "{325, 0}";
},
{
name = center;
position = "{325, 275}";
},
{
name = ogonek;
position = "{585, 10}";
},
{
name = top;
position = "{325, 550}";
},
{
name = topright;
position = "{630, 550}";
}
);
layerId = "E846E39B-8E1C-41DF-9DB7-AA75C54DD1EE";
paths = (
{
closed = 1;
nodes = (
"135 570 OFFCURVE",
"10 438 OFFCURVE",
"10 275 CURVE SMOOTH",
"10 112 OFFCURVE",
"135 -20 OFFCURVE",
"309 -20 CURVE SMOOTH",
"483 -20 OFFCURVE",
"590 113 OFFCURVE",
"590 275 CURVE SMOOTH",
"590 437 OFFCURVE",
"483 570 OFFCURVE",
"309 570 CURVE SMOOTH"
);
},
{
closed = 1;
nodes = (
"297 225 OFFCURVE",
"275 247 OFFCURVE",
"275 275 CURVE SMOOTH",
"275 303 OFFCURVE",
"297 325 OFFCURVE",
"325 325 CURVE SMOOTH",
"353 325 OFFCURVE",
"375 303 OFFCURVE",
"375 275 CURVE SMOOTH",
"375 247 OFFCURVE",
"353 225 OFFCURVE",
"325 225 CURVE SMOOTH"
);
},
{
closed = 1;
nodes = (
"1005 265 LINE",
"860 345 LINE",
"649 345 LINE",
"649 265 LINE"
);
},
{
closed = 1;
nodes = (
"742 175 OFFCURVE",
"720 228 OFFCURVE",
"720 291 CURVE SMOOTH",
"720 365 OFFCURVE",
"750 395 OFFCURVE",
"793 395 CURVE SMOOTH",
"836 395 OFFCURVE",
"860 363 OFFCURVE",
"860 305 CURVE",
"1005 265 LINE",
"1005 448 OFFCURVE",
"882 570 OFFCURVE",
"715 570 CURVE SMOOTH",
"536 570 OFFCURVE",
"425 431 OFFCURVE",
"425 275 CURVE SMOOTH",
"425 116 OFFCURVE",
"540 -20 OFFCURVE",
"720 -20 CURVE SMOOTH",
"867 -20 OFFCURVE",
"945 70 OFFCURVE",
"986 180 CURVE",
"919 223 LINE",
"887 195 OFFCURVE",
"853 175 OFFCURVE",
"811 175 CURVE SMOOTH"
);
}
);
width = 1015;
}
);
leftKerningGroup = o;
leftMetricsKey = "=o";
rightKerningGroup = o;
rightMetricsKey = "=e";
unicode = 0153;
},
{
glyphname = thorn;
lastChange = "2016-08-28 11:35:38 +0000";
layers = (
{
layerId = "D0758D58-6BF2-4444-AD52-30AE2E418BEE";
paths = (
{
closed = 1;
nodes = (
"477 -10 OFFCURVE",
"579 107 OFFCURVE",
"579 245 CURVE SMOOTH",
"579 383 OFFCURVE",
"477 500 OFFCURVE",
"324 500 CURVE SMOOTH",
"171 500 OFFCURVE",
"73 383 OFFCURVE",
"73 245 CURVE SMOOTH",
"73 107 OFFCURVE",
"171 -10 OFFCURVE",
"324 -10 CURVE SMOOTH"
);
},
{
closed = 1;
nodes = (
"181 8 OFFCURVE",
"89 117 OFFCURVE",
"89 245 CURVE SMOOTH",
"89 373 OFFCURVE",
"181 482 OFFCURVE",
"324 482 CURVE SMOOTH",
"467 482 OFFCURVE",
"559 373 OFFCURVE",
"559 245 CURVE SMOOTH",
"559 117 OFFCURVE",
"467 8 OFFCURVE",
"324 8 CURVE SMOOTH"
);
},
{
closed = 1;
nodes = (
"90 200 LINE",
"79 275 LINE",
"90 337 LINE",
"90 700 LINE",
"70 700 LINE",
"70 -210 LINE",
"85 -210 LINE"
);
}
);
width = 619;
},
{
layerId = "E846E39B-8E1C-41DF-9DB7-AA75C54DD1EE";
paths = (
{
closed = 1;
nodes = (
"595 -10 OFFCURVE",
"707 112 OFFCURVE",
"707 275 CURVE SMOOTH",
"707 438 OFFCURVE",
"595 560 OFFCURVE",
"441 560 CURVE SMOOTH",
"298 560 OFFCURVE",
"216 438 OFFCURVE",
"216 275 CURVE SMOOTH",
"216 112 OFFCURVE",
"298 -10 OFFCURVE",
"441 -10 CURVE SMOOTH"
);
},
{
closed = 1;
nodes = (
"329 225 OFFCURVE",
"307 248 OFFCURVE",
"307 275 CURVE SMOOTH",
"307 302 OFFCURVE",
"329 325 OFFCURVE",
"357 325 CURVE SMOOTH",
"384 325 OFFCURVE",
"407 302 OFFCURVE",
"407 275 CURVE SMOOTH",
"407 248 OFFCURVE",
"384 225 OFFCURVE",
"357 225 CURVE SMOOTH"
);
},
{
closed = 1;
nodes = (
"320 200 LINE",
"289 275 LINE",
"320 337 LINE",
"320 700 LINE",
"20 700 LINE",
"20 -150 LINE",
"320 -150 LINE"
);
}
);
width = 717;
}
);
leftMetricsKey = "=l";
rightMetricsKey = "=p";
unicode = 00FE;
},
{
glyphname = r;
lastChange = "2016-09-20 20:00:54 +0000";
layers = (
{
anchors = (
{
name = bottom;
position = "{160, 0}";
},
{
name = top;
position = "{240, 550}";
}
);
layerId = "E846E39B-8E1C-41DF-9DB7-AA75C54DD1EE";
paths = (
{
closed = 1;
nodes = (
"320 125 LINE",
"320 243 OFFCURVE",
"403 295 OFFCURVE",
"480 295 CURVE",
"480 570 LINE",
"357 570 OFFCURVE",
"236 428 OFFCURVE",
"236 205 CURVE"
);
},
{
closed = 1;
nodes = (
"320 125 LINE",
"320 350 LINE",
"240 550 LINE",
"20 550 LINE",
"20 0 LINE",
"320 0 LINE"
);
}
);
width = 480;
},
{
anchors = (
{
name = bottom;
position = "{80, 0}";
},
{
name = top;
position = "{155, 490}";
}
);
layerId = "D0758D58-6BF2-4444-AD52-30AE2E418BEE";
paths = (
{
closed = 1;
nodes = (
"90 235 LINE",
"90 383 OFFCURVE",
"177 482 OFFCURVE",
"300 482 CURVE",
"300 500 LINE",
"177 500 OFFCURVE",
"80 408 OFFCURVE",
"80 245 CURVE"
);
},
{
closed = 1;
nodes = (
"90 235 LINE",
"90 290 LINE",
"80 490 LINE",
"70 490 LINE",
"70 0 LINE",
"90 0 LINE"
);
}
);
width = 310;
}
);
leftKerningGroup = n;
leftMetricsKey = "=n";
rightKerningGroup = r;
unicode = 0072;
},
{
glyphname = s;
lastChange = "2016-09-22 12:52:51 +0000";
layers = (
{
anchors = (
{
name = bottom;
position = "{306, 0}";
},
{
name = top;
position = "{306, 550}";
}
);
guideLines = (
{
angle = 40.6749;
position = "{523, 388}";
},
{
angle = 40.6749;
position = "{312, 388}";
}
);
layerId = "E846E39B-8E1C-41DF-9DB7-AA75C54DD1EE";
paths = (
{
closed = 1;
nodes = (
"587 443 LINE",
"523 519 OFFCURVE",
"437 570 OFFCURVE",
"306 570 CURVE SMOOTH",
"147 570 OFFCURVE",
"30 498 OFFCURVE",
"30 377 CURVE SMOOTH",
"30 215 OFFCURVE",
"236 201 OFFCURVE",
"236 150 CURVE SMOOTH",
"236 138 OFFCURVE",
"224 125 OFFCURVE",
"190 125 CURVE SMOOTH",
"143 125 OFFCURVE",
"110 149 OFFCURVE",
"70 180 CURVE",
"0 120 LINE",
"80 36 OFFCURVE",
"167 -20 OFFCURVE",
"320 -20 CURVE SMOOTH",
"482 -20 OFFCURVE",
"601 42 OFFCURVE",
"601 164 CURVE SMOOTH",
"601 331 OFFCURVE",
"380 355 OFFCURVE",
"380 402 CURVE SMOOTH",
"380 415 OFFCURVE",
"398 430 OFFCURVE",
"433 430 CURVE SMOOTH",
"465 430 OFFCURVE",
"497 412 OFFCURVE",
"523 388 CURVE"
);
}
);
width = 621;
},
{
anchors = (
{
name = bottom;
position = "{223, 0}";
},
{
name = top;
position = "{223, 490}";
}
);
layerId = "D0758D58-6BF2-4444-AD52-30AE2E418BEE";
paths = (
{
closed = 1;
nodes = (
"69 444 OFFCURVE",
"134 482 OFFCURVE",
"225 482 CURVE SMOOTH",
"283 482 OFFCURVE",
"339 467 OFFCURVE",
"392 423 CURVE",
"403 436 LINE",
"349 481 OFFCURVE",
"291 500 OFFCURVE",
"226 500 CURVE SMOOTH",
"126 500 OFFCURVE",
"49 455 OFFCURVE",
"49 370 CURVE SMOOTH",
"49 190 OFFCURVE",
"395 290 OFFCURVE",
"395 117 CURVE SMOOTH",
"395 36 OFFCURVE",
"319 8 OFFCURVE",
"238 8 CURVE SMOOTH",
"156 8 OFFCURVE",
"101 36 OFFCURVE",
"43 88 CURVE",
"30 74 LINE",
"92 20 OFFCURVE",
"150 -10 OFFCURVE",
"238 -10 CURVE SMOOTH",
"335 -10 OFFCURVE",
"415 26 OFFCURVE",
"415 118 CURVE SMOOTH",
"415 309 OFFCURVE",
"69 207 OFFCURVE",
"69 372 CURVE SMOOTH"
);
}
);
width = 465;
},
{
associatedMasterId = "D0758D58-6BF2-4444-AD52-30AE2E418BEE";
layerId = "D9F38500-5564-4C77-86C3-FC7CDAB2F2B8";
name = "Light Jul 5 16, 10:55";
paths = (
{
closed = 1;
nodes = (
"380 -10 OFFCURVE",
"491 22 OFFCURVE",
"491 115 CURVE",
"471 115 LINE",
"471 32 OFFCURVE",
"370 10 OFFCURVE",
"276 10 CURVE",
"276 -10 LINE"
);
},
{
closed = 1;
nodes = (
"276 10 LINE",
"202 10 OFFCURVE",
"133 22 OFFCURVE",
"60 100 CURVE",
"40 80 LINE",
"120 -3 OFFCURVE",
"202 -10 OFFCURVE",
"276 -10 CURVE"
);
},
{
closed = 1;
nodes = (
"171 500 OFFCURVE",
"70 458 OFFCURVE",
"70 365 CURVE",
"90 365 LINE",
"90 448 OFFCURVE",
"181 480 OFFCURVE",
"275 480 CURVE",
"275 500 LINE"
);
},
{
closed = 1;
nodes = (
"275 480 LINE",
"344 480 OFFCURVE",
"403 461 OFFCURVE",
"461 400 CURVE",
"476 414 LINE",
"416 475 OFFCURVE",
"354 500 OFFCURVE",
"275 500 CURVE"
);
},
{
closed = 1;
nodes = (
"70 190 OFFCURVE",
"471 279 OFFCURVE",
"471 115 CURVE",
"491 115 LINE",
"491 299 OFFCURVE",
"90 220 OFFCURVE",
"90 365 CURVE",
"70 365 LINE"
);
}
);
width = 541;
},
{
anchors = (
{
name = bottom;
position = "{316, 0}";
},
{
name = top;
position = "{316, 550}";
}
);
annotations = (
{
position = "{74, 438}";
type = Circle;
width = 30;
}
);
associatedMasterId = "E846E39B-8E1C-41DF-9DB7-AA75C54DD1EE";
layerId = "A9A1BA11-060B-427C-8232-A4646661ED67";
name = "Bold Aug 6 16, 17:31";
paths = (
{
closed = 1;
nodes = (
"390 416 OFFCURVE",
"407 430 OFFCURVE",
"436 430 CURVE SMOOTH",
"482 430 OFFCURVE",
"524 395 OFFCURVE",
"564 347 CURVE",
"621 400 LINE",
"560 512 OFFCURVE",
"453 570 OFFCURVE",
"313 570 CURVE SMOOTH",
"158 570 OFFCURVE",
"40 498 OFFCURVE",
"40 377 CURVE SMOOTH",
"40 216 OFFCURVE",
"246 204 OFFCURVE",
"246 147 CURVE SMOOTH",
"246 133 OFFCURVE",
"234 120 OFFCURVE",
"203 120 CURVE SMOOTH",
"152 120 OFFCURVE",
"110 155 OFFCURVE",
"67 203 CURVE",
"10 140 LINE",
"90 26 OFFCURVE",
"196 -20 OFFCURVE",
"333 -20 CURVE SMOOTH",
"491 -20 OFFCURVE",
"611 42 OFFCURVE",
"611 164 CURVE SMOOTH",
"611 330 OFFCURVE",
"390 338 OFFCURVE",
"390 399 CURVE SMOOTH"
);
}
);
width = 631;
}
);
leftKerningGroup = o;
leftMetricsKey = "=o-10";
rightKerningGroup = o;
rightMetricsKey = "=o+10";
unicode = 0073;
},
{
glyphname = germandbls;
lastChange = "2016-10-08 18:52:58 +0000";
layers = (
{
layerId = "D0758D58-6BF2-4444-AD52-30AE2E418BEE";
paths = (
{
closed = 1;
nodes = (
"419 457 OFFCURVE",
"494 478 OFFCURVE",
"494 580 CURVE SMOOTH",
"494 680 OFFCURVE",
"430 733 OFFCURVE",
"322 733 CURVE SMOOTH",
"190 733 OFFCURVE",
"70 640 OFFCURVE",
"70 450 CURVE SMOOTH",
"70 0 LINE",
"90 0 LINE",
"90 450 LINE",
"90 633 OFFCURVE",
"200 715 OFFCURVE",
"321 715 CURVE SMOOTH",
"421 715 OFFCURVE",
"474 670 OFFCURVE",
"474 581 CURVE SMOOTH",
"474 482 OFFCURVE",
"399 467 OFFCURVE",
"399 378 CURVE SMOOTH",
"399 244 OFFCURVE",
"575 267 OFFCURVE",
"575 132 CURVE SMOOTH",
"575 53 OFFCURVE",
"519 8 OFFCURVE",
"438 8 CURVE SMOOTH",
"379 8 OFFCURVE",
"326 32 OFFCURVE",
"263 88 CURVE",
"250 74 LINE",
"318 15 OFFCURVE",
"374 -10 OFFCURVE",
"439 -10 CURVE SMOOTH",
"534 -10 OFFCURVE",
"595 44 OFFCURVE",
"595 134 CURVE SMOOTH",
"595 282 OFFCURVE",
"419 256 OFFCURVE",
"419 379 CURVE SMOOTH"
);
}
);
width = 645;
},
{
anchors = (
{
name = bottom;
position = "{176, 0}";
},
{
name = top;
position = "{176, 550}";
}
);
layerId = "E846E39B-8E1C-41DF-9DB7-AA75C54DD1EE";
paths = (
{
closed = 1;
nodes = (
"615 480 OFFCURVE",
"670 505 OFFCURVE",
"670 588 CURVE SMOOTH",
"670 693 OFFCURVE",
"581 772 OFFCURVE",
"403 772 CURVE SMOOTH",
"213 772 OFFCURVE",
"20 682 OFFCURVE",
"20 450 CURVE SMOOTH",
"20 0 LINE",
"290 0 LINE",
"290 470 LINE SMOOTH",
"290 561 OFFCURVE",
"330 604 OFFCURVE",
"375 604 CURVE SMOOTH",
"405 604 OFFCURVE",
"420 584 OFFCURVE",
"420 551 CURVE SMOOTH",
"420 480 OFFCURVE",
"350 457 OFFCURVE",
"350 370 CURVE SMOOTH",
"350 241 OFFCURVE",
"506 212 OFFCURVE",
"506 148 CURVE SMOOTH",
"506 132 OFFCURVE",
"497 120 OFFCURVE",
"471 120 CURVE SMOOTH",
"439 120 OFFCURVE",
"411 138 OFFCURVE",
"387 163 CURVE",
"330 100 LINE",
"398 17 OFFCURVE",
"471 -20 OFFCURVE",
"571 -20 CURVE SMOOTH",
"703 -20 OFFCURVE",
"781 44 OFFCURVE",
"781 156 CURVE SMOOTH",
"781 319 OFFCURVE",
"615 326 OFFCURVE",
"615 424 CURVE SMOOTH"
);
}
);
width = 801;
}
);
leftMetricsKey = "=f";
rightKerningGroup = o;
rightMetricsKey = "=s";
unicode = 00DF;
},
{
glyphname = t;
lastChange = "2016-09-20 19:34:23 +0000";
layers = (
{
anchors = (
{
name = bottom;
position = "{246, 0}";
},
{
name = center;
position = "{226, 275}";
},
{
name = top;
position = "{226, 550}";
},
{
name = topright;
position = "{431, 550}";
}
);
guideLines = (
{
angle = 27.4744;
position = "{170, 628}";
}
);
layerId = "E846E39B-8E1C-41DF-9DB7-AA75C54DD1EE";
paths = (
{
closed = 1;
nodes = (
"350 -20 OFFCURVE",
"397 -15 OFFCURVE",
"441 0 CURVE",
"441 186 LINE",
"430 184 OFFCURVE",
"421 183 OFFCURVE",
"412 183 CURVE SMOOTH",
"331 183 OFFCURVE",
"320 252 OFFCURVE",
"320 296 CURVE",
"20 266 LINE",
"20 46 OFFCURVE",
"158 -19 OFFCURVE",
"304 -20 CURVE SMOOTH"
);
},
{
closed = 1;
nodes = (
"320 296 LINE",
"320 706 LINE",
"20 550 LINE",
"20 266 LINE"
);
},
{
closed = 1;
nodes = (
"441 330 LINE",
"441 550 LINE",
"280 550 LINE",
"280 330 LINE"
);
}
);
width = 451;
},
{
associatedMasterId = "E846E39B-8E1C-41DF-9DB7-AA75C54DD1EE";
layerId = "6A1200FE-E69A-4F5F-8FC8-C2B16D81EF5A";
name = "Regular May 18 16, 21:29";
paths = (
{
closed = 1;
nodes = (
"96 606 LINE",
"96 266 LINE",
"396 286 LINE",
"396 706 LINE"
);
},
{
closed = 1;
nodes = (
"96 266 LINE",
"96 -24 OFFCURVE",
"335 -44 OFFCURVE",
"517 -4 CURVE",
"517 176 LINE",
"410 158 OFFCURVE",
"396 237 OFFCURVE",
"396 286 CURVE"
);
},
{
closed = 1;
nodes = (
"517 550 LINE",
"20 550 LINE",
"20 330 LINE",
"517 330 LINE"
);
}
);
width = 600;
},
{
anchors = (
{
name = bottom;
position = "{221, 0}";
},
{
name = center;
position = "{191, 245}";
},
{
name = top;
position = "{191, 490}";
},
{
name = topright;
position = "{361, 490}";
}
);
guideLines = (
{
angle = 27.4744;
position = "{90, 633}";
}
);
layerId = "D0758D58-6BF2-4444-AD52-30AE2E418BEE";
paths = (
{
closed = 1;
nodes = (
"278 -10 OFFCURVE",
"315 -2 OFFCURVE",
"351 13 CURVE",
"351 31 LINE",
"314 15 OFFCURVE",
"277 8 OFFCURVE",
"247 8 CURVE SMOOTH",
"141 8 OFFCURVE",
"89 53 OFFCURVE",
"90 193 CURVE",
"70 193 LINE",
"70 43 OFFCURVE",
"132 -10 OFFCURVE",
"247 -10 CURVE SMOOTH"
);
},
{
closed = 1;
nodes = (
"90 193 LINE",
"90 633 LINE",
"70 623 LINE",
"70 193 LINE"
);
},
{
closed = 1;
nodes = (
"351 473 LINE",
"351 491 LINE",
"84 491 LINE",
"84 473 LINE"
);
}
);
width = 381;
}
);
leftKerningGroup = t;
leftMetricsKey = "=n";
rightKerningGroup = t;
unicode = 0074;
},
{
glyphname = tbar;
lastChange = "2016-08-28 11:35:38 +0000";
layers = (
{
components = (
{
name = t;
}
);
layerId = "D0758D58-6BF2-4444-AD52-30AE2E418BEE";
paths = (
{
closed = 1;
nodes = (
"330 312 LINE",
"330 330 LINE",
"80 330 LINE",
"80 312 LINE"
);
}
);
width = 381;
},
{
components = (
{
name = t;
}
);
layerId = "E846E39B-8E1C-41DF-9DB7-AA75C54DD1EE";
paths = (
{
closed = 1;
nodes = (
"441 232 LINE",
"441 300 LINE",
"181 300 LINE",
"181 232 LINE"
);
}
);
width = 451;
}
);
leftKerningGroup = t;
leftMetricsKey = "=t";
rightKerningGroup = t;
rightMetricsKey = "-t";
unicode = 0167;
},
{
glyphname = v;
lastChange = "2016-09-22 13:55:19 +0000";
layers = (
{
anchors = (
{
name = bottom;
position = "{330, 0}";
},
{
name = top;
position = "{330, 550}";
}
);
layerId = "E846E39B-8E1C-41DF-9DB7-AA75C54DD1EE";
paths = (
{
closed = 1;
nodes = (
"340 -70 LINE",
"340 398 LINE",
"260 550 LINE",
"-50 550 LINE"
);
},
{
closed = 1;
nodes = (
"410 550 LINE",
"340 398 LINE",
"340 -70 LINE",
"710 550 LINE"
);
}
);
width = 660;
},
{
anchors = (
{
name = bottom;
position = "{260, 0}";
},
{
name = top;
position = "{260, 490}";
}
);
layerId = "D0758D58-6BF2-4444-AD52-30AE2E418BEE";
paths = (
{
closed = 1;
nodes = (
"273 -30 LINE",
"273 13 LINE",
"32 490 LINE",
"10 490 LINE"
);
},
{
closed = 1;
nodes = (
"508 490 LINE",
"273 13 LINE",
"273 -30 LINE",
"530 490 LINE"
);
}
);
width = 540;
}
);
leftKerningGroup = v;
rightKerningGroup = v;
unicode = 0076;
},
{
glyphname = w;
lastChange = "2016-09-22 13:55:26 +0000";
layers = (
{
anchors = (
{
name = bottom;
position = "{450, 0}";
},
{
name = top;
position = "{450, 550}";
}
);
layerId = "E846E39B-8E1C-41DF-9DB7-AA75C54DD1EE";
paths = (
{
closed = 1;
nodes = (
"320 -70 LINE",
"340 398 LINE",
"260 550 LINE",
"-50 550 LINE"
);
},
{
closed = 1;
nodes = (
"450 550 LINE",
"340 398 LINE",
"320 -70 LINE",
"450 164 LINE"
);
},
{
closed = 1;
nodes = (
"640 550 LINE",
"560 398 LINE",
"580 -70 LINE",
"950 550 LINE"
);
},
{
closed = 1;
nodes = (
"580 -70 LINE",
"560 398 LINE",
"450 550 LINE",
"450 164 LINE"
);
}
);
width = 900;
},
{
anchors = (
{
name = bottom;
position = "{387, 0}";
},
{
name = top;
position = "{387, 490}";
}
);
layerId = "D0758D58-6BF2-4444-AD52-30AE2E418BEE";
paths = (
{
closed = 1;
nodes = (
"218 -30 LINE",
"219 20 LINE",
"30 490 LINE",
"10 490 LINE"
);
},
{
closed = 1;
nodes = (
"387 460 LINE",
"219 20 LINE",
"218 -30 LINE",
"387 410 LINE"
);
},
{
closed = 1;
nodes = (
"744 490 LINE",
"555 20 LINE",
"556 -30 LINE",
"764 490 LINE"
);
},
{
closed = 1;
nodes = (
"556 -30 LINE",
"555 20 LINE",
"387 460 LINE",
"387 410 LINE"
);
}
);
width = 774;
}
);
leftKerningGroup = w;
leftMetricsKey = "=v";
rightKerningGroup = w;
rightMetricsKey = "=v";
unicode = 0077;
},
{
glyphname = x;
lastChange = "2016-09-22 10:38:17 +0000";
layers = (
{
anchors = (
{
name = bottom;
position = "{383, 0}";
},
{
name = top;
position = "{383, 550}";
}
);
layerId = "E846E39B-8E1C-41DF-9DB7-AA75C54DD1EE";
paths = (
{
closed = 1;
nodes = (
"355 0 LINE",
"735 0 LINE",
"406 550 LINE",
"16 550 LINE"
);
},
{
closed = 1;
nodes = (
"518 550 LINE",
"341 236 LINE",
"582 236 LINE",
"756 550 LINE"
);
},
{
closed = 1;
nodes = (
"176 314 LINE",
"10 0 LINE",
"251 0 LINE",
"415 314 LINE"
);
}
);
width = 766;
},
{
anchors = (
{
name = bottom;
position = "{240, 0}";
},
{
name = top;
position = "{240, 490}";
}
);
guideLines = (
{
angle = 90;
position = "{31, 490}";
}
);
layerId = "D0758D58-6BF2-4444-AD52-30AE2E418BEE";
paths = (
{
closed = 1;
nodes = (
"432 0 LINE",
"456 0 LINE",
"59 490 LINE",
"35 490 LINE"
);
},
{
closed = 1;
nodes = (
"422 490 LINE",
"227 251 LINE",
"251 251 LINE",
"444 490 LINE"
);
},
{
closed = 1;
nodes = (
"227 251 LINE",
"25 0 LINE",
"47 0 LINE",
"251 251 LINE"
);
}
);
width = 480;
}
);
unicode = 0078;
},
{
glyphname = y;
lastChange = "2016-09-22 13:53:06 +0000";
layers = (
{
anchors = (
{
name = bottom;
position = "{330, 0}";
},
{
name = top;
position = "{330, 550}";
}
);
layerId = "E846E39B-8E1C-41DF-9DB7-AA75C54DD1EE";
paths = (
{
closed = 1;
nodes = (
"314 -150 LINE",
"710 550 LINE",
"410 550 LINE",
"340 398 LINE",
"11 -150 LINE"
);
},
{
closed = 1;
nodes = (
"340 398 LINE",
"260 550 LINE",
"-50 550 LINE",
"194 131 LINE"
);
}
);
width = 660;
},
{
anchors = (
{
name = bottom;
position = "{250, 0}";
},
{
name = top;
position = "{250, 490}";
}
);
layerId = "D0758D58-6BF2-4444-AD52-30AE2E418BEE";
paths = (
{
closed = 1;
nodes = (
"149 -210 LINE",
"510 490 LINE",
"488 490 LINE",
"265 56 LINE",
"127 -210 LINE"
);
},
{
closed = 1;
nodes = (
"265 56 LINE",
"32 490 LINE",
"10 490 LINE",
"260 22 LINE"
);
}
);
width = 520;
}
);
leftKerningGroup = v;
leftMetricsKey = "=v";
rightKerningGroup = v;
rightMetricsKey = "=v";
unicode = 0079;
},
{
glyphname = z;
lastChange = "2016-10-08 18:56:16 +0000";
layers = (
{
anchors = (
{
name = bottom;
position = "{335, 0}";
},
{
name = top;
position = "{335, 550}";
}
);
layerId = "E846E39B-8E1C-41DF-9DB7-AA75C54DD1EE";
paths = (
{
closed = 1;
nodes = (
"40 330 LINE",
"200 330 LINE",
"-10 0 LINE",
"630 0 LINE",
"630 220 LINE",
"440 220 LINE",
"650 550 LINE",
"40 550 LINE"
);
}
);
width = 650;
},
{
anchors = (
{
name = bottom;
position = "{255, 0}";
},
{
name = top;
position = "{255, 490}";
}
);
layerId = "D0758D58-6BF2-4444-AD52-30AE2E418BEE";
paths = (
{
closed = 1;
nodes = (
"50 472 LINE",
"429 472 LINE",
"20 0 LINE",
"470 0 LINE",
"470 18 LINE",
"61 18 LINE",
"470 490 LINE",
"50 490 LINE"
);
}
);
width = 500;
}
);
leftKerningGroup = z;
rightKerningGroup = z;
unicode = 007A;
},
{
glyphname = zero;
lastChange = "2016-09-22 10:50:44 +0000";
layers = (
{
layerId = "D0758D58-6BF2-4444-AD52-30AE2E418BEE";
paths = (
{
closed = 1;
nodes = (
"443 -10 OFFCURVE",
"560 96 OFFCURVE",
"560 245 CURVE SMOOTH",
"560 393 OFFCURVE",
"443 500 OFFCURVE",
"305 500 CURVE SMOOTH",
"167 500 OFFCURVE",
"50 393 OFFCURVE",
"50 245 CURVE SMOOTH",
"50 96 OFFCURVE",
"167 -10 OFFCURVE",
"305 -10 CURVE SMOOTH"
);
},
{
closed = 1;
nodes = (
"177 10 OFFCURVE",
"68 106 OFFCURVE",
"68 245 CURVE SMOOTH",
"68 383 OFFCURVE",
"177 480 OFFCURVE",
"305 480 CURVE SMOOTH",
"433 480 OFFCURVE",
"542 383 OFFCURVE",
"542 245 CURVE SMOOTH",
"542 106 OFFCURVE",
"433 10 OFFCURVE",
"305 10 CURVE SMOOTH"
);
}
);
width = 610;
},
{
layerId = "E846E39B-8E1C-41DF-9DB7-AA75C54DD1EE";
paths = (
{
closed = 1;
nodes = (
"529 -20 OFFCURVE",
"680 100 OFFCURVE",
"680 275 CURVE SMOOTH",
"680 450 OFFCURVE",
"529 570 OFFCURVE",
"350 570 CURVE SMOOTH",
"171 570 OFFCURVE",
"20 450 OFFCURVE",
"20 275 CURVE SMOOTH",
"20 100 OFFCURVE",
"171 -20 OFFCURVE",
"350 -20 CURVE SMOOTH"
);
},
{
closed = 1;
nodes = (
"268 215 OFFCURVE",
"205 233 OFFCURVE",
"205 275 CURVE SMOOTH",
"205 317 OFFCURVE",
"268 334 OFFCURVE",
"350 334 CURVE SMOOTH",
"431 334 OFFCURVE",
"495 317 OFFCURVE",
"495 275 CURVE SMOOTH",
"495 233 OFFCURVE",
"431 215 OFFCURVE",
"350 215 CURVE SMOOTH"
);
}
);
width = 700;
}
);
leftKerningGroup = o;
leftMetricsKey = "=O";
rightKerningGroup = o;
rightMetricsKey = "=O";
unicode = 0030;
},
{
glyphname = one;
lastChange = "2016-09-22 10:50:48 +0000";
layers = (
{
layerId = "D0758D58-6BF2-4444-AD52-30AE2E418BEE";
paths = (
{
closed = 1;
nodes = (
"150 0 LINE",
"170 0 LINE",
"170 490 LINE",
"150 470 LINE"
);
}
);
width = 300;
},
{
layerId = "E846E39B-8E1C-41DF-9DB7-AA75C54DD1EE";
paths = (
{
closed = 1;
nodes = (
"60 0 LINE",
"370 0 LINE",
"370 600 LINE",
"60 390 LINE"
);
}
);
width = 430;
}
);
leftKerningGroup = n;
rightKerningGroup = n;
unicode = 0031;
},
{
glyphname = two;
lastChange = "2016-10-08 18:51:19 +0000";
layers = (
{
layerId = "D0758D58-6BF2-4444-AD52-30AE2E418BEE";
paths = (
{
closed = 1;
nodes = (
"421 273 OFFCURVE",
"312 200 OFFCURVE",
"20 0 CURVE",
"79 18 LINE",
"331 192 OFFCURVE",
"441 265 OFFCURVE",
"441 369 CURVE SMOOTH",
"441 444 OFFCURVE",
"383 500 OFFCURVE",
"268 500 CURVE SMOOTH",
"162 500 OFFCURVE",
"87 453 OFFCURVE",
"38 400 CURVE",
"49 387 LINE",
"106 443 OFFCURVE",
"168 482 OFFCURVE",
"266 482 CURVE SMOOTH",
"373 482 OFFCURVE",
"421 432 OFFCURVE",
"421 370 CURVE SMOOTH"
);
},
{
closed = 1;
nodes = (
"20 0 LINE",
"480 0 LINE",
"480 18 LINE",
"82 18 LINE"
);
}
);
width = 500;
},
{
layerId = "E846E39B-8E1C-41DF-9DB7-AA75C54DD1EE";
paths = (
{
closed = 1;
nodes = (
"261 245 OFFCURVE",
"161 148 OFFCURVE",
"-10 0 CURVE",
"417 180 LINE",
"542 240 OFFCURVE",
"601 316 OFFCURVE",
"601 400 CURVE SMOOTH",
"601 514 OFFCURVE",
"492 570 OFFCURVE",
"351 570 CURVE SMOOTH",
"202 570 OFFCURVE",
"91 498 OFFCURVE",
"20 390 CURVE",
"77 337 LINE",
"124 373 OFFCURVE",
"156 390 OFFCURVE",
"194 390 CURVE SMOOTH",
"230 390 OFFCURVE",
"261 374 OFFCURVE",
"261 328 CURVE SMOOTH"
);
},
{
closed = 1;
nodes = (
"-10 0 LINE",
"620 0 LINE",
"620 180 LINE",
"417 180 LINE"
);
}
);
width = 640;
}
);
leftKerningGroup = o;
rightKerningGroup = o;
unicode = 0032;
},
{
glyphname = three;
lastChange = "2016-09-22 10:50:52 +0000";
layers = (
{
layerId = "D0758D58-6BF2-4444-AD52-30AE2E418BEE";
paths = (
{
closed = 1;
nodes = (
"453 265 OFFCURVE",
"386 204 OFFCURVE",
"214 181 CURVE",
"218 165 LINE",
"395 188 OFFCURVE",
"473 255 OFFCURVE",
"473 355 CURVE SMOOTH",
"473 445 OFFCURVE",
"409 500 OFFCURVE",
"299 500 CURVE SMOOTH",
"211 500 OFFCURVE",
"140 465 OFFCURVE",
"80 420 CURVE",
"91 407 LINE",
"162 458 OFFCURVE",
"221 482 OFFCURVE",
"295 482 CURVE SMOOTH",
"399 482 OFFCURVE",
"453 435 OFFCURVE",
"453 355 CURVE SMOOTH"
);
},
{
closed = 1;
nodes = (
"488 -102 OFFCURVE",
"407 -162 OFFCURVE",
"285 -162 CURVE SMOOTH",
"207 -162 OFFCURVE",
"130 -137 OFFCURVE",
"61 -77 CURVE",
"50 -90 LINE",
"116 -151 OFFCURVE",
"199 -180 OFFCURVE",
"286 -180 CURVE SMOOTH",
"417 -180 OFFCURVE",
"508 -113 OFFCURVE",
"508 -3 CURVE SMOOTH",
"508 112 OFFCURVE",
"409 179 OFFCURVE",
"293 195 CURVE",
"284 180 LINE",
"387 166 OFFCURVE",
"488 107 OFFCURVE",
"488 -4 CURVE SMOOTH"
);
}
);
width = 558;
},
{
layerId = "E846E39B-8E1C-41DF-9DB7-AA75C54DD1EE";
paths = (
{
closed = 1;
nodes = (
"291 316 OFFCURVE",
"271 280 OFFCURVE",
"140 250 CURVE",
"173 165 LINE",
"518 213 OFFCURVE",
"591 301 OFFCURVE",
"591 399 CURVE SMOOTH",
"591 506 OFFCURVE",
"504 570 OFFCURVE",
"365 570 CURVE SMOOTH",
"233 570 OFFCURVE",
"125 513 OFFCURVE",
"50 420 CURVE",
"97 357 LINE",
"146 389 OFFCURVE",
"189 400 OFFCURVE",
"225 400 CURVE SMOOTH",
"268 400 OFFCURVE",
"291 384 OFFCURVE",
"291 349 CURVE SMOOTH"
);
},
{
closed = 1;
nodes = (
"301 33 OFFCURVE",
"264 10 OFFCURVE",
"203 10 CURVE SMOOTH",
"161 10 OFFCURVE",
"116 21 OFFCURVE",
"67 53 CURVE",
"20 -10 LINE",
"81 -100 OFFCURVE",
"195 -150 OFFCURVE",
"327 -150 CURVE SMOOTH",
"484 -150 OFFCURVE",
"620 -79 OFFCURVE",
"620 52 CURVE SMOOTH",
"620 125 OFFCURVE",
"579 269 OFFCURVE",
"283 285 CURVE",
"220 190 LINE",
"273 174 OFFCURVE",
"301 134 OFFCURVE",
"301 87 CURVE SMOOTH"
);
}
);
width = 640;
}
);
leftKerningGroup = o;
leftMetricsKey = "=zero";
rightKerningGroup = o;
rightMetricsKey = "=zero";
unicode = 0033;
},
{
glyphname = four;
lastChange = "2016-09-22 10:20:59 +0000";
layers = (
{
layerId = "D0758D58-6BF2-4444-AD52-30AE2E418BEE";
paths = (
{
closed = 1;
nodes = (
"62 18 LINE",
"410 463 LINE",
"410 -180 LINE",
"430 -180 LINE",
"430 520 LINE",
"30 10 LINE"
);
},
{
closed = 1;
nodes = (
"550 0 LINE",
"550 18 LINE",
"62 18 LINE",
"30 10 LINE",
"30 0 LINE"
);
}
);
width = 540;
},
{
layerId = "E846E39B-8E1C-41DF-9DB7-AA75C54DD1EE";
paths = (
{
closed = 1;
nodes = (
"280 160 LINE",
"390 258 LINE",
"390 -150 LINE",
"620 -150 LINE",
"620 600 LINE",
"10 70 LINE"
);
},
{
closed = 1;
nodes = (
"690 0 LINE",
"690 160 LINE",
"280 160 LINE",
"10 70 LINE",
"10 0 LINE"
);
}
);
width = 700;
}
);
leftKerningGroup = A;
unicode = 0034;
},
{
glyphname = five;
lastChange = "2016-09-22 10:50:57 +0000";
layers = (
{
layerId = "D0758D58-6BF2-4444-AD52-30AE2E418BEE";
paths = (
{
closed = 1;
nodes = (
"488 -96 OFFCURVE",
"408 -162 OFFCURVE",
"284 -162 CURVE SMOOTH",
"208 -162 OFFCURVE",
"130 -137 OFFCURVE",
"61 -77 CURVE",
"50 -90 LINE",
"116 -151 OFFCURVE",
"200 -180 OFFCURVE",
"284 -180 CURVE SMOOTH",
"418 -180 OFFCURVE",
"508 -107 OFFCURVE",
"508 16 CURVE SMOOTH",
"508 163 OFFCURVE",
"379 266 OFFCURVE",
"131 215 CURVE",
"109 194 LINE",
"349 246 OFFCURVE",
"488 162 OFFCURVE",
"488 16 CURVE SMOOTH"
);
},
{
closed = 1;
nodes = (
"161 472 LINE",
"480 472 LINE",
"480 490 LINE",
"143 490 LINE",
"109 194 LINE",
"131 215 LINE"
);
}
);
width = 600;
},
{
layerId = "E846E39B-8E1C-41DF-9DB7-AA75C54DD1EE";
paths = (
{
closed = 1;
nodes = (
"301 35 OFFCURVE",
"264 10 OFFCURVE",
"202 10 CURVE SMOOTH",
"161 10 OFFCURVE",
"116 21 OFFCURVE",
"67 53 CURVE",
"20 -10 LINE",
"80 -98 OFFCURVE",
"190 -150 OFFCURVE",
"329 -150 CURVE SMOOTH",
"484 -150 OFFCURVE",
"620 -86 OFFCURVE",
"620 68 CURVE SMOOTH",
"620 285 OFFCURVE",
"351 295 OFFCURVE",
"223 265 CURVE",
"58 173 LINE",
"245 216 OFFCURVE",
"301 141 OFFCURVE",
"301 83 CURVE SMOOTH"
);
},
{
closed = 1;
nodes = (
"232 330 LINE",
"599 330 LINE",
"599 550 LINE",
"118 550 LINE",
"58 173 LINE",
"223 265 LINE"
);
}
);
width = 630;
}
);
leftKerningGroup = n;
rightKerningGroup = n;
unicode = 0035;
},
{
glyphname = six;
lastChange = "2016-09-22 10:51:00 +0000";
layers = (
{
layerId = "D0758D58-6BF2-4444-AD52-30AE2E418BEE";
paths = (
{
closed = 1;
nodes = (
"166 660 OFFCURVE",
"50 493 OFFCURVE",
"50 225 CURVE SMOOTH",
"50 97 OFFCURVE",
"136 -10 OFFCURVE",
"285 -10 CURVE",
"285 8 LINE",
"146 8 OFFCURVE",
"70 107 OFFCURVE",
"70 225 CURVE",
"67 225 LINE",
"67 483 OFFCURVE",
"178 645 OFFCURVE",
"440 676 CURVE",
"435 690 LINE"
);
},
{
closed = 1;
nodes = (
"150 435 OFFCURVE",
"59 341 OFFCURVE",
"59 225 CURVE",
"70 225 LINE",
"70 332 OFFCURVE",
"159 417 OFFCURVE",
"285 417 CURVE SMOOTH",
"412 417 OFFCURVE",
"488 320 OFFCURVE",
"488 213 CURVE SMOOTH",
"488 105 OFFCURVE",
"412 8 OFFCURVE",
"285 8 CURVE",
"285 -10 LINE",
"421 -10 OFFCURVE",
"508 96 OFFCURVE",
"508 213 CURVE SMOOTH",
"508 329 OFFCURVE",
"421 435 OFFCURVE",
"285 435 CURVE SMOOTH"
);
}
);
width = 558;
},
{
layerId = "E846E39B-8E1C-41DF-9DB7-AA75C54DD1EE";
paths = (
{
closed = 1;
nodes = (
"118 678 OFFCURVE",
"20 457 OFFCURVE",
"20 272 CURVE SMOOTH",
"20 88 OFFCURVE",
"151 -20 OFFCURVE",
"335 -20 CURVE",
"335 185 LINE",
"306 185 OFFCURVE",
"285 209 OFFCURVE",
"285 235 CURVE",
"235 235 LINE",
"235 472 OFFCURVE",
"380 564 OFFCURVE",
"553 610 CURVE",
"520 722 LINE"
);
},
{
closed = 1;
nodes = (
"271 480 OFFCURVE",
"190 408 OFFCURVE",
"190 235 CURVE",
"285 235 LINE",
"285 261 OFFCURVE",
"306 285 OFFCURVE",
"335 285 CURVE SMOOTH",
"365 285 OFFCURVE",
"385 261 OFFCURVE",
"385 235 CURVE SMOOTH",
"385 209 OFFCURVE",
"365 185 OFFCURVE",
"335 185 CURVE",
"335 -20 LINE",
"529 -20 OFFCURVE",
"650 91 OFFCURVE",
"650 237 CURVE SMOOTH",
"650 377 OFFCURVE",
"539 480 OFFCURVE",
"393 480 CURVE SMOOTH"
);
}
);
width = 670;
}
);
leftKerningGroup = o;
leftMetricsKey = "=zero";
rightKerningGroup = o;
rightMetricsKey = "=zero";
unicode = 0036;
},
{
glyphname = seven;
lastChange = "2016-09-22 10:51:14 +0000";
layers = (
{
layerId = "D0758D58-6BF2-4444-AD52-30AE2E418BEE";
paths = (
{
closed = 1;
nodes = (
"203 -180 LINE",
"268 77 OFFCURVE",
"365 263 OFFCURVE",
"500 490 CURVE",
"50 490 LINE",
"50 472 LINE",
"469 472 LINE",
"337 251 OFFCURVE",
"244 71 OFFCURVE",
"182 -180 CURVE"
);
}
);
width = 580;
},
{
layerId = "E846E39B-8E1C-41DF-9DB7-AA75C54DD1EE";
paths = (
{
closed = 1;
nodes = (
"422 -140 LINE",
"425 103 OFFCURVE",
"507 317 OFFCURVE",
"620 550 CURVE",
"30 550 LINE",
"30 330 LINE",
"328 330 LINE",
"198 187 OFFCURVE",
"138 43 OFFCURVE",
"118 -140 CURVE"
);
}
);
width = 630;
}
);
leftKerningGroup = v;
rightKerningGroup = v;
unicode = 0037;
},
{
glyphname = asterisk;
lastChange = "2016-10-08 18:55:29 +0000";
layers = (
{
layerId = "D0758D58-6BF2-4444-AD52-30AE2E418BEE";
paths = (
{
closed = 1;
nodes = (
"389 649 LINE",
"221 591 LINE",
"225 758 LINE",
"204 768 LINE",
"208 591 LINE",
"49 646 LINE",
"34 630 LINE",
"203 578 LINE",
"102 444 LINE",
"112 425 LINE",
"215 570 LINE",
"311 432 LINE",
"333 437 LINE",
"226 578 LINE",
"386 627 LINE"
);
}
);
width = 429;
},
{
layerId = "E846E39B-8E1C-41DF-9DB7-AA75C54DD1EE";
paths = (
{
closed = 1;
nodes = (
"290 578 LINE",
"363 749 LINE",
"198 825 LINE",
"262 578 LINE",
"120 692 LINE",
"-4 559 LINE",
"253 552 LINE",
"101 451 LINE",
"189 292 LINE",
"276 535 LINE",
"317 354 LINE",
"497 389 LINE",
"299 552 LINE",
"483 535 LINE",
"505 716 LINE"
);
}
);
width = 553;
}
);
leftKerningGroup = sign_gora;
rightKerningGroup = sign_gora;
unicode = 002A;
},
{
glyphname = comma;
lastChange = "2016-09-20 20:04:22 +0000";
layers = (
{
layerId = "D0758D58-6BF2-4444-AD52-30AE2E418BEE";
paths = (
{
closed = 1;
nodes = (
"112 55 OFFCURVE",
"89 55 CURVE SMOOTH",
"70 55 OFFCURVE",
"58 42 OFFCURVE",
"58 25 CURVE SMOOTH",
"58 8 OFFCURVE",
"71 -5 OFFCURVE",
"88 -5 CURVE SMOOTH",
"92 -5 OFFCURVE",
"96 -4 OFFCURVE",
"100 -3 CURVE",
"109 -45 OFFCURVE",
"83 -110 OFFCURVE",
"50 -164 CURVE",
"55 -170 LINE",
"91 -115 OFFCURVE",
"120 -72 OFFCURVE",
"120 7 CURVE SMOOTH",
"120 34 OFFCURVE"
);
}
);
width = 170;
},
{
layerId = "E846E39B-8E1C-41DF-9DB7-AA75C54DD1EE";
paths = (
{
closed = 1;
nodes = (
"332 225 OFFCURVE",
"268 290 OFFCURVE",
"179 290 CURVE SMOOTH",
"89 290 OFFCURVE",
"20 223 OFFCURVE",
"20 140 CURVE SMOOTH",
"20 76 OFFCURVE",
"60 21 OFFCURVE",
"117 0 CURVE",
"121 -47 OFFCURVE",
"106 -86 OFFCURVE",
"56 -118 CURVE",
"82 -160 LINE",
"197 -117 OFFCURVE",
"332 -20 OFFCURVE",
"332 125 CURVE SMOOTH"
);
}
);
width = 352;
}
);
leftKerningGroup = sign_bottom;
leftMetricsKey = "=period";
rightKerningGroup = sign_bottom;
rightMetricsKey = "=period";
unicode = 002C;
},
{
glyphname = exclam;
lastChange = "2016-08-28 11:35:38 +0000";
layers = (
{
components = (
{
name = period;
transform = "{1, 0, 0, 1, 30, 0}";
}
);
layerId = "D0758D58-6BF2-4444-AD52-30AE2E418BEE";
paths = (
{
closed = 1;
nodes = (
"103 200 LINE",
"117 200 LINE",
"120 680 LINE",
"100 680 LINE"
);
}
);
width = 220;
},
{
components = (
{
name = period;
transform = "{0.7853, 0, 0, 0.7853, 51, -1}";
}
);
layerId = "E846E39B-8E1C-41DF-9DB7-AA75C54DD1EE";
paths = (
{
closed = 1;
nodes = (
"130 280 LINE",
"240 280 LINE",
"340 680 LINE",
"30 680 LINE"
);
}
);
width = 370;
}
);
leftMetricsKey = "=H";
rightMetricsKey = "=H";
unicode = 0021;
},
{
glyphname = numbersign;
lastChange = "2016-08-28 11:35:38 +0000";
layers = (
{
layerId = "D0758D58-6BF2-4444-AD52-30AE2E418BEE";
paths = (
{
closed = 1;
nodes = (
"191 0 LINE",
"211 0 LINE",
"272 680 LINE",
"252 680 LINE"
);
},
{
closed = 1;
nodes = (
"104 472 LINE",
"622 472 LINE",
"624 490 LINE",
"106 490 LINE"
);
},
{
closed = 1;
nodes = (
"80 190 LINE",
"598 190 LINE",
"599 208 LINE",
"81 208 LINE"
);
},
{
closed = 1;
nodes = (
"431 0 LINE",
"451 0 LINE",
"512 680 LINE",
"492 680 LINE"
);
}
);
width = 704;
},
{
layerId = "E846E39B-8E1C-41DF-9DB7-AA75C54DD1EE";
paths = (
{
closed = 1;
nodes = (
"118 0 LINE",
"299 0 LINE",
"357 680 LINE",
"177 680 LINE"
);
},
{
closed = 1;
nodes = (
"418 0 LINE",
"599 0 LINE",
"657 680 LINE",
"477 680 LINE"
);
},
{
closed = 1;
nodes = (
"54 410 LINE",
"735 410 LINE",
"747 550 LINE",
"66 550 LINE"
);
},
{
closed = 1;
nodes = (
"30 140 LINE",
"711 140 LINE",
"723 280 LINE",
"42 280 LINE"
);
}
);
width = 777;
}
);
leftMetricsKey = "=H";
rightMetricsKey = "=H";
unicode = 0023;
},
{
glyphname = period;
lastChange = "2016-09-22 13:48:06 +0000";
layers = (
{
layerId = "D0758D58-6BF2-4444-AD52-30AE2E418BEE";
paths = (
{
closed = 1;
nodes = (
"97 -5 OFFCURVE",
"110 8 OFFCURVE",
"110 25 CURVE SMOOTH",
"110 42 OFFCURVE",
"97 55 OFFCURVE",
"80 55 CURVE SMOOTH",
"63 55 OFFCURVE",
"50 42 OFFCURVE",
"50 25 CURVE SMOOTH",
"50 8 OFFCURVE",
"63 -5 OFFCURVE",
"80 -5 CURVE SMOOTH"
);
}
);
width = 160;
},
{
layerId = "E846E39B-8E1C-41DF-9DB7-AA75C54DD1EE";
paths = (
{
closed = 1;
nodes = (
"253 -10 OFFCURVE",
"320 57 OFFCURVE",
"320 140 CURVE SMOOTH",
"320 223 OFFCURVE",
"253 290 OFFCURVE",
"170 290 CURVE SMOOTH",
"87 290 OFFCURVE",
"20 223 OFFCURVE",
"20 140 CURVE SMOOTH",
"20 57 OFFCURVE",
"87 -10 OFFCURVE",
"170 -10 CURVE SMOOTH"
);
}
);
width = 340;
}
);
leftKerningGroup = sign_bottom;
leftMetricsKey = "=i";
rightKerningGroup = sign_bottom;
rightMetricsKey = "=i";
unicode = 002E;
},
{
glyphname = question;
lastChange = "2016-10-09 19:36:28 +0000";
layers = (
{
components = (
{
name = period;
transform = "{1, 0, 0, 1, 136, 0}";
}
);
layerId = "D0758D58-6BF2-4444-AD52-30AE2E418BEE";
paths = (
{
closed = 1;
nodes = (
"403 396 OFFCURVE",
"210 347 OFFCURVE",
"210 200 CURVE",
"224 200 LINE",
"234 348 OFFCURVE",
"423 393 OFFCURVE",
"423 539 CURVE SMOOTH",
"423 616 OFFCURVE",
"368 690 OFFCURVE",
"258 690 CURVE SMOOTH",
"157 690 OFFCURVE",
"92 637 OFFCURVE",
"50 590 CURVE",
"60 579 LINE",
"113 633 OFFCURVE",
"167 672 OFFCURVE",
"256 672 CURVE SMOOTH",
"358 672 OFFCURVE",
"403 606 OFFCURVE",
"403 539 CURVE SMOOTH"
);
}
);
width = 463;
},
{
components = (
{
name = period;
transform = "{0.7853, 0, 0, 0.7853, 131, -1}";
}
);
layerId = "E846E39B-8E1C-41DF-9DB7-AA75C54DD1EE";
paths = (
{
closed = 1;
nodes = (
"261 395 OFFCURVE",
"208 354 OFFCURVE",
"208 280 CURVE",
"318 280 LINE",
"354 370 OFFCURVE",
"551 374 OFFCURVE",
"551 531 CURVE SMOOTH",
"551 642 OFFCURVE",
"452 700 OFFCURVE",
"314 700 CURVE SMOOTH",
"163 700 OFFCURVE",
"82 630 OFFCURVE",
"20 530 CURVE",
"77 477 LINE",
"112 502 OFFCURVE",
"146 520 OFFCURVE",
"193 520 CURVE SMOOTH",
"230 520 OFFCURVE",
"261 509 OFFCURVE",
"261 460 CURVE SMOOTH"
);
}
);
width = 561;
}
);
leftKerningGroup = v;
leftMetricsKey = "=|S";
rightKerningGroup = v;
rightMetricsKey = "=P";
unicode = 003F;
},
{
glyphname = quotesingle;
lastChange = "2016-09-20 19:39:11 +0000";
layers = (
{
layerId = "D0758D58-6BF2-4444-AD52-30AE2E418BEE";
paths = (
{
closed = 1;
nodes = (
"75 440 LINE",
"90 440 LINE",
"95 680 LINE",
"70 680 LINE"
);
}
);
width = 165;
},
{
layerId = "E846E39B-8E1C-41DF-9DB7-AA75C54DD1EE";
paths = (
{
closed = 1;
nodes = (
"70 350 LINE",
"210 350 LINE",
"260 680 LINE",
"20 680 LINE"
);
}
);
width = 280;
}
);
leftKerningGroup = sign_gora;
leftMetricsKey = "=l";
rightKerningGroup = sign_gora;
rightMetricsKey = "=l";
unicode = 0027;
},
{
glyphname = slash;
lastChange = "2016-09-20 19:39:23 +0000";
layers = (
{
layerId = "D0758D58-6BF2-4444-AD52-30AE2E418BEE";
paths = (
{
closed = 1;
nodes = (
"10 0 LINE",
"30 0 LINE",
"342 750 LINE",
"322 750 LINE"
);
}
);
width = 362;
},
{
layerId = "E846E39B-8E1C-41DF-9DB7-AA75C54DD1EE";
paths = (
{
closed = 1;
nodes = (
"-30 0 LINE",
"181 0 LINE",
"493 750 LINE",
"283 750 LINE"
);
}
);
width = 493;
}
);
leftKerningGroup = A;
leftMetricsKey = "=A";
rightKerningGroup = V;
rightMetricsKey = "=V";
unicode = 002F;
},
{
glyphname = underscore;
lastChange = "2016-09-20 19:39:32 +0000";
layers = (
{
layerId = "D0758D58-6BF2-4444-AD52-30AE2E418BEE";
paths = (
{
closed = 1;
nodes = (
"450 -18 LINE",
"450 0 LINE",
"0 0 LINE",
"0 -18 LINE"
);
}
);
width = 450;
},
{
layerId = "E846E39B-8E1C-41DF-9DB7-AA75C54DD1EE";
paths = (
{
closed = 1;
nodes = (
"500 -150 LINE",
"500 0 LINE",
"0 0 LINE",
"0 -150 LINE"
);
}
);
width = 500;
}
);
leftKerningGroup = sign_bottom;
rightKerningGroup = sign_bottom;
unicode = 005F;
},
{
glyphname = braceleft;
lastChange = "2016-10-09 19:36:28 +0000";
layers = (
{
layerId = "D0758D58-6BF2-4444-AD52-30AE2E418BEE";
paths = (
{
closed = 1;
nodes = (
"131 750 OFFCURVE",
"111 706 OFFCURVE",
"111 648 CURVE SMOOTH",
"111 562 OFFCURVE",
"156 490 OFFCURVE",
"156 387 CURVE SMOOTH",
"156 307 OFFCURVE",
"133 279 OFFCURVE",
"80 277 CURVE",
"80 265 LINE",
"158 265 OFFCURVE",
"176 306 OFFCURVE",
"176 386 CURVE SMOOTH",
"176 503 OFFCURVE",
"131 567 OFFCURVE",
"131 653 CURVE SMOOTH",
"131 695 OFFCURVE",
"142 732 OFFCURVE",
"210 732 CURVE",
"210 750 LINE"
);
},
{
closed = 1;
nodes = (
"210 732 LINE",
"220 732 LINE",
"220 750 LINE",
"210 750 LINE"
);
},
{
closed = 1;
nodes = (
"210 -192 LINE",
"142 -192 OFFCURVE",
"131 -155 OFFCURVE",
"131 -113 CURVE SMOOTH",
"131 -27 OFFCURVE",
"176 37 OFFCURVE",
"176 154 CURVE SMOOTH",
"176 234 OFFCURVE",
"158 275 OFFCURVE",
"80 275 CURVE",
"80 263 LINE",
"133 261 OFFCURVE",
"156 233 OFFCURVE",
"156 153 CURVE SMOOTH",
"156 50 OFFCURVE",
"111 -22 OFFCURVE",
"111 -108 CURVE SMOOTH",
"111 -166 OFFCURVE",
"131 -210 OFFCURVE",
"210 -210 CURVE"
);
},
{
closed = 1;
nodes = (
"220 -210 LINE",
"220 -192 LINE",
"210 -192 LINE",
"210 -210 LINE"
);
}
);
width = 280;
},
{
guideLines = (
{
position = "{348, 285}";
}
);
layerId = "E846E39B-8E1C-41DF-9DB7-AA75C54DD1EE";
paths = (
{
closed = 1;
nodes = (
"115 750 OFFCURVE",
"63 688 OFFCURVE",
"63 581 CURVE SMOOTH",
"63 506 OFFCURVE",
"89 441 OFFCURVE",
"89 388 CURVE SMOOTH",
"89 351 OFFCURVE",
"76 323 OFFCURVE",
"30 315 CURVE",
"30 235 LINE",
"241 235 OFFCURVE",
"306 316 OFFCURVE",
"306 407 CURVE SMOOTH",
"306 463 OFFCURVE",
"281 540 OFFCURVE",
"281 582 CURVE SMOOTH",
"281 605 OFFCURVE",
"288 620 OFFCURVE",
"310 620 CURVE",
"240 750 LINE"
);
},
{
closed = 1;
nodes = (
"310 620 LINE",
"330 620 LINE",
"330 750 LINE",
"240 750 LINE"
);
},
{
closed = 1;
nodes = (
"310 -80 LINE",
"288 -80 OFFCURVE",
"281 -65 OFFCURVE",
"281 -42 CURVE SMOOTH",
"281 0 OFFCURVE",
"306 77 OFFCURVE",
"306 133 CURVE SMOOTH",
"306 224 OFFCURVE",
"241 305 OFFCURVE",
"30 305 CURVE",
"30 225 LINE",
"76 217 OFFCURVE",
"89 189 OFFCURVE",
"89 152 CURVE SMOOTH",
"89 99 OFFCURVE",
"63 34 OFFCURVE",
"63 -41 CURVE SMOOTH",
"63 -148 OFFCURVE",
"115 -210 OFFCURVE",
"240 -210 CURVE"
);
},
{
closed = 1;
nodes = (
"330 -210 LINE",
"330 -80 LINE",
"310 -80 LINE",
"240 -210 LINE"
);
}
);
width = 340;
}
);
leftMetricsKey = "=E";
rightMetricsKey = "=E";
unicode = 007B;
},
{
glyphname = bracketleft;
lastChange = "2016-10-09 19:36:28 +0000";
layers = (
{
layerId = "D0758D58-6BF2-4444-AD52-30AE2E418BEE";
paths = (
{
closed = 1;
nodes = (
"80 -210 LINE",
"100 -210 LINE",
"100 750 LINE",
"80 750 LINE"
);
},
{
closed = 1;
nodes = (
"100 732 LINE",
"240 732 LINE",
"240 750 LINE",
"100 750 LINE"
);
},
{
closed = 1;
nodes = (
"100 -210 LINE",
"240 -210 LINE",
"240 -192 LINE",
"100 -192 LINE"
);
}
);
width = 300;
},
{
layerId = "E846E39B-8E1C-41DF-9DB7-AA75C54DD1EE";
paths = (
{
closed = 1;
nodes = (
"30 -210 LINE",
"240 -210 LINE",
"240 750 LINE",
"30 750 LINE"
);
},
{
closed = 1;
nodes = (
"240 620 LINE",
"380 620 LINE",
"380 750 LINE",
"240 750 LINE"
);
},
{
closed = 1;
nodes = (
"240 -210 LINE",
"380 -210 LINE",
"380 -80 LINE",
"240 -80 LINE"
);
}
);
width = 390;
}
);
leftMetricsKey = "=E";
rightMetricsKey = "=E";
unicode = 005B;
},
{
glyphname = parenleft;
lastChange = "2016-08-28 11:35:38 +0000";
layers = (
{
layerId = "D0758D58-6BF2-4444-AD52-30AE2E418BEE";
paths = (
{
closed = 1;
nodes = (
"92 605 OFFCURVE",
"50 473 OFFCURVE",
"50 270 CURVE",
"70 270 LINE",
"70 473 OFFCURVE",
"110 597 OFFCURVE",
"190 750 CURVE",
"175 758 LINE"
);
},
{
closed = 1;
nodes = (
"190 -210 LINE",
"110 -57 OFFCURVE",
"70 67 OFFCURVE",
"70 270 CURVE",
"50 270 LINE",
"50 67 OFFCURVE",
"92 -65 OFFCURVE",
"175 -218 CURVE"
);
}
);
width = 230;
},
{
guideLines = (
{
position = "{348, 285}";
}
);
layerId = "E846E39B-8E1C-41DF-9DB7-AA75C54DD1EE";
paths = (
{
closed = 1;
nodes = (
"94 617 OFFCURVE",
"20 453 OFFCURVE",
"20 270 CURVE",
"240 270 LINE",
"240 413 OFFCURVE",
"260 577 OFFCURVE",
"340 750 CURVE",
"244 780 LINE"
);
},
{
closed = 1;
nodes = (
"340 -210 LINE",
"260 -37 OFFCURVE",
"240 127 OFFCURVE",
"240 270 CURVE",
"20 270 LINE",
"20 87 OFFCURVE",
"94 -77 OFFCURVE",
"244 -240 CURVE"
);
}
);
width = 350;
}
);
leftMetricsKey = "=O";
rightMetricsKey = "=C";
unicode = 0028;
},
{
glyphname = emdash;
lastChange = "2016-09-20 19:39:46 +0000";
layers = (
{
layerId = "D0758D58-6BF2-4444-AD52-30AE2E418BEE";
paths = (
{
closed = 1;
nodes = (
"750 282 LINE",
"750 300 LINE",
"0 300 LINE",
"0 282 LINE"
);
}
);
width = 750;
},
{
layerId = "E846E39B-8E1C-41DF-9DB7-AA75C54DD1EE";
paths = (
{
closed = 1;
nodes = (
"940 250 LINE",
"940 400 LINE",
"0 400 LINE",
"0 250 LINE"
);
}
);
width = 940;
}
);
leftKerningGroup = sign_center;
rightKerningGroup = sign_center;
unicode = 2014;
},
{
glyphname = endash;
lastChange = "2016-09-20 19:39:46 +0000";
layers = (
{
layerId = "D0758D58-6BF2-4444-AD52-30AE2E418BEE";
paths = (
{
closed = 1;
nodes = (
"550 282 LINE",
"550 300 LINE",
"0 300 LINE",
"0 282 LINE"
);
}
);
width = 550;
},
{
layerId = "E846E39B-8E1C-41DF-9DB7-AA75C54DD1EE";
paths = (
{
closed = 1;
nodes = (
"640 250 LINE",
"640 400 LINE",
"0 400 LINE",
"0 250 LINE"
);
}
);
width = 640;
}
);
leftKerningGroup = sign_center;
rightKerningGroup = sign_center;
unicode = 2013;
},
{
glyphname = hyphen;
lastChange = "2016-09-20 19:57:45 +0000";
layers = (
{
layerId = "D0758D58-6BF2-4444-AD52-30AE2E418BEE";
paths = (
{
closed = 1;
nodes = (
"390 282 LINE",
"390 300 LINE",
"40 300 LINE",
"40 282 LINE"
);
}
);
width = 430;
},
{
layerId = "E846E39B-8E1C-41DF-9DB7-AA75C54DD1EE";
paths = (
{
closed = 1;
nodes = (
"450 250 LINE",
"450 400 LINE",
"10 400 LINE",
"10 250 LINE"
);
}
);
width = 460;
}
);
leftKerningGroup = sign_center;
leftMetricsKey = "=o";
rightKerningGroup = sign_center;
rightMetricsKey = "=o";
unicode = 002D;
},
{
glyphname = guilsinglleft;
lastChange = "2016-09-20 19:40:06 +0000";
layers = (
{
layerId = "D0758D58-6BF2-4444-AD52-30AE2E418BEE";
paths = (
{
closed = 1;
nodes = (
"87 340 LINE",
"70 340 LINE",
"70 332 LINE",
"310 62 LINE",
"310 88 LINE"
);
},
{
closed = 1;
nodes = (
"310 618 LINE",
"70 348 LINE",
"70 340 LINE",
"87 340 LINE",
"310 592 LINE"
);
}
);
width = 380;
},
{
layerId = "E846E39B-8E1C-41DF-9DB7-AA75C54DD1EE";
paths = (
{
closed = 1;
nodes = (
"245 320 LINE",
"20 320 LINE",
"20 312 LINE",
"320 22 LINE",
"320 257 LINE"
);
},
{
closed = 1;
nodes = (
"320 618 LINE",
"20 328 LINE",
"20 320 LINE",
"245 320 LINE",
"320 383 LINE"
);
}
);
width = 340;
}
);
leftKerningGroup = sign_center_b;
leftMetricsKey = "=n";
rightKerningGroup = sign_center_b;
rightMetricsKey = "=n";
unicode = 2039;
},
{
glyphname = cent;
lastChange = "2016-09-20 19:53:05 +0000";
layers = (
{
components = (
{
name = c;
}
);
layerId = "D0758D58-6BF2-4444-AD52-30AE2E418BEE";
paths = (
{
closed = 1;
nodes = (
"285 -130 LINE",
"305 -130 LINE",
"305 620 LINE",
"285 620 LINE"
);
}
);
width = 570;
},
{
components = (
{
name = c;
}
);
layerId = "E846E39B-8E1C-41DF-9DB7-AA75C54DD1EE";
paths = (
{
closed = 1;
nodes = (
"250 83 LINE",
"220 -130 LINE",
"431 -130 LINE",
"401 83 LINE"
);
},
{
closed = 1;
nodes = (
"401 497 LINE",
"431 680 LINE",
"220 680 LINE",
"250 497 LINE"
);
}
);
width = 631;
}
);
leftKerningGroup = o;
leftMetricsKey = "=c";
rightKerningGroup = o;
rightMetricsKey = "=c";
unicode = 00A2;
},
{
glyphname = currency;
lastChange = "2016-09-20 19:53:05 +0000";
layers = (
{
anchors = (
{
name = bottom;
position = "{295, 0}";
},
{
name = center;
position = "{295, 245}";
},
{
name = ogonek;
position = "{59, 10}";
},
{
name = top;
position = "{295, 490}";
},
{
name = topright;
position = "{20, 490}";
}
);
layerId = "D0758D58-6BF2-4444-AD52-30AE2E418BEE";
paths = (
{
closed = 1;
nodes = (
"142 48 LINE",
"79 -42 LINE",
"95 -53 LINE",
"158 37 LINE"
);
},
{
closed = 1;
nodes = (
"147 500 OFFCURVE",
"40 383 OFFCURVE",
"40 245 CURVE SMOOTH",
"40 107 OFFCURVE",
"147 -10 OFFCURVE",
"295 -10 CURVE SMOOTH",
"444 -10 OFFCURVE",
"550 107 OFFCURVE",
"550 245 CURVE SMOOTH",
"550 383 OFFCURVE",
"444 500 OFFCURVE",
"295 500 CURVE SMOOTH"
);
},
{
closed = 1;
nodes = (
"157 8 OFFCURVE",
"60 117 OFFCURVE",
"60 245 CURVE SMOOTH",
"60 373 OFFCURVE",
"157 482 OFFCURVE",
"295 482 CURVE SMOOTH",
"434 482 OFFCURVE",
"530 373 OFFCURVE",
"530 245 CURVE SMOOTH",
"530 117 OFFCURVE",
"434 8 OFFCURVE",
"295 8 CURVE SMOOTH"
);
},
{
closed = 1;
nodes = (
"431 38 LINE",
"495 -53 LINE",
"511 -42 LINE",
"447 49 LINE"
);
},
{
closed = 1;
nodes = (
"162 456 LINE",
"115 523 LINE",
"99 512 LINE",
"147 443 LINE"
);
},
{
closed = 1;
nodes = (
"443 443 LINE",
"491 512 LINE",
"475 523 LINE",
"426 453 LINE"
);
}
);
width = 590;
},
{
anchors = (
{
name = bottom;
position = "{325, 0}";
},
{
name = center;
position = "{325, 275}";
},
{
name = ogonek;
position = "{65, 10}";
},
{
name = top;
position = "{325, 550}";
},
{
name = topright;
position = "{20, 550}";
}
);
layerId = "E846E39B-8E1C-41DF-9DB7-AA75C54DD1EE";
paths = (
{
closed = 1;
nodes = (
"149 136 LINE",
"58 6 LINE",
"164 -69 LINE",
"272 86 LINE"
);
},
{
closed = 1;
nodes = (
"141 570 OFFCURVE",
"10 438 OFFCURVE",
"10 275 CURVE SMOOTH",
"10 112 OFFCURVE",
"141 -20 OFFCURVE",
"325 -20 CURVE SMOOTH",
"509 -20 OFFCURVE",
"640 112 OFFCURVE",
"640 275 CURVE SMOOTH",
"640 438 OFFCURVE",
"509 570 OFFCURVE",
"325 570 CURVE SMOOTH"
);
},
{
closed = 1;
nodes = (
"259 157 OFFCURVE",
"207 209 OFFCURVE",
"207 275 CURVE SMOOTH",
"207 341 OFFCURVE",
"259 393 OFFCURVE",
"325 393 CURVE SMOOTH",
"391 393 OFFCURVE",
"443 341 OFFCURVE",
"443 275 CURVE SMOOTH",
"443 209 OFFCURVE",
"391 157 OFFCURVE",
"325 157 CURVE SMOOTH"
);
},
{
closed = 1;
nodes = (
"381 81 LINE",
"486 -69 LINE",
"592 6 LINE",
"485 158 LINE"
);
},
{
closed = 1;
nodes = (
"497 407 LINE",
"594 545 LINE",
"488 620 LINE",
"389 478 LINE"
);
},
{
closed = 1;
nodes = (
"261 479 LINE",
"162 620 LINE",
"56 545 LINE",
"155 404 LINE"
);
}
);
width = 650;
}
);
leftKerningGroup = o;
leftMetricsKey = "=o";
rightKerningGroup = o;
rightMetricsKey = "=o";
unicode = 00A4;
},
{
glyphname = dollar;
lastChange = "2016-08-28 11:35:38 +0000";
layers = (
{
components = (
{
name = S;
}
);
layerId = "D0758D58-6BF2-4444-AD52-30AE2E418BEE";
paths = (
{
closed = 1;
nodes = (
"305 -130 LINE",
"325 -130 LINE",
"325 800 LINE",
"305 800 LINE"
);
}
);
width = 603;
},
{
components = (
{
name = S;
}
);
layerId = "E846E39B-8E1C-41DF-9DB7-AA75C54DD1EE";
paths = (
{
closed = 1;
nodes = (
"280 83 LINE",
"250 -130 LINE",
"461 -130 LINE",
"431 83 LINE"
);
},
{
closed = 1;
nodes = (
"431 617 LINE",
"461 800 LINE",
"250 800 LINE",
"280 617 LINE"
);
}
);
width = 681;
}
);
unicode = 0024;
},
{
glyphname = euro;
lastChange = "2016-09-20 19:52:51 +0000";
layers = (
{
layerId = "D0758D58-6BF2-4444-AD52-30AE2E418BEE";
paths = (
{
closed = 1;
nodes = (
"294 8 OFFCURVE",
"160 161 OFFCURVE",
"160 340 CURVE SMOOTH",
"160 519 OFFCURVE",
"294 672 OFFCURVE",
"494 672 CURVE SMOOTH",
"620 672 OFFCURVE",
"702 626 OFFCURVE",
"782 499 CURVE",
"798 507 LINE",
"718 639 OFFCURVE",
"625 690 OFFCURVE",
"491 690 CURVE SMOOTH",
"283 690 OFFCURVE",
"140 529 OFFCURVE",
"140 340 CURVE SMOOTH",
"140 151 OFFCURVE",
"283 -10 OFFCURVE",
"491 -10 CURVE SMOOTH",
"625 -10 OFFCURVE",
"728 51 OFFCURVE",
"798 183 CURVE",
"782 191 LINE",
"712 64 OFFCURVE",
"620 8 OFFCURVE",
"494 8 CURVE SMOOTH"
);
},
{
closed = 1;
nodes = (
"551 402 LINE",
"559 420 LINE",
"50 420 LINE",
"50 402 LINE"
);
},
{
closed = 1;
nodes = (
"490 262 LINE",
"498 280 LINE",
"50 280 LINE",
"50 262 LINE"
);
}
);
width = 838;
},
{
layerId = "E846E39B-8E1C-41DF-9DB7-AA75C54DD1EE";
paths = (
{
closed = 1;
nodes = (
"298 340 LINE",
"298 413 OFFCURVE",
"342 541 OFFCURVE",
"498 541 CURVE SMOOTH",
"583 541 OFFCURVE",
"636 507 OFFCURVE",
"678 472 CURVE",
"769 586 LINE",
"701 642 OFFCURVE",
"615 700 OFFCURVE",
"476 700 CURVE SMOOTH",
"245 700 OFFCURVE",
"90 539 OFFCURVE",
"90 340 CURVE"
);
},
{
closed = 1;
nodes = (
"90 141 OFFCURVE",
"245 -20 OFFCURVE",
"476 -20 CURVE SMOOTH",
"615 -20 OFFCURVE",
"701 38 OFFCURVE",
"769 94 CURVE",
"678 208 LINE",
"636 172 OFFCURVE",
"583 139 OFFCURVE",
"498 139 CURVE SMOOTH",
"342 139 OFFCURVE",
"298 267 OFFCURVE",
"298 340 CURVE",
"90 340 LINE"
);
},
{
closed = 1;
nodes = (
"522 372 LINE",
"553 460 LINE",
"20 460 LINE",
"20 372 LINE"
);
},
{
closed = 1;
nodes = (
"470 222 LINE",
"501 310 LINE",
"20 310 LINE",
"20 222 LINE"
);
}
);
width = 779;
}
);
leftKerningGroup = O;
leftMetricsKey = "=C";
rightKerningGroup = O;
rightMetricsKey = "=C";
unicode = 20AC;
},
{
glyphname = sterling;
lastChange = "2016-10-09 19:36:33 +0000";
layers = (
{
layerId = "D0758D58-6BF2-4444-AD52-30AE2E418BEE";
paths = (
{
closed = 1;
nodes = (
"129 589 OFFCURVE",
"207 672 OFFCURVE",
"319 672 CURVE SMOOTH",
"408 672 OFFCURVE",
"465 633 OFFCURVE",
"521 577 CURVE",
"532 590 LINE",
"482 645 OFFCURVE",
"412 690 OFFCURVE",
"317 690 CURVE SMOOTH",
"197 690 OFFCURVE",
"109 599 OFFCURVE",
"109 483 CURVE SMOOTH",
"109 353 OFFCURVE",
"266 126 OFFCURVE",
"80 0 CURVE",
"128 18 LINE",
"267 148 OFFCURVE",
"129 361 OFFCURVE",
"129 485 CURVE SMOOTH"
);
},
{
closed = 1;
nodes = (
"80 0 LINE",
"532 0 LINE",
"532 18 LINE",
"128 18 LINE"
);
},
{
closed = 1;
nodes = (
"421 332 LINE",
"429 350 LINE",
"20 350 LINE",
"20 332 LINE"
);
}
);
width = 592;
},
{
layerId = "E846E39B-8E1C-41DF-9DB7-AA75C54DD1EE";
paths = (
{
closed = 1;
nodes = (
"409 504 OFFCURVE",
"439 520 OFFCURVE",
"483 520 CURVE SMOOTH",
"526 520 OFFCURVE",
"554 504 OFFCURVE",
"603 467 CURVE",
"660 520 LINE",
"589 629 OFFCURVE",
"514 700 OFFCURVE",
"373 700 CURVE SMOOTH",
"227 700 OFFCURVE",
"79 624 OFFCURVE",
"79 461 CURVE SMOOTH",
"79 304 OFFCURVE",
"207 181 OFFCURVE",
"30 0 CURVE",
"307 180 LINE",
"476 289 OFFCURVE",
"409 379 OFFCURVE",
"409 454 CURVE SMOOTH"
);
},
{
closed = 1;
nodes = (
"30 0 LINE",
"660 0 LINE",
"660 180 LINE",
"307 180 LINE"
);
},
{
closed = 1;
nodes = (
"532 292 LINE",
"563 380 LINE",
"30 380 LINE",
"30 292 LINE"
);
}
);
width = 670;
}
);
leftMetricsKey = "=Z";
rightMetricsKey = "=E";
unicode = 00A3;
},
{
glyphname = yen;
lastChange = "2016-08-28 11:35:38 +0000";
layers = (
{
components = (
{
name = Y;
}
);
layerId = "D0758D58-6BF2-4444-AD52-30AE2E418BEE";
paths = (
{
closed = 1;
nodes = (
"232 390 LINE",
"87 390 LINE",
"87 372 LINE",
"243 372 LINE"
);
},
{
closed = 1;
nodes = (
"577 182 LINE",
"577 200 LINE",
"87 200 LINE",
"87 182 LINE"
);
},
{
closed = 1;
nodes = (
"419 372 LINE",
"577 372 LINE",
"577 390 LINE",
"431 390 LINE"
);
}
);
width = 663;
},
{
components = (
{
name = Y;
}
);
layerId = "E846E39B-8E1C-41DF-9DB7-AA75C54DD1EE";
paths = (
{
closed = 1;
nodes = (
"840 330 LINE",
"840 480 LINE",
"40 480 LINE",
"40 330 LINE"
);
},
{
closed = 1;
nodes = (
"840 90 LINE",
"840 240 LINE",
"40 240 LINE",
"40 90 LINE"
);
}
);
width = 880;
}
);
leftMetricsKey = "=|V";
rightMetricsKey = "=V";
unicode = 00A5;
},
{
glyphname = minus;
lastChange = "2016-09-20 19:53:20 +0000";
layers = (
{
layerId = "D0758D58-6BF2-4444-AD52-30AE2E418BEE";
paths = (
{
closed = 1;
nodes = (
"500 252 LINE",
"500 270 LINE",
"50 270 LINE",
"50 252 LINE"
);
}
);
width = 550;
},
{
layerId = "E846E39B-8E1C-41DF-9DB7-AA75C54DD1EE";
paths = (
{
closed = 1;
nodes = (
"560 210 LINE",
"560 360 LINE",
"20 360 LINE",
"20 210 LINE"
);
}
);
width = 580;
}
);
leftKerningGroup = sign_center;
rightKerningGroup = sign_center;
unicode = 2212;
},
{
glyphname = multiply;
lastChange = "2016-08-28 11:35:38 +0000";
layers = (
{
layerId = "D0758D58-6BF2-4444-AD52-30AE2E418BEE";
paths = (
{
closed = 1;
nodes = (
"439 60 LINE",
"452 73 LINE",
"63 462 LINE",
"50 449 LINE"
);
},
{
closed = 1;
nodes = (
"50 73 LINE",
"63 60 LINE",
"452 449 LINE",
"439 462 LINE"
);
}
);
width = 502;
},
{
layerId = "E846E39B-8E1C-41DF-9DB7-AA75C54DD1EE";
paths = (
{
closed = 1;
nodes = (
"472 6 LINE",
"578 112 LINE",
"126 564 LINE",
"20 458 LINE"
);
},
{
closed = 1;
nodes = (
"20 112 LINE",
"126 6 LINE",
"578 458 LINE",
"472 564 LINE"
);
}
);
width = 598;
}
);
leftMetricsKey = "=minus";
rightMetricsKey = "=minus";
unicode = 00D7;
},
{
glyphname = notequal;
lastChange = "2016-09-20 19:53:37 +0000";
layers = (
{
components = (
{
name = equal;
}
);
layerId = "D0758D58-6BF2-4444-AD52-30AE2E418BEE";
paths = (
{
closed = 1;
nodes = (
"69 -32 LINE",
"85 -43 LINE",
"481 522 LINE",
"465 533 LINE"
);
}
);
width = 550;
},
{
components = (
{
name = equal;
}
);
layerId = "E846E39B-8E1C-41DF-9DB7-AA75C54DD1EE";
paths = (
{
closed = 1;
nodes = (
"22 6 LINE",
"128 -69 LINE",
"558 545 LINE",
"452 620 LINE"
);
}
);
width = 580;
}
);
leftKerningGroup = sign_center_b;
leftMetricsKey = "=minus";
rightKerningGroup = sign_center_b;
rightMetricsKey = "=minus";
unicode = 2260;
},
{
glyphname = less;
lastChange = "2016-09-20 19:53:45 +0000";
layers = (
{
layerId = "D0758D58-6BF2-4444-AD52-30AE2E418BEE";
paths = (
{
closed = 1;
nodes = (
"50 270 LINE",
"50 252 LINE",
"500 12 LINE",
"500 33 LINE",
"72 261 LINE",
"500 489 LINE",
"500 510 LINE"
);
}
);
width = 550;
},
{
layerId = "E846E39B-8E1C-41DF-9DB7-AA75C54DD1EE";
paths = (
{
closed = 1;
nodes = (
"20 360 LINE",
"20 210 LINE",
"560 -10 LINE",
"560 160 LINE",
"195 283 LINE",
"560 390 LINE",
"560 560 LINE"
);
}
);
width = 580;
}
);
leftKerningGroup = sign_center_b;
leftMetricsKey = "=minus";
rightKerningGroup = sign_center_b;
rightMetricsKey = "=minus";
unicode = 003C;
},
{
glyphname = approxequal;
lastChange = "2016-09-20 19:53:50 +0000";
layers = (
{
layerId = "D0758D58-6BF2-4444-AD52-30AE2E418BEE";
paths = (
{
closed = 1;
nodes = (
"400 332 LINE",
"310 332 OFFCURVE",
"250 421 OFFCURVE",
"150 421 CURVE",
"150 405 LINE",
"240 405 OFFCURVE",
"300 316 OFFCURVE",
"400 316 CURVE"
);
},
{
closed = 1;
nodes = (
"65 319 LINE",
"65 381 OFFCURVE",
"117 405 OFFCURVE",
"150 405 CURVE",
"150 421 LINE",
"104 421 OFFCURVE",
"50 390 OFFCURVE",
"50 319 CURVE"
);
},
{
closed = 1;
nodes = (
"485 418 LINE",
"485 356 OFFCURVE",
"433 332 OFFCURVE",
"400 332 CURVE",
"400 316 LINE",
"446 316 OFFCURVE",
"500 347 OFFCURVE",
"500 418 CURVE"
);
},
{
closed = 1;
nodes = (
"400 122 LINE",
"310 122 OFFCURVE",
"250 211 OFFCURVE",
"150 211 CURVE",
"150 195 LINE",
"240 195 OFFCURVE",
"300 106 OFFCURVE",
"400 106 CURVE"
);
},
{
closed = 1;
nodes = (
"65 109 LINE",
"65 171 OFFCURVE",
"117 195 OFFCURVE",
"150 195 CURVE",
"150 211 LINE",
"104 211 OFFCURVE",
"50 180 OFFCURVE",
"50 109 CURVE"
);
},
{
closed = 1;
nodes = (
"485 208 LINE",
"485 146 OFFCURVE",
"433 122 OFFCURVE",
"400 122 CURVE",
"400 106 LINE",
"446 106 OFFCURVE",
"500 137 OFFCURVE",
"500 208 CURVE"
);
}
);
width = 550;
},
{
layerId = "E846E39B-8E1C-41DF-9DB7-AA75C54DD1EE";
paths = (
{
closed = 1;
nodes = (
"394 450 LINE",
"325 450 OFFCURVE",
"278 506 OFFCURVE",
"176 506 CURVE",
"186 360 LINE",
"254 360 OFFCURVE",
"301 304 OFFCURVE",
"404 304 CURVE"
);
},
{
closed = 1;
nodes = (
"126 308 LINE",
"133 344 OFFCURVE",
"161 360 OFFCURVE",
"186 360 CURVE",
"176 506 LINE",
"67 506 OFFCURVE",
"25 427 OFFCURVE",
"20 308 CURVE"
);
},
{
closed = 1;
nodes = (
"454 502 LINE",
"447 466 OFFCURVE",
"419 450 OFFCURVE",
"394 450 CURVE",
"404 304 LINE",
"513 304 OFFCURVE",
"555 383 OFFCURVE",
"560 502 CURVE"
);
},
{
closed = 1;
nodes = (
"394 220 LINE",
"325 220 OFFCURVE",
"278 276 OFFCURVE",
"176 276 CURVE",
"186 130 LINE",
"254 130 OFFCURVE",
"301 74 OFFCURVE",
"404 74 CURVE"
);
},
{
closed = 1;
nodes = (
"126 78 LINE",
"133 114 OFFCURVE",
"161 130 OFFCURVE",
"186 130 CURVE",
"176 276 LINE",
"67 276 OFFCURVE",
"25 197 OFFCURVE",
"20 78 CURVE"
);
},
{
closed = 1;
nodes = (
"454 272 LINE",
"447 236 OFFCURVE",
"419 220 OFFCURVE",
"394 220 CURVE",
"404 74 LINE",
"513 74 OFFCURVE",
"555 153 OFFCURVE",
"560 272 CURVE"
);
}
);
width = 580;
}
);
leftKerningGroup = sign_center_b;
leftMetricsKey = "=minus";
rightKerningGroup = sign_center_b;
rightMetricsKey = "=minus";
unicode = 2248;
},
{
glyphname = asciitilde;
lastChange = "2016-09-20 19:53:55 +0000";
layers = (
{
layerId = "D0758D58-6BF2-4444-AD52-30AE2E418BEE";
paths = (
{
closed = 1;
nodes = (
"400 232 LINE",
"310 232 OFFCURVE",
"250 321 OFFCURVE",
"150 321 CURVE",
"150 305 LINE",
"240 305 OFFCURVE",
"300 216 OFFCURVE",
"400 216 CURVE"
);
},
{
closed = 1;
nodes = (
"65 219 LINE",
"65 281 OFFCURVE",
"117 305 OFFCURVE",
"150 305 CURVE",
"150 321 LINE",
"104 321 OFFCURVE",
"50 290 OFFCURVE",
"50 219 CURVE"
);
},
{
closed = 1;
nodes = (
"485 318 LINE",
"485 256 OFFCURVE",
"433 232 OFFCURVE",
"400 232 CURVE",
"400 216 LINE",
"446 216 OFFCURVE",
"500 247 OFFCURVE",
"500 318 CURVE"
);
}
);
width = 550;
},
{
layerId = "E846E39B-8E1C-41DF-9DB7-AA75C54DD1EE";
paths = (
{
closed = 1;
nodes = (
"394 330 LINE",
"325 330 OFFCURVE",
"278 386 OFFCURVE",
"176 386 CURVE",
"186 240 LINE",
"254 240 OFFCURVE",
"301 184 OFFCURVE",
"404 184 CURVE"
);
},
{
closed = 1;
nodes = (
"126 188 LINE",
"133 224 OFFCURVE",
"161 240 OFFCURVE",
"186 240 CURVE",
"176 386 LINE",
"67 386 OFFCURVE",
"25 307 OFFCURVE",
"20 188 CURVE"
);
},
{
closed = 1;
nodes = (
"454 382 LINE",
"447 346 OFFCURVE",
"419 330 OFFCURVE",
"394 330 CURVE",
"404 184 LINE",
"513 184 OFFCURVE",
"555 263 OFFCURVE",
"560 382 CURVE"
);
}
);
width = 580;
}
);
leftKerningGroup = sign_center;
leftMetricsKey = "=minus";
rightKerningGroup = sign_center;
rightMetricsKey = "=minus";
unicode = 007E;
},
{
glyphname = logicalnot;
lastChange = "2016-09-20 19:53:59 +0000";
layers = (
{
layerId = "D0758D58-6BF2-4444-AD52-30AE2E418BEE";
paths = (
{
closed = 1;
nodes = (
"50 270 LINE",
"50 252 LINE",
"480 252 LINE",
"480 100 LINE",
"500 100 LINE",
"500 270 LINE"
);
}
);
width = 550;
},
{
layerId = "E846E39B-8E1C-41DF-9DB7-AA75C54DD1EE";
paths = (
{
closed = 1;
nodes = (
"20 210 LINE",
"380 210 LINE",
"380 90 LINE",
"560 90 LINE",
"560 210 LINE",
"560 360 LINE",
"20 360 LINE"
);
}
);
width = 580;
}
);
leftKerningGroup = sign_center;
leftMetricsKey = "=minus";
rightKerningGroup = sign_center;
rightMetricsKey = "=minus";
unicode = 00AC;
},
{
glyphname = infinity;
lastChange = "2016-09-20 19:54:06 +0000";
layers = (
{
layerId = "D0758D58-6BF2-4444-AD52-30AE2E418BEE";
paths = (
{
closed = 1;
nodes = (
"129 509 OFFCURVE",
"50 421 OFFCURVE",
"50 318 CURVE SMOOTH",
"50 216 OFFCURVE",
"129 129 OFFCURVE",
"240 129 CURVE SMOOTH",
"350 129 OFFCURVE",
"425 216 OFFCURVE",
"425 318 CURVE SMOOTH",
"425 421 OFFCURVE",
"350 509 OFFCURVE",
"240 509 CURVE SMOOTH"
);
},
{
closed = 1;
nodes = (
"340 491 OFFCURVE",
"410 412 OFFCURVE",
"410 318 CURVE SMOOTH",
"410 225 OFFCURVE",
"340 147 OFFCURVE",
"240 147 CURVE SMOOTH",
"139 147 OFFCURVE",
"70 225 OFFCURVE",
"70 318 CURVE SMOOTH",
"70 412 OFFCURVE",
"139 491 OFFCURVE",
"240 491 CURVE SMOOTH"
);
},
{
closed = 1;
nodes = (
"489 509 OFFCURVE",
"415 421 OFFCURVE",
"415 318 CURVE SMOOTH",
"415 216 OFFCURVE",
"489 129 OFFCURVE",
"600 129 CURVE SMOOTH",
"710 129 OFFCURVE",
"790 216 OFFCURVE",
"790 318 CURVE SMOOTH",
"790 421 OFFCURVE",
"710 509 OFFCURVE",
"600 509 CURVE SMOOTH"
);
},
{
closed = 1;
nodes = (
"700 491 OFFCURVE",
"770 412 OFFCURVE",
"770 318 CURVE SMOOTH",
"770 225 OFFCURVE",
"700 147 OFFCURVE",
"600 147 CURVE SMOOTH",
"499 147 OFFCURVE",
"430 225 OFFCURVE",
"430 318 CURVE SMOOTH",
"430 412 OFFCURVE",
"499 491 OFFCURVE",
"600 491 CURVE SMOOTH"
);
}
);
width = 840;
},
{
layerId = "E846E39B-8E1C-41DF-9DB7-AA75C54DD1EE";
paths = (
{
closed = 1;
nodes = (
"109 518 OFFCURVE",
"20 428 OFFCURVE",
"20 316 CURVE SMOOTH",
"20 204 OFFCURVE",
"109 114 OFFCURVE",
"225 114 CURVE SMOOTH",
"341 114 OFFCURVE",
"421 204 OFFCURVE",
"421 316 CURVE SMOOTH",
"421 428 OFFCURVE",
"341 518 OFFCURVE",
"225 518 CURVE SMOOTH"
);
},
{
closed = 1;
nodes = (
"207 266 OFFCURVE",
"186 288 OFFCURVE",
"186 316 CURVE SMOOTH",
"186 344 OFFCURVE",
"207 367 OFFCURVE",
"235 367 CURVE SMOOTH",
"263 367 OFFCURVE",
"286 344 OFFCURVE",
"286 316 CURVE SMOOTH",
"286 288 OFFCURVE",
"263 266 OFFCURVE",
"235 266 CURVE SMOOTH"
);
},
{
closed = 1;
nodes = (
"395 518 OFFCURVE",
"316 428 OFFCURVE",
"316 316 CURVE SMOOTH",
"316 204 OFFCURVE",
"395 114 OFFCURVE",
"511 114 CURVE SMOOTH",
"627 114 OFFCURVE",
"717 204 OFFCURVE",
"717 316 CURVE SMOOTH",
"717 428 OFFCURVE",
"627 518 OFFCURVE",
"511 518 CURVE SMOOTH"
);
},
{
closed = 1;
nodes = (
"473 266 OFFCURVE",
"452 288 OFFCURVE",
"452 316 CURVE SMOOTH",
"452 344 OFFCURVE",
"473 367 OFFCURVE",
"501 367 CURVE SMOOTH",
"529 367 OFFCURVE",
"552 344 OFFCURVE",
"552 316 CURVE SMOOTH",
"552 288 OFFCURVE",
"529 266 OFFCURVE",
"501 266 CURVE SMOOTH"
);
}
);
width = 737;
}
);
leftKerningGroup = sign_center;
leftMetricsKey = "=minus";
rightKerningGroup = sign_center;
rightMetricsKey = "=minus";
unicode = 221E;
},
{
glyphname = integral;
lastChange = "2016-09-20 19:54:11 +0000";
layers = (
{
layerId = "D0758D58-6BF2-4444-AD52-30AE2E418BEE";
paths = (
{
closed = 1;
nodes = (
"331 540 LINE",
"311 540 LINE",
"311 -27 LINE",
"331 -27 LINE"
);
},
{
closed = 1;
nodes = (
"330 660 OFFCURVE",
"382 715 OFFCURVE",
"488 715 CURVE SMOOTH",
"518 715 OFFCURVE",
"553 711 OFFCURVE",
"592 702 CURVE",
"592 720 LINE",
"554 728 OFFCURVE",
"519 733 OFFCURVE",
"488 733 CURVE SMOOTH",
"373 733 OFFCURVE",
"311 670 OFFCURVE",
"311 540 CURVE",
"331 540 LINE"
);
},
{
closed = 1;
nodes = (
"312 -147 OFFCURVE",
"260 -202 OFFCURVE",
"154 -202 CURVE SMOOTH",
"124 -202 OFFCURVE",
"89 -198 OFFCURVE",
"50 -189 CURVE",
"50 -207 LINE",
"88 -215 OFFCURVE",
"123 -220 OFFCURVE",
"154 -220 CURVE SMOOTH",
"269 -220 OFFCURVE",
"331 -157 OFFCURVE",
"331 -27 CURVE",
"311 -27 LINE"
);
}
);
width = 642;
},
{
layerId = "E846E39B-8E1C-41DF-9DB7-AA75C54DD1EE";
paths = (
{
closed = 1;
nodes = (
"441 550 LINE",
"141 520 LINE",
"141 82 LINE",
"441 112 LINE"
);
},
{
closed = 1;
nodes = (
"441 591 OFFCURVE",
"471 624 OFFCURVE",
"526 624 CURVE SMOOTH",
"537 624 OFFCURVE",
"549 623 OFFCURVE",
"562 620 CURVE",
"562 770 LINE",
"526 778 OFFCURVE",
"487 782 OFFCURVE",
"448 782 CURVE SMOOTH",
"294 782 OFFCURVE",
"141 712 OFFCURVE",
"141 520 CURVE",
"441 550 LINE"
);
},
{
closed = 1;
nodes = (
"141 41 OFFCURVE",
"111 8 OFFCURVE",
"56 8 CURVE SMOOTH",
"45 8 OFFCURVE",
"33 9 OFFCURVE",
"20 12 CURVE",
"20 -138 LINE",
"56 -146 OFFCURVE",
"95 -150 OFFCURVE",
"134 -150 CURVE SMOOTH",
"288 -150 OFFCURVE",
"441 -80 OFFCURVE",
"441 112 CURVE",
"141 82 LINE"
);
}
);
width = 582;
}
);
leftKerningGroup = A;
leftMetricsKey = "=j";
rightKerningGroup = V;
rightMetricsKey = "=|j";
unicode = 222B;
},
{
glyphname = product;
lastChange = "2016-08-28 11:35:38 +0000";
layers = (
{
layerId = "D0758D58-6BF2-4444-AD52-30AE2E418BEE";
paths = (
{
closed = 1;
nodes = (
"80 -210 LINE",
"100 -210 LINE",
"100 680 LINE",
"80 680 LINE"
);
},
{
closed = 1;
nodes = (
"90 662 LINE",
"530 662 LINE",
"530 680 LINE",
"90 680 LINE"
);
},
{
closed = 1;
nodes = (
"520 -210 LINE",
"540 -210 LINE",
"540 680 LINE",
"520 680 LINE"
);
}
);
width = 620;
},
{
layerId = "E846E39B-8E1C-41DF-9DB7-AA75C54DD1EE";
paths = (
{
closed = 1;
nodes = (
"30 -150 LINE",
"290 -150 LINE",
"290 680 LINE",
"30 680 LINE"
);
},
{
closed = 1;
nodes = (
"290 450 LINE",
"490 450 LINE",
"490 680 LINE",
"290 680 LINE"
);
},
{
closed = 1;
nodes = (
"490 -150 LINE",
"750 -150 LINE",
"750 680 LINE",
"490 680 LINE"
);
}
);
width = 780;
}
);
leftMetricsKey = "=H";
rightMetricsKey = "=H";
unicode = 220F;
},
{
glyphname = summation;
lastChange = "2016-10-09 19:36:33 +0000";
layers = (
{
layerId = "D0758D58-6BF2-4444-AD52-30AE2E418BEE";
paths = (
{
closed = 1;
nodes = (
"25 680 LINE",
"349 235 LINE",
"375 235 LINE",
"63 662 LINE",
"485 662 LINE",
"485 680 LINE"
);
},
{
closed = 1;
nodes = (
"485 -192 LINE",
"63 -192 LINE",
"375 235 LINE",
"349 235 LINE",
"25 -210 LINE",
"485 -210 LINE"
);
}
);
width = 545;
},
{
layerId = "E846E39B-8E1C-41DF-9DB7-AA75C54DD1EE";
paths = (
{
closed = 1;
nodes = (
"555 265 LINE",
"442 450 LINE",
"730 450 LINE",
"730 680 LINE",
"10 680 LINE",
"250 265 LINE"
);
},
{
closed = 1;
nodes = (
"10 -150 LINE",
"730 -150 LINE",
"730 80 LINE",
"442 80 LINE",
"555 265 LINE",
"250 265 LINE"
);
}
);
width = 740;
}
);
leftMetricsKey = "=x";
rightMetricsKey = "=E";
unicode = 2211;
},
{
glyphname = percent;
lastChange = "2016-09-20 19:54:17 +0000";
layers = (
{
layerId = "D0758D58-6BF2-4444-AD52-30AE2E418BEE";
paths = (
{
closed = 1;
nodes = (
"119 609 OFFCURVE",
"40 521 OFFCURVE",
"40 418 CURVE SMOOTH",
"40 316 OFFCURVE",
"119 229 OFFCURVE",
"230 229 CURVE SMOOTH",
"340 229 OFFCURVE",
"420 316 OFFCURVE",
"420 418 CURVE SMOOTH",
"420 521 OFFCURVE",
"340 609 OFFCURVE",
"230 609 CURVE SMOOTH"
);
},
{
closed = 1;
nodes = (
"330 591 OFFCURVE",
"400 512 OFFCURVE",
"400 418 CURVE SMOOTH",
"400 325 OFFCURVE",
"330 247 OFFCURVE",
"230 247 CURVE SMOOTH",
"129 247 OFFCURVE",
"60 325 OFFCURVE",
"60 418 CURVE SMOOTH",
"60 512 OFFCURVE",
"129 591 OFFCURVE",
"230 591 CURVE SMOOTH"
);
},
{
closed = 1;
nodes = (
"256 -100 LINE",
"278 -100 LINE",
"688 620 LINE",
"666 620 LINE"
);
},
{
closed = 1;
nodes = (
"599 280 OFFCURVE",
"520 192 OFFCURVE",
"520 89 CURVE SMOOTH",
"520 -13 OFFCURVE",
"599 -100 OFFCURVE",
"710 -100 CURVE SMOOTH",
"820 -100 OFFCURVE",
"900 -13 OFFCURVE",
"900 89 CURVE SMOOTH",
"900 192 OFFCURVE",
"820 280 OFFCURVE",
"710 280 CURVE SMOOTH"
);
},
{
closed = 1;
nodes = (
"810 262 OFFCURVE",
"880 183 OFFCURVE",
"880 89 CURVE SMOOTH",
"880 -4 OFFCURVE",
"810 -82 OFFCURVE",
"710 -82 CURVE SMOOTH",
"609 -82 OFFCURVE",
"540 -4 OFFCURVE",
"540 89 CURVE SMOOTH",
"540 183 OFFCURVE",
"609 262 OFFCURVE",
"710 262 CURVE SMOOTH"
);
}
);
width = 940;
},
{
layerId = "E846E39B-8E1C-41DF-9DB7-AA75C54DD1EE";
paths = (
{
closed = 1;
nodes = (
"118 680 OFFCURVE",
"10 571 OFFCURVE",
"10 436 CURVE SMOOTH",
"10 301 OFFCURVE",
"118 192 OFFCURVE",
"270 192 CURVE SMOOTH",
"422 192 OFFCURVE",
"531 301 OFFCURVE",
"531 436 CURVE SMOOTH",
"531 571 OFFCURVE",
"422 680 OFFCURVE",
"270 680 CURVE SMOOTH"
);
},
{
closed = 1;
nodes = (
"242 387 OFFCURVE",
"221 408 OFFCURVE",
"221 436 CURVE SMOOTH",
"221 464 OFFCURVE",
"242 487 OFFCURVE",
"270 487 CURVE SMOOTH",
"298 487 OFFCURVE",
"321 464 OFFCURVE",
"321 436 CURVE SMOOTH",
"321 408 OFFCURVE",
"298 387 OFFCURVE",
"270 387 CURVE SMOOTH"
);
},
{
closed = 1;
nodes = (
"278 -70 LINE",
"489 -70 LINE",
"1001 680 LINE",
"791 680 LINE"
);
},
{
closed = 1;
nodes = (
"858 418 OFFCURVE",
"750 309 OFFCURVE",
"750 174 CURVE SMOOTH",
"750 39 OFFCURVE",
"858 -70 OFFCURVE",
"1010 -70 CURVE SMOOTH",
"1162 -70 OFFCURVE",
"1271 39 OFFCURVE",
"1271 174 CURVE SMOOTH",
"1271 309 OFFCURVE",
"1162 418 OFFCURVE",
"1010 418 CURVE SMOOTH"
);
},
{
closed = 1;
nodes = (
"982 125 OFFCURVE",
"961 146 OFFCURVE",
"961 174 CURVE SMOOTH",
"961 202 OFFCURVE",
"982 225 OFFCURVE",
"1010 225 CURVE SMOOTH",
"1038 225 OFFCURVE",
"1061 202 OFFCURVE",
"1061 174 CURVE SMOOTH",
"1061 146 OFFCURVE",
"1038 125 OFFCURVE",
"1010 125 CURVE SMOOTH"
);
}
);
width = 1281;
}
);
leftKerningGroup = V;
leftMetricsKey = "=o";
rightKerningGroup = A;
rightMetricsKey = "=o";
unicode = 0025;
},
{
glyphname = perthousand;
lastChange = "2016-09-20 19:54:22 +0000";
layers = (
{
layerId = "D0758D58-6BF2-4444-AD52-30AE2E418BEE";
paths = (
{
closed = 1;
nodes = (
"119 609 OFFCURVE",
"40 521 OFFCURVE",
"40 418 CURVE SMOOTH",
"40 316 OFFCURVE",
"119 229 OFFCURVE",
"230 229 CURVE SMOOTH",
"340 229 OFFCURVE",
"420 316 OFFCURVE",
"420 418 CURVE SMOOTH",
"420 521 OFFCURVE",
"340 609 OFFCURVE",
"230 609 CURVE SMOOTH"
);
},
{
closed = 1;
nodes = (
"330 591 OFFCURVE",
"400 512 OFFCURVE",
"400 418 CURVE SMOOTH",
"400 325 OFFCURVE",
"330 247 OFFCURVE",
"230 247 CURVE SMOOTH",
"129 247 OFFCURVE",
"60 325 OFFCURVE",
"60 418 CURVE SMOOTH",
"60 512 OFFCURVE",
"129 591 OFFCURVE",
"230 591 CURVE SMOOTH"
);
},
{
closed = 1;
nodes = (
"256 -100 LINE",
"278 -100 LINE",
"688 620 LINE",
"666 620 LINE"
);
},
{
closed = 1;
nodes = (
"599 280 OFFCURVE",
"520 192 OFFCURVE",
"520 89 CURVE SMOOTH",
"520 -13 OFFCURVE",
"599 -100 OFFCURVE",
"710 -100 CURVE SMOOTH",
"820 -100 OFFCURVE",
"900 -13 OFFCURVE",
"900 89 CURVE SMOOTH",
"900 192 OFFCURVE",
"820 280 OFFCURVE",
"710 280 CURVE SMOOTH"
);
},
{
closed = 1;
nodes = (
"810 262 OFFCURVE",
"880 183 OFFCURVE",
"880 89 CURVE SMOOTH",
"880 -4 OFFCURVE",
"810 -82 OFFCURVE",
"710 -82 CURVE SMOOTH",
"609 -82 OFFCURVE",
"540 -4 OFFCURVE",
"540 89 CURVE SMOOTH",
"540 183 OFFCURVE",
"609 262 OFFCURVE",
"710 262 CURVE SMOOTH"
);
},
{
closed = 1;
nodes = (
"999 280 OFFCURVE",
"920 192 OFFCURVE",
"920 89 CURVE SMOOTH",
"920 -13 OFFCURVE",
"999 -100 OFFCURVE",
"1110 -100 CURVE SMOOTH",
"1220 -100 OFFCURVE",
"1300 -13 OFFCURVE",
"1300 89 CURVE SMOOTH",
"1300 192 OFFCURVE",
"1220 280 OFFCURVE",
"1110 280 CURVE SMOOTH"
);
},
{
closed = 1;
nodes = (
"1210 262 OFFCURVE",
"1280 183 OFFCURVE",
"1280 89 CURVE SMOOTH",
"1280 -4 OFFCURVE",
"1210 -82 OFFCURVE",
"1110 -82 CURVE SMOOTH",
"1009 -82 OFFCURVE",
"940 -4 OFFCURVE",
"940 89 CURVE SMOOTH",
"940 183 OFFCURVE",
"1009 262 OFFCURVE",
"1110 262 CURVE SMOOTH"
);
}
);
width = 1340;
},
{
layerId = "E846E39B-8E1C-41DF-9DB7-AA75C54DD1EE";
paths = (
{
closed = 1;
nodes = (
"118 680 OFFCURVE",
"10 571 OFFCURVE",
"10 436 CURVE SMOOTH",
"10 301 OFFCURVE",
"118 192 OFFCURVE",
"270 192 CURVE SMOOTH",
"422 192 OFFCURVE",
"531 301 OFFCURVE",
"531 436 CURVE SMOOTH",
"531 571 OFFCURVE",
"422 680 OFFCURVE",
"270 680 CURVE SMOOTH"
);
},
{
closed = 1;
nodes = (
"242 387 OFFCURVE",
"221 408 OFFCURVE",
"221 436 CURVE SMOOTH",
"221 464 OFFCURVE",
"242 487 OFFCURVE",
"270 487 CURVE SMOOTH",
"298 487 OFFCURVE",
"321 464 OFFCURVE",
"321 436 CURVE SMOOTH",
"321 408 OFFCURVE",
"298 387 OFFCURVE",
"270 387 CURVE SMOOTH"
);
},
{
closed = 1;
nodes = (
"278 -70 LINE",
"489 -70 LINE",
"1001 680 LINE",
"791 680 LINE"
);
},
{
closed = 1;
nodes = (
"858 418 OFFCURVE",
"750 309 OFFCURVE",
"750 174 CURVE SMOOTH",
"750 39 OFFCURVE",
"858 -70 OFFCURVE",
"1010 -70 CURVE SMOOTH",
"1162 -70 OFFCURVE",
"1271 39 OFFCURVE",
"1271 174 CURVE SMOOTH",
"1271 309 OFFCURVE",
"1162 418 OFFCURVE",
"1010 418 CURVE SMOOTH"
);
},
{
closed = 1;
nodes = (
"982 125 OFFCURVE",
"961 146 OFFCURVE",
"961 174 CURVE SMOOTH",
"961 202 OFFCURVE",
"982 225 OFFCURVE",
"1010 225 CURVE SMOOTH",
"1038 225 OFFCURVE",
"1061 202 OFFCURVE",
"1061 174 CURVE SMOOTH",
"1061 146 OFFCURVE",
"1038 125 OFFCURVE",
"1010 125 CURVE SMOOTH"
);
},
{
closed = 1;
nodes = (
"1398 418 OFFCURVE",
"1290 309 OFFCURVE",
"1290 174 CURVE SMOOTH",
"1290 39 OFFCURVE",
"1398 -70 OFFCURVE",
"1550 -70 CURVE SMOOTH",
"1702 -70 OFFCURVE",
"1811 39 OFFCURVE",
"1811 174 CURVE SMOOTH",
"1811 309 OFFCURVE",
"1702 418 OFFCURVE",
"1550 418 CURVE SMOOTH"
);
},
{
closed = 1;
nodes = (
"1522 125 OFFCURVE",
"1501 146 OFFCURVE",
"1501 174 CURVE SMOOTH",
"1501 202 OFFCURVE",
"1522 225 OFFCURVE",
"1550 225 CURVE SMOOTH",
"1578 225 OFFCURVE",
"1601 202 OFFCURVE",
"1601 174 CURVE SMOOTH",
"1601 146 OFFCURVE",
"1578 125 OFFCURVE",
"1550 125 CURVE SMOOTH"
);
}
);
width = 1821;
}
);
leftKerningGroup = V;
leftMetricsKey = "=o";
rightKerningGroup = A;
rightMetricsKey = "=o";
unicode = 2030;
},
{
glyphname = lozenge;
lastChange = "2016-08-28 11:35:38 +0000";
layers = (
{
layerId = "D0758D58-6BF2-4444-AD52-30AE2E418BEE";
paths = (
{
closed = 1;
nodes = (
"306 740 LINE",
"307 738 LINE",
"80 350 LINE",
"100 350 LINE",
"307 705 LINE",
"512 350 LINE",
"532 350 LINE"
);
},
{
closed = 1;
nodes = (
"512 350 LINE",
"307 -5 LINE",
"100 350 LINE",
"80 350 LINE",
"307 -38 LINE",
"306 -40 LINE",
"532 350 LINE"
);
}
);
width = 612;
},
{
layerId = "E846E39B-8E1C-41DF-9DB7-AA75C54DD1EE";
paths = (
{
closed = 1;
nodes = (
"276 740 LINE",
"277 738 LINE",
"30 350 LINE",
"200 350 LINE",
"276 485 LINE",
"352 350 LINE",
"522 350 LINE"
);
},
{
closed = 1;
nodes = (
"352 350 LINE",
"276 215 LINE",
"200 350 LINE",
"30 350 LINE",
"277 -38 LINE",
"276 -40 LINE",
"522 350 LINE"
);
}
);
width = 552;
}
);
leftMetricsKey = "=H";
rightMetricsKey = "=H";
unicode = 25CA;
},
{
glyphname = at;
lastChange = "2016-09-20 19:54:31 +0000";
layers = (
{
anchors = (
{
name = bottom;
position = "{410, 245}";
},
{
name = center;
position = "{427, 490}";
},
{
name = top;
position = "{393, 0}";
},
{
name = topright;
position = "{682, 0}";
}
);
guideLines = (
{
position = "{405, 63}";
}
);
layerId = "D0758D58-6BF2-4444-AD52-30AE2E418BEE";
paths = (
{
closed = 1;
nodes = (
"215 610 OFFCURVE",
"50 438 OFFCURVE",
"50 238 CURVE SMOOTH",
"50 81 OFFCURVE",
"151 -90 OFFCURVE",
"398 -90 CURVE SMOOTH",
"485 -90 OFFCURVE",
"570 -69 OFFCURVE",
"644 -37 CURVE",
"645 -19 LINE",
"585 -44 OFFCURVE",
"490 -72 OFFCURVE",
"395 -72 CURVE SMOOTH",
"174 -72 OFFCURVE",
"70 83 OFFCURVE",
"70 238 CURVE SMOOTH",
"70 428 OFFCURVE",
"227 592 OFFCURVE",
"441 592 CURVE SMOOTH",
"612 592 OFFCURVE",
"752 487 OFFCURVE",
"752 277 CURVE SMOOTH",
"752 168 OFFCURVE",
"714 81 OFFCURVE",
"653 81 CURVE SMOOTH",
"614 81 OFFCURVE",
"589 116 OFFCURVE",
"593 177 CURVE SMOOTH",
"611 437 LINE",
"594 437 LINE",
"585 331 LINE",
"563 399 OFFCURVE",
"504 447 OFFCURVE",
"419 447 CURVE SMOOTH",
"299 447 OFFCURVE",
"213 353 OFFCURVE",
"213 243 CURVE SMOOTH",
"213 145 OFFCURVE",
"283 63 OFFCURVE",
"393 63 CURVE SMOOTH",
"476 63 OFFCURVE",
"541 110 OFFCURVE",
"573 177 CURVE",
"568 110 OFFCURVE",
"601 63 OFFCURVE",
"652 63 CURVE SMOOTH",
"725 63 OFFCURVE",
"772 157 OFFCURVE",
"772 279 CURVE SMOOTH",
"772 487 OFFCURVE",
"635 610 OFFCURVE",
"443 610 CURVE SMOOTH"
);
},
{
closed = 1;
nodes = (
"294 81 OFFCURVE",
"233 156 OFFCURVE",
"233 244 CURVE SMOOTH",
"233 342 OFFCURVE",
"309 428 OFFCURVE",
"417 428 CURVE SMOOTH",
"517 428 OFFCURVE",
"578 354 OFFCURVE",
"578 266 CURVE SMOOTH",
"578 168 OFFCURVE",
"502 81 OFFCURVE",
"394 81 CURVE SMOOTH"
);
}
);
width = 822;
},
{
anchors = (
{
name = bottom;
position = "{411, 275}";
},
{
name = center;
position = "{430, 550}";
},
{
name = top;
position = "{392, 0}";
},
{
name = topright;
position = "{730, 0}";
}
);
layerId = "E846E39B-8E1C-41DF-9DB7-AA75C54DD1EE";
paths = (
{
closed = 1;
nodes = (
"494 409 LINE",
"465 453 OFFCURVE",
"424 474 OFFCURVE",
"369 474 CURVE SMOOTH",
"251 474 OFFCURVE",
"156 375 OFFCURVE",
"156 246 CURVE SMOOTH",
"156 131 OFFCURVE",
"231 46 OFFCURVE",
"340 46 CURVE SMOOTH",
"394 46 OFFCURVE",
"435 67 OFFCURVE",
"466 102 CURVE",
"491 63 OFFCURVE",
"545 46 OFFCURVE",
"600 46 CURVE SMOOTH",
"726 46 OFFCURVE",
"828 136 OFFCURVE",
"828 308 CURVE SMOOTH",
"828 501 OFFCURVE",
"700 640 OFFCURVE",
"473 640 CURVE SMOOTH",
"206 640 OFFCURVE",
"20 458 OFFCURVE",
"20 240 CURVE SMOOTH",
"20 68 OFFCURVE",
"128 -120 OFFCURVE",
"426 -120 CURVE SMOOTH",
"521 -120 OFFCURVE",
"619 -101 OFFCURVE",
"696 -67 CURVE",
"697 -49 LINE",
"619 -83 OFFCURVE",
"514 -102 OFFCURVE",
"422 -102 CURVE SMOOTH",
"152 -102 OFFCURVE",
"40 71 OFFCURVE",
"40 242 CURVE SMOOTH",
"40 448 OFFCURVE",
"218 622 OFFCURVE",
"472 622 CURVE SMOOTH",
"687 622 OFFCURVE",
"808 490 OFFCURVE",
"808 309 CURVE SMOOTH",
"808 157 OFFCURVE",
"723 103 OFFCURVE",
"690 103 CURVE SMOOTH",
"674 103 OFFCURVE",
"662 116 OFFCURVE",
"664 144 CURVE SMOOTH",
"687 467 LINE",
"522 467 LINE"
);
},
{
closed = 1;
nodes = (
"390 210 OFFCURVE",
"370 232 OFFCURVE",
"370 257 CURVE SMOOTH",
"370 285 OFFCURVE",
"394 310 OFFCURVE",
"423 310 CURVE SMOOTH",
"449 310 OFFCURVE",
"470 288 OFFCURVE",
"470 263 CURVE SMOOTH",
"470 234 OFFCURVE",
"444 210 OFFCURVE",
"416 210 CURVE SMOOTH"
);
}
);
width = 848;
}
);
leftKerningGroup = O;
leftMetricsKey = "=O";
rightKerningGroup = O;
rightMetricsKey = "=O";
unicode = 0040;
},
{
glyphname = ampersand;
lastChange = "2016-09-20 19:54:36 +0000";
layers = (
{
layerId = "D0758D58-6BF2-4444-AD52-30AE2E418BEE";
paths = (
{
closed = 1;
nodes = (
"534 420 LINE",
"624 170 OFFCURVE",
"457 8 OFFCURVE",
"275 8 CURVE SMOOTH",
"172 8 OFFCURVE",
"70 50 OFFCURVE",
"70 180 CURVE SMOOTH",
"70 418 OFFCURVE",
"450 386 OFFCURVE",
"450 592 CURVE",
"430 592 LINE",
"430 399 OFFCURVE",
"50 431 OFFCURVE",
"50 179 CURVE SMOOTH",
"50 40 OFFCURVE",
"158 -10 OFFCURVE",
"274 -10 CURVE SMOOTH",
"468 -10 OFFCURVE",
"642 159 OFFCURVE",
"554 420 CURVE"
);
},
{
closed = 1;
nodes = (
"217 622 OFFCURVE",
"267 672 OFFCURVE",
"340 672 CURVE SMOOTH",
"395 672 OFFCURVE",
"430 643 OFFCURVE",
"430 592 CURVE",
"450 592 LINE",
"450 653 OFFCURVE",
"403 690 OFFCURVE",
"339 690 CURVE SMOOTH",
"259 690 OFFCURVE",
"197 632 OFFCURVE",
"197 550 CURVE SMOOTH",
"197 408 OFFCURVE",
"380 -10 OFFCURVE",
"645 -10 CURVE",
"645 8 LINE",
"393 8 OFFCURVE",
"217 417 OFFCURVE",
"217 550 CURVE SMOOTH"
);
}
);
width = 695;
},
{
layerId = "E846E39B-8E1C-41DF-9DB7-AA75C54DD1EE";
paths = (
{
closed = 1;
nodes = (
"761 256 OFFCURVE",
"762 333 OFFCURVE",
"744 420 CURVE",
"630 379 LINE",
"639 327 OFFCURVE",
"637 280 OFFCURVE",
"625 242 CURVE",
"573 272 OFFCURVE",
"527 311 OFFCURVE",
"490 352 CURVE",
"576 386 OFFCURVE",
"655 423 OFFCURVE",
"655 517 CURVE SMOOTH",
"655 601 OFFCURVE",
"592 690 OFFCURVE",
"429 690 CURVE SMOOTH",
"310 690 OFFCURVE",
"167 642 OFFCURVE",
"167 511 CURVE SMOOTH",
"167 481 OFFCURVE",
"175 443 OFFCURVE",
"199 405 CURVE",
"104 361 OFFCURVE",
"20 299 OFFCURVE",
"20 191 CURVE SMOOTH",
"20 43 OFFCURVE",
"179 -20 OFFCURVE",
"365 -20 CURVE SMOOTH",
"459 -20 OFFCURVE",
"537 -4 OFFCURVE",
"598 27 CURVE",
"652 -1 OFFCURVE",
"732 -15 OFFCURVE",
"815 -10 CURVE",
"815 180 LINE",
"783 180 OFFCURVE",
"762 184 OFFCURVE",
"741 192 CURVE"
);
},
{
closed = 1;
nodes = (
"412 465 OFFCURVE",
"397 479 OFFCURVE",
"397 500 CURVE SMOOTH",
"397 520 OFFCURVE",
"412 535 OFFCURVE",
"432 535 CURVE SMOOTH",
"451 535 OFFCURVE",
"467 520 OFFCURVE",
"467 500 CURVE SMOOTH",
"467 479 OFFCURVE",
"451 465 OFFCURVE",
"432 465 CURVE SMOOTH"
);
},
{
closed = 1;
nodes = (
"345 88 OFFCURVE",
"270 106 OFFCURVE",
"270 167 CURVE SMOOTH",
"270 195 OFFCURVE",
"287 211 OFFCURVE",
"304 221 CURVE",
"341 179 OFFCURVE",
"384 140 OFFCURVE",
"432 108 CURVE"
);
}
);
width = 835;
},
{
associatedMasterId = "E846E39B-8E1C-41DF-9DB7-AA75C54DD1EE";
layerId = "9855E020-5E1C-46A9-A6C8-0E1EC80D3A53";
name = "Bold Aug 16 16, 21:58";
paths = (
{
closed = 1;
nodes = (
"630 379 LINE",
"660 212 OFFCURVE",
"566 108 OFFCURVE",
"442 108 CURVE SMOOTH",
"386 108 OFFCURVE",
"310 122 OFFCURVE",
"310 189 CURVE SMOOTH",
"310 373 OFFCURVE",
"655 321 OFFCURVE",
"655 518 CURVE",
"455 540 LINE",
"455 444 OFFCURVE",
"20 437 OFFCURVE",
"20 191 CURVE SMOOTH",
"20 43 OFFCURVE",
"179 -20 OFFCURVE",
"365 -20 CURVE SMOOTH",
"669 -20 OFFCURVE",
"801 147 OFFCURVE",
"744 420 CURVE"
);
},
{
closed = 1;
nodes = (
"397 561 OFFCURVE",
"414 572 OFFCURVE",
"429 572 CURVE SMOOTH",
"443 572 OFFCURVE",
"455 562 OFFCURVE",
"455 540 CURVE",
"655 518 LINE",
"655 611 OFFCURVE",
"588 690 OFFCURVE",
"435 690 CURVE SMOOTH",
"326 690 OFFCURVE",
"177 650 OFFCURVE",
"177 514 CURVE SMOOTH",
"177 299 OFFCURVE",
"476 -30 OFFCURVE",
"835 -10 CURVE",
"835 180 LINE",
"603 180 OFFCURVE",
"397 416 OFFCURVE",
"397 530 CURVE SMOOTH"
);
}
);
width = 855;
}
);
leftKerningGroup = O;
leftMetricsKey = "=O";
rightMetricsKey = "=O";
unicode = 0026;
},
{
glyphname = paragraph;
lastChange = "2016-08-28 11:35:38 +0000";
layers = (
{
layerId = "D0758D58-6BF2-4444-AD52-30AE2E418BEE";
paths = (
{
closed = 1;
nodes = (
"272 -160 LINE",
"292 -160 LINE",
"292 680 LINE",
"272 680 LINE"
);
},
{
closed = 1;
nodes = (
"282 662 LINE",
"522 662 LINE",
"522 680 LINE",
"282 680 LINE"
);
},
{
closed = 1;
nodes = (
"512 -160 LINE",
"532 -160 LINE",
"532 680 LINE",
"512 680 LINE"
);
},
{
closed = 1;
nodes = (
"272 680 LINE",
"144 680 OFFCURVE",
"40 576 OFFCURVE",
"40 449 CURVE SMOOTH",
"40 320 OFFCURVE",
"144 216 OFFCURVE",
"272 216 CURVE"
);
}
);
width = 612;
},
{
layerId = "E846E39B-8E1C-41DF-9DB7-AA75C54DD1EE";
paths = (
{
closed = 1;
nodes = (
"242 -100 LINE",
"452 -100 LINE",
"452 680 LINE",
"242 680 LINE"
);
},
{
closed = 1;
nodes = (
"452 480 LINE",
"552 480 LINE",
"552 680 LINE",
"452 680 LINE"
);
},
{
closed = 1;
nodes = (
"552 -100 LINE",
"762 -100 LINE",
"762 680 LINE",
"552 680 LINE"
);
},
{
closed = 1;
nodes = (
"242 680 LINE",
"114 680 OFFCURVE",
"10 576 OFFCURVE",
"10 449 CURVE SMOOTH",
"10 320 OFFCURVE",
"114 216 OFFCURVE",
"242 216 CURVE"
);
}
);
width = 792;
}
);
leftMetricsKey = "=|P";
rightMetricsKey = "=H";
unicode = 00B6;
},
{
glyphname = section;
lastChange = "2016-10-09 19:36:33 +0000";
layers = (
{
layerId = "D0758D58-6BF2-4444-AD52-30AE2E418BEE";
paths = (
{
closed = 1;
nodes = (
"123 519 LINE",
"90 489 OFFCURVE",
"72 450 OFFCURVE",
"72 404 CURVE SMOOTH",
"72 168 OFFCURVE",
"544 297 OFFCURVE",
"544 58 CURVE SMOOTH",
"544 -53 OFFCURVE",
"442 -102 OFFCURVE",
"319 -102 CURVE SMOOTH",
"207 -102 OFFCURVE",
"124 -61 OFFCURVE",
"48 17 CURVE",
"35 6 LINE",
"117 -82 OFFCURVE",
"205 -120 OFFCURVE",
"317 -120 CURVE SMOOTH",
"455 -120 OFFCURVE",
"563 -63 OFFCURVE",
"563 60 CURVE SMOOTH",
"563 318 OFFCURVE",
"91 186 OFFCURVE",
"91 405 CURVE SMOOTH",
"91 446 OFFCURVE",
"108 481 OFFCURVE",
"137 508 CURVE"
);
},
{
closed = 1;
nodes = (
"518 156 LINE",
"547 184 OFFCURVE",
"563 222 OFFCURVE",
"563 270 CURVE SMOOTH",
"563 528 OFFCURVE",
"96 396 OFFCURVE",
"96 615 CURVE SMOOTH",
"96 710 OFFCURVE",
"184 772 OFFCURVE",
"318 772 CURVE SMOOTH",
"416 772 OFFCURVE",
"475 739 OFFCURVE",
"534 681 CURVE",
"547 692 LINE",
"489 749 OFFCURVE",
"427 790 OFFCURVE",
"317 790 CURVE SMOOTH",
"175 790 OFFCURVE",
"77 721 OFFCURVE",
"77 614 CURVE SMOOTH",
"77 378 OFFCURVE",
"544 507 OFFCURVE",
"544 268 CURVE SMOOTH",
"544 226 OFFCURVE",
"529 193 OFFCURVE",
"505 168 CURVE"
);
}
);
width = 613;
},
{
layerId = "E846E39B-8E1C-41DF-9DB7-AA75C54DD1EE";
paths = (
{
closed = 1;
nodes = (
"666 524 OFFCURVE",
"440 545 OFFCURVE",
"440 616 CURVE SMOOTH",
"440 626 OFFCURVE",
"445 650 OFFCURVE",
"487 650 CURVE SMOOTH",
"531 650 OFFCURVE",
"575 624 OFFCURVE",
"614 587 CURVE",
"681 650 LINE",
"615 754 OFFCURVE",
"512 820 OFFCURVE",
"355 820 CURVE SMOOTH",
"179 820 OFFCURVE",
"60 738 OFFCURVE",
"60 599 CURVE SMOOTH",
"60 534 OFFCURVE",
"86 488 OFFCURVE",
"119 452 CURVE",
"75 414 OFFCURVE",
"50 363 OFFCURVE",
"50 299 CURVE SMOOTH",
"50 114 OFFCURVE",
"261 78 OFFCURVE",
"261 3 CURVE SMOOTH",
"261 -16 OFFCURVE",
"247 -30 OFFCURVE",
"214 -30 CURVE SMOOTH",
"165 -30 OFFCURVE",
"109 1 OFFCURVE",
"62 43 CURVE",
"5 -30 LINE",
"95 -153 OFFCURVE",
"228 -200 OFFCURVE",
"358 -200 CURVE SMOOTH",
"514 -200 OFFCURVE",
"656 -132 OFFCURVE",
"656 20 CURVE SMOOTH",
"656 87 OFFCURVE",
"632 134 OFFCURVE",
"599 170 CURVE",
"640 206 OFFCURVE",
"666 255 OFFCURVE",
"666 320 CURVE SMOOTH"
);
},
{
closed = 1;
nodes = (
"317 255 OFFCURVE",
"284 288 OFFCURVE",
"284 330 CURVE SMOOTH",
"284 372 OFFCURVE",
"317 405 OFFCURVE",
"359 405 CURVE SMOOTH",
"401 405 OFFCURVE",
"433 372 OFFCURVE",
"433 330 CURVE SMOOTH",
"433 288 OFFCURVE",
"401 255 OFFCURVE",
"359 255 CURVE SMOOTH"
);
}
);
width = 701;
}
);
leftMetricsKey = "=S";
rightMetricsKey = "=S";
unicode = 00A7;
},
{
glyphname = copyright;
lastChange = "2016-09-20 19:54:52 +0000";
layers = (
{
anchors = (
{
name = bottom;
position = "{415.852, 129}";
},
{
name = top;
position = "{415.852, 532.599}";
}
);
layerId = "D0758D58-6BF2-4444-AD52-30AE2E418BEE";
paths = (
{
closed = 1;
nodes = (
"604 -10 OFFCURVE",
"750 151 OFFCURVE",
"750 340 CURVE SMOOTH",
"750 529 OFFCURVE",
"604 690 OFFCURVE",
"400 690 CURVE SMOOTH",
"195 690 OFFCURVE",
"50 529 OFFCURVE",
"50 340 CURVE SMOOTH",
"50 151 OFFCURVE",
"195 -10 OFFCURVE",
"400 -10 CURVE SMOOTH"
);
},
{
closed = 1;
nodes = (
"207 8 OFFCURVE",
"70 161 OFFCURVE",
"70 340 CURVE SMOOTH",
"70 519 OFFCURVE",
"207 672 OFFCURVE",
"400 672 CURVE SMOOTH",
"592 672 OFFCURVE",
"730 519 OFFCURVE",
"730 340 CURVE SMOOTH",
"730 161 OFFCURVE",
"592 8 OFFCURVE",
"400 8 CURVE SMOOTH"
);
},
{
closed = 1;
nodes = (
"205 340 LINE",
"205 448 OFFCURVE",
"284 538 OFFCURVE",
"404 538 CURVE SMOOTH",
"482 538 OFFCURVE",
"530 509 OFFCURVE",
"580 434 CURVE",
"595 444 LINE",
"543 524 OFFCURVE",
"487 556 OFFCURVE",
"404 556 CURVE SMOOTH",
"275 556 OFFCURVE",
"185 457 OFFCURVE",
"185 340 CURVE"
);
},
{
closed = 1;
nodes = (
"185 223 OFFCURVE",
"275 124 OFFCURVE",
"404 124 CURVE SMOOTH",
"487 124 OFFCURVE",
"543 156 OFFCURVE",
"595 236 CURVE",
"580 246 LINE",
"530 171 OFFCURVE",
"482 142 OFFCURVE",
"404 142 CURVE SMOOTH",
"284 142 OFFCURVE",
"205 232 OFFCURVE",
"205 340 CURVE",
"185 340 LINE"
);
}
);
width = 800;
},
{
components = (
{
name = C;
transform = "{0.6209, 0, 0, 0.6209, 133, 129}";
}
);
layerId = "E846E39B-8E1C-41DF-9DB7-AA75C54DD1EE";
paths = (
{
closed = 1;
nodes = (
"574 -10 OFFCURVE",
"720 151 OFFCURVE",
"720 340 CURVE SMOOTH",
"720 529 OFFCURVE",
"574 690 OFFCURVE",
"370 690 CURVE SMOOTH",
"165 690 OFFCURVE",
"20 529 OFFCURVE",
"20 340 CURVE SMOOTH",
"20 151 OFFCURVE",
"165 -10 OFFCURVE",
"370 -10 CURVE SMOOTH"
);
},
{
closed = 1;
nodes = (
"177 8 OFFCURVE",
"40 161 OFFCURVE",
"40 340 CURVE SMOOTH",
"40 519 OFFCURVE",
"177 672 OFFCURVE",
"370 672 CURVE SMOOTH",
"562 672 OFFCURVE",
"700 519 OFFCURVE",
"700 340 CURVE SMOOTH",
"700 161 OFFCURVE",
"562 8 OFFCURVE",
"370 8 CURVE SMOOTH"
);
}
);
width = 740;
}
);
leftKerningGroup = O;
leftMetricsKey = "=O";
rightKerningGroup = O;
rightMetricsKey = "=O";
unicode = 00A9;
},
{
glyphname = registered;
lastChange = "2016-09-20 19:54:52 +0000";
layers = (
{
anchors = (
{
name = bottom;
position = "{363.139, 129}";
},
{
name = top;
position = "{356.93, 532.599}";
}
);
layerId = "D0758D58-6BF2-4444-AD52-30AE2E418BEE";
paths = (
{
closed = 1;
nodes = (
"604 -10 OFFCURVE",
"750 151 OFFCURVE",
"750 340 CURVE SMOOTH",
"750 529 OFFCURVE",
"604 690 OFFCURVE",
"400 690 CURVE SMOOTH",
"195 690 OFFCURVE",
"50 529 OFFCURVE",
"50 340 CURVE SMOOTH",
"50 151 OFFCURVE",
"195 -10 OFFCURVE",
"400 -10 CURVE SMOOTH"
);
},
{
closed = 1;
nodes = (
"207 8 OFFCURVE",
"70 161 OFFCURVE",
"70 340 CURVE SMOOTH",
"70 519 OFFCURVE",
"207 672 OFFCURVE",
"400 672 CURVE SMOOTH",
"592 672 OFFCURVE",
"730 519 OFFCURVE",
"730 340 CURVE SMOOTH",
"730 161 OFFCURVE",
"592 8 OFFCURVE",
"400 8 CURVE SMOOTH"
);
},
{
closed = 1;
nodes = (
"247 129 LINE",
"267 129 LINE",
"267 545 LINE",
"247 545 LINE"
);
},
{
closed = 1;
nodes = (
"267 527 LINE",
"406 527 LINE",
"406 545 LINE",
"267 545 LINE"
);
},
{
closed = 1;
nodes = (
"267 303 LINE",
"406 303 LINE",
"406 321 LINE",
"267 321 LINE"
);
},
{
closed = 1;
nodes = (
"406 527 LINE",
"470 527 OFFCURVE",
"544 501 OFFCURVE",
"544 424 CURVE SMOOTH",
"544 347 OFFCURVE",
"470 321 OFFCURVE",
"406 321 CURVE",
"406 303 LINE",
"490 303 OFFCURVE",
"562 341 OFFCURVE",
"562 424 CURVE SMOOTH",
"562 507 OFFCURVE",
"490 545 OFFCURVE",
"406 545 CURVE"
);
},
{
closed = 1;
nodes = (
"382 309 LINE",
"411 165 OFFCURVE",
"474 123 OFFCURVE",
"537 123 CURVE SMOOTH",
"556 123 OFFCURVE",
"574 126 OFFCURVE",
"595 135 CURVE",
"595 153 LINE",
"574 144 OFFCURVE",
"556 141 OFFCURVE",
"538 141 CURVE SMOOTH",
"481 141 OFFCURVE",
"431 182 OFFCURVE",
"402 309 CURVE"
);
}
);
width = 800;
},
{
components = (
{
name = R;
transform = "{0.6209, 0, 0, 0.6209, 134, 129}";
}
);
layerId = "E846E39B-8E1C-41DF-9DB7-AA75C54DD1EE";
paths = (
{
closed = 1;
nodes = (
"574 -10 OFFCURVE",
"720 151 OFFCURVE",
"720 340 CURVE SMOOTH",
"720 529 OFFCURVE",
"574 690 OFFCURVE",
"370 690 CURVE SMOOTH",
"165 690 OFFCURVE",
"20 529 OFFCURVE",
"20 340 CURVE SMOOTH",
"20 151 OFFCURVE",
"165 -10 OFFCURVE",
"370 -10 CURVE SMOOTH"
);
},
{
closed = 1;
nodes = (
"177 8 OFFCURVE",
"40 161 OFFCURVE",
"40 340 CURVE SMOOTH",
"40 519 OFFCURVE",
"177 672 OFFCURVE",
"370 672 CURVE SMOOTH",
"562 672 OFFCURVE",
"700 519 OFFCURVE",
"700 340 CURVE SMOOTH",
"700 161 OFFCURVE",
"562 8 OFFCURVE",
"370 8 CURVE SMOOTH"
);
}
);
width = 740;
}
);
leftKerningGroup = O;
leftMetricsKey = "=O";
rightKerningGroup = O;
rightMetricsKey = "=O";
unicode = 00AE;
},
{
glyphname = trademark;
lastChange = "2016-08-28 11:35:38 +0000";
layers = (
{
anchors = (
{
name = bottom;
position = "{751, 223}";
},
{
name = center;
position = "{219, 455}";
},
{
name = top;
position = "{751, 667}";
}
);
layerId = "D0758D58-6BF2-4444-AD52-30AE2E418BEE";
paths = (
{
closed = 1;
nodes = (
"211 216 LINE",
"231 216 LINE",
"231 680 LINE",
"211 680 LINE"
);
},
{
closed = 1;
nodes = (
"231 662 LINE",
"422 662 LINE",
"422 680 LINE",
"231 680 LINE"
);
},
{
closed = 1;
nodes = (
"20 662 LINE",
"211 662 LINE",
"211 680 LINE",
"20 680 LINE"
);
},
{
closed = 1;
nodes = (
"731 393 LINE",
"506 694 LINE",
"465 215 LINE",
"486 215 LINE",
"520 642 LINE",
"731 361 LINE"
);
},
{
closed = 1;
nodes = (
"942 642 LINE",
"976 215 LINE",
"997 215 LINE",
"956 694 LINE",
"731 393 LINE",
"731 361 LINE"
);
}
);
width = 1077;
},
{
components = (
{
alignment = -1;
name = T;
transform = "{0.683, 0, 0, 0.683, 6, 223}";
},
{
alignment = -1;
name = M;
transform = "{0.683, 0, 0, 0.683, 479, 223}";
}
);
layerId = "E846E39B-8E1C-41DF-9DB7-AA75C54DD1EE";
width = 1185;
}
);
leftMetricsKey = "=T";
rightMetricsKey = "=M";
unicode = 2122;
},
{
glyphname = degree;
lastChange = "2016-09-20 19:55:40 +0000";
layers = (
{
layerId = "D0758D58-6BF2-4444-AD52-30AE2E418BEE";
paths = (
{
closed = 1;
nodes = (
"203 450 OFFCURVE",
"256 503 OFFCURVE",
"256 568 CURVE SMOOTH",
"256 634 OFFCURVE",
"203 686 OFFCURVE",
"138 686 CURVE SMOOTH",
"73 686 OFFCURVE",
"20 634 OFFCURVE",
"20 568 CURVE SMOOTH",
"20 503 OFFCURVE",
"73 450 OFFCURVE",
"138 450 CURVE SMOOTH"
);
},
{
closed = 1;
nodes = (
"82 466 OFFCURVE",
"36 512 OFFCURVE",
"36 568 CURVE SMOOTH",
"36 625 OFFCURVE",
"82 670 OFFCURVE",
"138 670 CURVE SMOOTH",
"194 670 OFFCURVE",
"240 625 OFFCURVE",
"240 568 CURVE SMOOTH",
"240 512 OFFCURVE",
"194 466 OFFCURVE",
"138 466 CURVE SMOOTH"
);
}
);
width = 276;
},
{
layerId = "E846E39B-8E1C-41DF-9DB7-AA75C54DD1EE";
paths = (
{
closed = 1;
nodes = (
"214 500 OFFCURVE",
"278 559 OFFCURVE",
"278 636 CURVE SMOOTH",
"278 714 OFFCURVE",
"214 773 OFFCURVE",
"139 773 CURVE SMOOTH",
"64 773 OFFCURVE",
"0 714 OFFCURVE",
"0 636 CURVE SMOOTH",
"0 559 OFFCURVE",
"64 500 OFFCURVE",
"139 500 CURVE SMOOTH"
);
},
{
closed = 1;
nodes = (
"83 535 OFFCURVE",
"39 578 OFFCURVE",
"39 636 CURVE SMOOTH",
"39 695 OFFCURVE",
"83 738 OFFCURVE",
"139 738 CURVE SMOOTH",
"195 738 OFFCURVE",
"239 695 OFFCURVE",
"239 636 CURVE SMOOTH",
"239 578 OFFCURVE",
"195 535 OFFCURVE",
"139 535 CURVE SMOOTH"
);
}
);
width = 278;
}
);
leftKerningGroup = sign_gora;
leftMetricsKey = "=V";
rightKerningGroup = sign_gora;
rightMetricsKey = "=V";
unicode = 00B0;
},
{
glyphname = bar;
lastChange = "2016-08-28 11:35:38 +0000";
layers = (
{
layerId = "D0758D58-6BF2-4444-AD52-30AE2E418BEE";
paths = (
{
closed = 1;
nodes = (
"80 -210 LINE",
"100 -210 LINE",
"100 800 LINE",
"80 800 LINE"
);
}
);
width = 180;
},
{
layerId = "E846E39B-8E1C-41DF-9DB7-AA75C54DD1EE";
paths = (
{
closed = 1;
nodes = (
"30 -150 LINE",
"241 -150 LINE",
"241 800 LINE",
"30 800 LINE"
);
}
);
width = 271;
}
);
leftMetricsKey = "=H";
rightMetricsKey = "=H";
unicode = 007C;
},
{
glyphname = brokenbar;
lastChange = "2016-08-28 11:35:38 +0000";
layers = (
{
layerId = "D0758D58-6BF2-4444-AD52-30AE2E418BEE";
paths = (
{
closed = 1;
nodes = (
"80 450 LINE",
"100 450 LINE",
"100 800 LINE",
"80 800 LINE"
);
},
{
closed = 1;
nodes = (
"80 -210 LINE",
"100 -210 LINE",
"100 140 LINE",
"80 140 LINE"
);
}
);
width = 180;
},
{
layerId = "E846E39B-8E1C-41DF-9DB7-AA75C54DD1EE";
paths = (
{
closed = 1;
nodes = (
"30 400 LINE",
"241 400 LINE",
"241 800 LINE",
"30 800 LINE"
);
},
{
closed = 1;
nodes = (
"30 -150 LINE",
"241 -150 LINE",
"241 250 LINE",
"30 250 LINE"
);
}
);
width = 271;
}
);
leftMetricsKey = "=H";
rightMetricsKey = "=H";
unicode = 00A6;
},
{
glyphname = dagger;
lastChange = "2016-08-28 11:35:38 +0000";
layers = (
{
layerId = "D0758D58-6BF2-4444-AD52-30AE2E418BEE";
paths = (
{
closed = 1;
nodes = (
"315 -210 LINE",
"335 -210 LINE",
"335 800 LINE",
"315 800 LINE"
);
},
{
closed = 1;
nodes = (
"50 520 LINE",
"50 500 LINE",
"600 500 LINE",
"600 520 LINE"
);
}
);
width = 650;
},
{
layerId = "E846E39B-8E1C-41DF-9DB7-AA75C54DD1EE";
paths = (
{
closed = 1;
nodes = (
"240 -150 LINE",
"451 -150 LINE",
"451 800 LINE",
"240 800 LINE"
);
},
{
closed = 1;
nodes = (
"20 591 LINE",
"20 400 LINE",
"670 400 LINE",
"670 591 LINE"
);
}
);
width = 690;
}
);
leftMetricsKey = "=minus";
rightMetricsKey = "=minus";
unicode = 2020;
},
{
glyphname = daggerdbl;
lastChange = "2016-08-28 11:35:38 +0000";
layers = (
{
layerId = "D0758D58-6BF2-4444-AD52-30AE2E418BEE";
paths = (
{
closed = 1;
nodes = (
"315 -210 LINE",
"335 -210 LINE",
"335 800 LINE",
"315 800 LINE"
);
},
{
closed = 1;
nodes = (
"50 520 LINE",
"50 500 LINE",
"600 500 LINE",
"600 520 LINE"
);
},
{
closed = 1;
nodes = (
"50 90 LINE",
"50 70 LINE",
"600 70 LINE",
"600 90 LINE"
);
}
);
width = 650;
},
{
layerId = "E846E39B-8E1C-41DF-9DB7-AA75C54DD1EE";
paths = (
{
closed = 1;
nodes = (
"240 -150 LINE",
"451 -150 LINE",
"451 800 LINE",
"240 800 LINE"
);
},
{
closed = 1;
nodes = (
"20 591 LINE",
"20 400 LINE",
"670 400 LINE",
"670 591 LINE"
);
},
{
closed = 1;
nodes = (
"20 250 LINE",
"20 59 LINE",
"670 59 LINE",
"670 250 LINE"
);
}
);
width = 690;
}
);
leftMetricsKey = "=minus";
rightMetricsKey = "=minus";
unicode = 2021;
},
{
glyphname = asciicircum;
lastChange = "2016-08-28 11:35:38 +0000";
layers = (
{
layerId = "D0758D58-6BF2-4444-AD52-30AE2E418BEE";
paths = (
{
closed = 1;
nodes = (
"306 740 LINE",
"307 738 LINE",
"80 350 LINE",
"100 350 LINE",
"307 705 LINE",
"512 350 LINE",
"532 350 LINE"
);
}
);
width = 612;
},
{
layerId = "E846E39B-8E1C-41DF-9DB7-AA75C54DD1EE";
paths = (
{
closed = 1;
nodes = (
"276 740 LINE",
"277 738 LINE",
"30 350 LINE",
"200 350 LINE",
"276 485 LINE",
"352 350 LINE",
"522 350 LINE"
);
}
);
width = 552;
}
);
leftMetricsKey = "=H";
rightMetricsKey = "=H";
unicode = 005E;
},
{
glyphname = acute;
lastChange = "2016-08-28 11:36:43 +0000";
layers = (
{
anchors = (
{
name = _top;
position = "{19, 490}";
}
);
guideLines = (
{
position = "{158, 700}";
}
);
layerId = "D0758D58-6BF2-4444-AD52-30AE2E418BEE";
paths = (
{
closed = 1;
nodes = (
"0 600 LINE",
"20 600 LINE",
"165 730 LINE",
"140 730 LINE"
);
}
);
width = 165;
},
{
anchors = (
{
name = _top;
position = "{59, 550}";
}
);
annotations = (
{
position = "{41, 751}";
type = Circle;
width = 30;
}
);
guideLines = (
{
position = "{169, 780}";
},
{
position = "{120, 570}";
}
);
layerId = "E846E39B-8E1C-41DF-9DB7-AA75C54DD1EE";
paths = (
{
closed = 1;
nodes = (
"50 610 LINE",
"85 610 LINE",
"325 770 LINE",
"50 770 LINE"
);
}
);
width = 325;
}
);
unicode = 00B4;
},
{
glyphname = breve;
lastChange = "2016-08-28 11:36:43 +0000";
layers = (
{
anchors = (
{
name = _top;
position = "{117, 490}";
}
);
layerId = "D0758D58-6BF2-4444-AD52-30AE2E418BEE";
paths = (
{
closed = 1;
nodes = (
"118 618 LINE",
"55 618 OFFCURVE",
"15 674 OFFCURVE",
"15 730 CURVE",
"0 730 LINE",
"0 657 OFFCURVE",
"49 600 OFFCURVE",
"118 600 CURVE"
);
},
{
closed = 1;
nodes = (
"187 600 OFFCURVE",
"236 657 OFFCURVE",
"236 730 CURVE",
"221 730 LINE",
"221 674 OFFCURVE",
"181 618 OFFCURVE",
"118 618 CURVE",
"118 600 LINE"
);
}
);
width = 236;
},
{
anchors = (
{
name = _top;
position = "{178, 550}";
}
);
layerId = "E846E39B-8E1C-41DF-9DB7-AA75C54DD1EE";
paths = (
{
closed = 1;
nodes = (
"178 725 LINE",
"137 725 OFFCURVE",
"115 748 OFFCURVE",
"115 770 CURVE",
"0 770 LINE",
"0 707 OFFCURVE",
"52 600 OFFCURVE",
"178 600 CURVE"
);
},
{
closed = 1;
nodes = (
"304 600 OFFCURVE",
"356 687 OFFCURVE",
"356 770 CURVE",
"241 770 LINE",
"241 748 OFFCURVE",
"219 725 OFFCURVE",
"178 725 CURVE",
"178 600 LINE"
);
}
);
width = 356;
}
);
unicode = 02D8;
},
{
glyphname = caron;
lastChange = "2016-08-28 11:36:43 +0000";
layers = (
{
anchors = (
{
name = _top;
position = "{117, 490}";
}
);
layerId = "D0758D58-6BF2-4444-AD52-30AE2E418BEE";
paths = (
{
closed = 1;
nodes = (
"118 623 LINE",
"10 730 LINE",
"-10 730 LINE",
"111 600 LINE",
"124 600 LINE",
"245 730 LINE",
"225 730 LINE"
);
}
);
width = 235;
},
{
anchors = (
{
name = _top;
position = "{188, 550}";
}
);
layerId = "E846E39B-8E1C-41DF-9DB7-AA75C54DD1EE";
paths = (
{
closed = 1;
nodes = (
"188 715 LINE",
"105 770 LINE",
"-10 770 LINE",
"120 610 LINE",
"256 610 LINE",
"386 770 LINE",
"271 770 LINE"
);
}
);
width = 376;
}
);
unicode = 02C7;
},
